<svg xmlns="http://www.w3.org/2000/svg" height="288px" width="512px" version="1.1"><polyline points="193.5,0.0,180.0,12.0,171.0,24.0,165.0,36.0,157.5,48.0,151.5,61.5,141.0,73.5,132.0,85.5,126.0,97.5,123.0,109.5,120.0,121.5,120.0,133.5,121.5,145.5,121.5,157.5,114.0,169.5,109.5,181.5,114.0,187.5,121.5,187.5,130.5,184.5,132.0,183.0,127.5,180.0,129.0,168.0,123.0,154.5,111.0,174.0" stroke="black" stroke-width="1" fill="none" />
<polyline points="102.0,165.0,103.5,153.0" stroke="black" stroke-width="1" fill="none" />
<polyline points="90.0,153.0,99.0,165.0,105.0,165.0,106.5,177.0,106.5,189.0" stroke="black" stroke-width="1" fill="none" />
<polyline points="70.5,162.0,81.0,150.0" stroke="black" stroke-width="1" fill="none" />
<polyline points="87.0,151.5,75.0,159.0,63.0,172.5,58.5,166.5,51.0,163.5,57.0,151.5,57.0,139.5,51.0,127.5,51.0,126.0,39.0,123.0,27.0,118.5,16.5,127.5,4.5,133.5" stroke="black" stroke-width="1" fill="none" />
<polyline points="40.5,145.5,40.5,157.5,39.0,169.5,42.0,181.5" stroke="black" stroke-width="1" fill="none" />
<polyline points="112.5,256.5,109.5,268.5,111.0,280.5" stroke="black" stroke-width="1" fill="none" />
<polyline points="171.0,234.0,184.5,265.5,196.5,274.5,208.5,285.0" stroke="black" stroke-width="1" fill="none" />
<polyline points="226.5,268.5,238.5,271.5" stroke="black" stroke-width="1" fill="none" />
<polyline points="244.5,261.0,232.5,261.0,220.5,261.0" stroke="black" stroke-width="1" fill="none" />
<polyline points="195.0,229.5,207.0,243.0,219.0,246.0,231.0,244.5,243.0,246.0,255.0,244.5,267.0,243.0" stroke="black" stroke-width="1" fill="none" />
<polyline points="250.5,229.5,238.5,234.0,226.5,232.5,223.5,231.0,208.5,219.0,214.5,217.5,210.0,219.0,207.0,217.5,219.0,220.5,231.0,216.0,237.0,211.5" stroke="black" stroke-width="1" fill="none" />
<polyline points="249.0,231.0,258.0,219.0,256.5,207.0,253.5,195.0" stroke="black" stroke-width="1" fill="none" />
<polyline points="271.5,166.5,283.5,166.5,295.5,165.0,307.5,159.0" stroke="black" stroke-width="1" fill="none" />
<polyline points="300.0,142.5,288.0,138.0,276.0,139.5,264.0,142.5" stroke="black" stroke-width="1" fill="none" />
<polyline points="270.0,133.5,252.0,145.5,255.0,154.5,253.5,166.5" stroke="black" stroke-width="1" fill="none" />
<polyline points="253.5,153.0,265.5,147.0,277.5,148.5,289.5,147.0,295.5,150.0,307.5,150.0,319.5,147.0" stroke="black" stroke-width="1" fill="none" />
<polyline points="327.0,139.5,307.5,151.5" stroke="black" stroke-width="1" fill="none" />
<polyline points="262.5,117.0,250.5,121.5" stroke="black" stroke-width="1" fill="none" />
<polyline points="244.5,130.5,240.0,142.5,238.5,154.5,235.5,166.5,240.0,171.0" stroke="black" stroke-width="1" fill="none" />
<polyline points="249.0,151.5,261.0,138.0,273.0,133.5,285.0,133.5,297.0,135.0" stroke="black" stroke-width="1" fill="none" />
<polyline points="204.0,145.5,192.0,148.5" stroke="black" stroke-width="1" fill="none" />
<polyline points="208.5,151.5,202.5,156.0,190.5,160.5,178.5,163.5" stroke="black" stroke-width="1" fill="none" />
<polyline points="186.0,165.0,198.0,165.0" stroke="black" stroke-width="1" fill="none" />
<polyline points="220.5,156.0,213.0,148.5,217.5,141.0,210.0,129.0,201.0,135.0,189.0,135.0,177.0,139.5" stroke="black" stroke-width="1" fill="none" />
<polyline points="166.5,142.5,178.5,150.0,180.0,142.5,192.0,139.5,204.0,141.0,216.0,147.0" stroke="black" stroke-width="1" fill="none" />
<polyline points="210.0,127.5,198.0,124.5,186.0,130.5,174.0,133.5,162.0,121.5" stroke="black" stroke-width="1" fill="none" />
<polyline points="139.5,135.0,135.0,123.0,133.5,111.0,136.5,99.0,142.5,87.0,150.0,75.0,145.5,85.5,133.5,105.0" stroke="black" stroke-width="1" fill="none" />
<polyline points="124.5,100.5,136.5,79.5,148.5,66.0,157.5,48.0,169.5,27.0,181.5,12.0,193.5,1.5" stroke="black" stroke-width="1" fill="none" />
<polyline points="198.0,28.5,177.0,40.5,174.0,51.0,186.0,46.5,184.5,46.5,169.5,58.5,163.5,70.5,162.0,82.5,162.0,94.5,160.5,106.5,160.5,118.5,160.5,130.5,162.0,142.5,160.5,154.5,160.5,166.5,160.5,178.5,162.0,190.5,165.0,202.5,166.5,214.5,168.0,226.5,172.5,238.5,177.0,250.5,180.0,262.5,195.0,274.5" stroke="black" stroke-width="1" fill="none" />
<polyline points="196.5,228.0,202.5,240.0,204.0,255.0,202.5,249.0,214.5,250.5,226.5,252.0,238.5,253.5,250.5,252.0,262.5,250.5,274.5,243.0" stroke="black" stroke-width="1" fill="none" />
<polyline points="442.5,193.5,454.5,196.5,466.5,192.0,478.5,201.0,490.5,201.0,502.5,202.5" stroke="black" stroke-width="1" fill="none" />
<polyline points="501.0,189.0,489.0,189.0,477.0,189.0,465.0,187.5,453.0,187.5,441.0,186.0" stroke="black" stroke-width="1" fill="none" />
<polyline points="486.0,138.0,474.0,126.0,462.0,123.0,454.5,115.5,450.0,102.0,448.5,90.0,438.0,82.5" stroke="black" stroke-width="1" fill="none" />
<polyline points="423.0,69.0,411.0,43.5,399.0,25.5,387.0,12.0,375.0,1.5,375.0,0.0,385.5,12.0,396.0,24.0,405.0,36.0,412.5,48.0,418.5,60.0,423.0,72.0,427.5,84.0,430.5,96.0,432.0,108.0,433.5,120.0,435.0,132.0,436.5,144.0,436.5,156.0,438.0,168.0,439.5,180.0,441.0,192.0,444.0,204.0,448.5,216.0,448.5,228.0,448.5,240.0,450.0,252.0" stroke="black" stroke-width="1" fill="none" />
<polyline points="439.5,129.0,441.0,117.0" stroke="black" stroke-width="1" fill="none" />
<polyline points="306.0,43.5,294.0,40.5,292.5,31.5,280.5,27.0,268.5,25.5,256.5,24.0,244.5,24.0,232.5,16.5,225.0,25.5,219.0,24.0,207.0,27.0,195.0,30.0,183.0,34.5,171.0,46.5" stroke="black" stroke-width="1" fill="none" />
<polyline points="0.0,138.0,32.0,138.0" stroke="black" stroke-width="1" fill="none" />
<polyline points="40.0,154.0,48.0,154.0" stroke="black" stroke-width="1" fill="none" />
<polyline points="48.0,146.0,56.0,146.0" stroke="black" stroke-width="1" fill="none" />
<polyline points="48.0,162.0,40.0,162.0" stroke="black" stroke-width="1" fill="none" />
<polyline points="72.0,170.0,104.0,170.0" stroke="black" stroke-width="1" fill="none" />
<polyline points="112.0,170.0,160.0,170.0,160.0,168.0,104.0,224.0" stroke="black" stroke-width="1" fill="none" />
<polyline points="112.0,240.0,160.0,192.0" stroke="black" stroke-width="1" fill="none" />
<polyline points="160.0,184.0,104.0,240.0" stroke="black" stroke-width="1" fill="none" />
<polyline points="120.0,264.0,168.0,216.0" stroke="black" stroke-width="1" fill="none" />
<polyline points="168.0,208.0,112.0,264.0" stroke="black" stroke-width="1" fill="none" />
<polyline points="136.0,288.0,176.0,248.0" stroke="black" stroke-width="1" fill="none" />
<polyline points="176.0,240.0,128.0,288.0" stroke="black" stroke-width="1" fill="none" />
<polyline points="144.0,288.0,176.0,256.0" stroke="black" stroke-width="1" fill="none" />
<polyline points="184.0,256.0,152.0,288.0" stroke="black" stroke-width="1" fill="none" />
<polyline points="160.0,288.0,184.0,264.0" stroke="black" stroke-width="1" fill="none" />
<polyline points="184.0,272.0,168.0,288.0" stroke="black" stroke-width="1" fill="none" />
<polyline points="192.0,288.0,200.0,280.0" stroke="black" stroke-width="1" fill="none" />
<polyline points="192.0,280.0,184.0,288.0" stroke="black" stroke-width="1" fill="none" />
<polyline points="176.0,288.0,192.0,272.0" stroke="black" stroke-width="1" fill="none" />
<polyline points="176.0,262.0,168.0,262.0" stroke="black" stroke-width="1" fill="none" />
<polyline points="160.0,270.0,152.0,270.0" stroke="black" stroke-width="1" fill="none" />
<polyline points="152.0,262.0,160.0,262.0" stroke="black" stroke-width="1" fill="none" />
<polyline points="152.0,278.0,144.0,278.0" stroke="black" stroke-width="1" fill="none" />
<polyline points="128.0,280.0,168.0,240.0" stroke="black" stroke-width="1" fill="none" />
<polyline points="168.0,232.0,120.0,280.0" stroke="black" stroke-width="1" fill="none" />
<polyline points="112.0,280.0,168.0,224.0" stroke="black" stroke-width="1" fill="none" />
<polyline points="160.0,214.0,152.0,214.0" stroke="black" stroke-width="1" fill="none" />
<polyline points="152.0,206.0,160.0,206.0" stroke="black" stroke-width="1" fill="none" />
<polyline points="160.0,200.0,112.0,248.0" stroke="black" stroke-width="1" fill="none" />
<polyline points="112.0,256.0,168.0,200.0" stroke="black" stroke-width="1" fill="none" />
<polyline points="160.0,190.0,152.0,190.0" stroke="black" stroke-width="1" fill="none" />
<polyline points="152.0,182.0,144.0,182.0" stroke="black" stroke-width="1" fill="none" />
<polyline points="160.0,176.0,104.0,232.0" stroke="black" stroke-width="1" fill="none" />
<polyline points="104.0,216.0,160.0,160.0" stroke="black" stroke-width="1" fill="none" />
<polyline points="160.0,152.0,136.0,176.0" stroke="black" stroke-width="1" fill="none" />
<polyline points="128.0,176.0,160.0,144.0" stroke="black" stroke-width="1" fill="none" />
<polyline points="160.0,136.0,128.0,168.0" stroke="black" stroke-width="1" fill="none" />
<polyline points="128.0,160.0,160.0,128.0" stroke="black" stroke-width="1" fill="none" />
<polyline points="160.0,120.0,144.0,136.0" stroke="black" stroke-width="1" fill="none" />
<polyline points="136.0,136.0,160.0,112.0" stroke="black" stroke-width="1" fill="none" />
<polyline points="160.0,104.0,136.0,128.0" stroke="black" stroke-width="1" fill="none" />
<polyline points="136.0,120.0,160.0,96.0" stroke="black" stroke-width="1" fill="none" />
<polyline points="160.0,88.0,136.0,112.0" stroke="black" stroke-width="1" fill="none" />
<polyline points="128.0,114.0,168.0,114.0" stroke="black" stroke-width="1" fill="none" />
<polyline points="144.0,96.0,160.0,80.0" stroke="black" stroke-width="1" fill="none" />
<polyline points="152.0,80.0,168.0,64.0" stroke="black" stroke-width="1" fill="none" />
<polyline points="168.0,56.0,152.0,72.0" stroke="black" stroke-width="1" fill="none" />
<polyline points="144.0,74.0,168.0,74.0" stroke="black" stroke-width="1" fill="none" />
<polyline points="176.0,58.0,152.0,58.0" stroke="black" stroke-width="1" fill="none" />
<polyline points="144.0,66.0,168.0,66.0" stroke="black" stroke-width="1" fill="none" />
<polyline points="160.0,50.0,176.0,50.0" stroke="black" stroke-width="1" fill="none" />
<polyline points="176.0,42.0,160.0,42.0" stroke="black" stroke-width="1" fill="none" />
<polyline points="168.0,34.0,184.0,34.0" stroke="black" stroke-width="1" fill="none" />
<polyline points="168.0,26.0,200.0,26.0" stroke="black" stroke-width="1" fill="none" />
<polyline points="184.0,10.0,392.0,10.0" stroke="black" stroke-width="1" fill="none" />
<polyline points="392.0,16.0,336.0,72.0" stroke="black" stroke-width="1" fill="none" />
<polyline points="336.0,80.0,392.0,24.0" stroke="black" stroke-width="1" fill="none" />
<polyline points="400.0,24.0,336.0,88.0" stroke="black" stroke-width="1" fill="none" />
<polyline points="344.0,88.0,400.0,32.0" stroke="black" stroke-width="1" fill="none" />
<polyline points="408.0,32.0,344.0,96.0" stroke="black" stroke-width="1" fill="none" />
<polyline points="344.0,104.0,408.0,40.0" stroke="black" stroke-width="1" fill="none" />
<polyline points="408.0,48.0,344.0,112.0" stroke="black" stroke-width="1" fill="none" />
<polyline points="344.0,120.0,416.0,48.0" stroke="black" stroke-width="1" fill="none" />
<polyline points="416.0,56.0,344.0,128.0" stroke="black" stroke-width="1" fill="none" />
<polyline points="344.0,136.0,416.0,64.0" stroke="black" stroke-width="1" fill="none" />
<polyline points="424.0,64.0,352.0,136.0" stroke="black" stroke-width="1" fill="none" />
<polyline points="352.0,144.0,424.0,72.0" stroke="black" stroke-width="1" fill="none" />
<polyline points="424.0,80.0,352.0,152.0" stroke="black" stroke-width="1" fill="none" />
<polyline points="352.0,160.0,424.0,88.0" stroke="black" stroke-width="1" fill="none" />
<polyline points="432.0,88.0,344.0,176.0" stroke="black" stroke-width="1" fill="none" />
<polyline points="344.0,184.0,432.0,96.0" stroke="black" stroke-width="1" fill="none" />
<polyline points="432.0,104.0,344.0,192.0" stroke="black" stroke-width="1" fill="none" />
<polyline points="352.0,190.0,360.0,190.0" stroke="black" stroke-width="1" fill="none" />
<polyline points="352.0,182.0,440.0,182.0,440.0,184.0,336.0,288.0" stroke="black" stroke-width="1" fill="none" />
<polyline points="344.0,288.0,440.0,192.0" stroke="black" stroke-width="1" fill="none" />
<polyline points="440.0,200.0,352.0,288.0,352.0,286.0,368.0,286.0" stroke="black" stroke-width="1" fill="none" />
<polyline points="376.0,288.0,456.0,208.0" stroke="black" stroke-width="1" fill="none" />
<polyline points="456.0,200.0,368.0,288.0" stroke="black" stroke-width="1" fill="none" />
<polyline points="384.0,288.0,464.0,208.0" stroke="black" stroke-width="1" fill="none" />
<polyline points="472.0,208.0,392.0,288.0" stroke="black" stroke-width="1" fill="none" />
<polyline points="400.0,288.0,472.0,216.0" stroke="black" stroke-width="1" fill="none" />
<polyline points="472.0,224.0,464.0,232.0" stroke="black" stroke-width="1" fill="none" />
<polyline points="472.0,232.0,480.0,224.0" stroke="black" stroke-width="1" fill="none" />
<polyline points="456.0,240.0,408.0,288.0" stroke="black" stroke-width="1" fill="none" />
<polyline points="416.0,288.0,456.0,248.0" stroke="black" stroke-width="1" fill="none" />
<polyline points="456.0,256.0,424.0,288.0" stroke="black" stroke-width="1" fill="none" />
<polyline points="448.0,288.0,456.0,280.0" stroke="black" stroke-width="1" fill="none" />
<polyline points="456.0,272.0,440.0,288.0" stroke="black" stroke-width="1" fill="none" />
<polyline points="432.0,288.0,456.0,264.0" stroke="black" stroke-width="1" fill="none" />
<polyline points="432.0,230.0,416.0,230.0" stroke="black" stroke-width="1" fill="none" />
<polyline points="416.0,222.0,440.0,222.0" stroke="black" stroke-width="1" fill="none" />
<polyline points="448.0,200.0,360.0,288.0" stroke="black" stroke-width="1" fill="none" />
<polyline points="360.0,270.0,352.0,270.0" stroke="black" stroke-width="1" fill="none" />
<polyline points="352.0,262.0,360.0,262.0" stroke="black" stroke-width="1" fill="none" />
<polyline points="368.0,262.0,376.0,262.0" stroke="black" stroke-width="1" fill="none" />
<polyline points="384.0,270.0,440.0,270.0" stroke="black" stroke-width="1" fill="none" />
<polyline points="424.0,254.0,408.0,254.0" stroke="black" stroke-width="1" fill="none" />
<polyline points="408.0,246.0,432.0,246.0" stroke="black" stroke-width="1" fill="none" />
<polyline points="432.0,238.0,408.0,238.0" stroke="black" stroke-width="1" fill="none" />
<polyline points="400.0,246.0,392.0,246.0" stroke="black" stroke-width="1" fill="none" />
<polyline points="392.0,254.0,400.0,254.0" stroke="black" stroke-width="1" fill="none" />
<polyline points="392.0,262.0,432.0,262.0" stroke="black" stroke-width="1" fill="none" />
<polyline points="432.0,286.0,400.0,286.0" stroke="black" stroke-width="1" fill="none" />
<polyline points="392.0,278.0,424.0,278.0" stroke="black" stroke-width="1" fill="none" />
<polyline points="392.0,286.0,384.0,286.0" stroke="black" stroke-width="1" fill="none" />
<polyline points="376.0,254.0,352.0,254.0" stroke="black" stroke-width="1" fill="none" />
<polyline points="352.0,246.0,384.0,246.0" stroke="black" stroke-width="1" fill="none" />
<polyline points="392.0,230.0,400.0,230.0" stroke="black" stroke-width="1" fill="none" />
<polyline points="392.0,214.0,408.0,214.0" stroke="black" stroke-width="1" fill="none" />
<polyline points="416.0,214.0,440.0,214.0" stroke="black" stroke-width="1" fill="none" />
<polyline points="440.0,176.0,328.0,288.0" stroke="black" stroke-width="1" fill="none" />
<polyline points="320.0,288.0,440.0,168.0" stroke="black" stroke-width="1" fill="none" />
<polyline points="440.0,160.0,328.0,272.0" stroke="black" stroke-width="1" fill="none" />
<polyline points="328.0,264.0,440.0,152.0" stroke="black" stroke-width="1" fill="none" />
<polyline points="440.0,144.0,336.0,248.0" stroke="black" stroke-width="1" fill="none" />
<polyline points="336.0,240.0,440.0,136.0" stroke="black" stroke-width="1" fill="none" />
<polyline points="440.0,128.0,336.0,232.0" stroke="black" stroke-width="1" fill="none" />
<polyline points="336.0,224.0,432.0,128.0" stroke="black" stroke-width="1" fill="none" />
<polyline points="432.0,120.0,336.0,216.0" stroke="black" stroke-width="1" fill="none" />
<polyline points="336.0,208.0,432.0,112.0" stroke="black" stroke-width="1" fill="none" />
<polyline points="440.0,174.0,384.0,174.0" stroke="black" stroke-width="1" fill="none" />
<polyline points="384.0,166.0,432.0,166.0" stroke="black" stroke-width="1" fill="none" />
<polyline points="440.0,198.0,400.0,198.0" stroke="black" stroke-width="1" fill="none" />
<polyline points="392.0,190.0,440.0,190.0" stroke="black" stroke-width="1" fill="none" />
<polyline points="440.0,206.0,392.0,206.0" stroke="black" stroke-width="1" fill="none" />
<polyline points="376.0,174.0,360.0,174.0" stroke="black" stroke-width="1" fill="none" />
<polyline points="360.0,166.0,376.0,166.0" stroke="black" stroke-width="1" fill="none" />
<polyline points="376.0,150.0,432.0,150.0" stroke="black" stroke-width="1" fill="none" />
<polyline points="432.0,142.0,376.0,142.0" stroke="black" stroke-width="1" fill="none" />
<polyline points="368.0,150.0,360.0,150.0" stroke="black" stroke-width="1" fill="none" />
<polyline points="360.0,142.0,368.0,142.0" stroke="black" stroke-width="1" fill="none" />
<polyline points="360.0,134.0,432.0,134.0" stroke="black" stroke-width="1" fill="none" />
<polyline points="432.0,158.0,360.0,158.0" stroke="black" stroke-width="1" fill="none" />
<polyline points="344.0,154.0,512.0,154.0" stroke="black" stroke-width="1" fill="none" />
<polyline points="432.0,118.0,360.0,118.0" stroke="black" stroke-width="1" fill="none" />
<polyline points="360.0,110.0,432.0,110.0" stroke="black" stroke-width="1" fill="none" />
<polyline points="416.0,70.0,360.0,70.0" stroke="black" stroke-width="1" fill="none" />
<polyline points="352.0,78.0,424.0,78.0" stroke="black" stroke-width="1" fill="none" />
<polyline points="432.0,126.0,352.0,126.0" stroke="black" stroke-width="1" fill="none" />
<polyline points="336.0,114.0,472.0,114.0" stroke="black" stroke-width="1" fill="none" />
<polyline points="424.0,102.0,352.0,102.0" stroke="black" stroke-width="1" fill="none" />
<polyline points="352.0,94.0,424.0,94.0" stroke="black" stroke-width="1" fill="none" />
<polyline points="424.0,86.0,352.0,86.0" stroke="black" stroke-width="1" fill="none" />
<polyline points="336.0,98.0,456.0,98.0" stroke="black" stroke-width="1" fill="none" />
<polyline points="384.0,16.0,328.0,72.0" stroke="black" stroke-width="1" fill="none" />
<polyline points="328.0,64.0,384.0,8.0" stroke="black" stroke-width="1" fill="none" />
<polyline points="376.0,8.0,320.0,64.0" stroke="black" stroke-width="1" fill="none" />
<polyline points="320.0,56.0,376.0,0.0" stroke="black" stroke-width="1" fill="none" />
<polyline points="368.0,0.0,320.0,48.0" stroke="black" stroke-width="1" fill="none" />
<polyline points="312.0,48.0,360.0,0.0" stroke="black" stroke-width="1" fill="none" />
<polyline points="360.0,6.0,376.0,6.0" stroke="black" stroke-width="1" fill="none" />
<polyline points="352.0,0.0,312.0,40.0" stroke="black" stroke-width="1" fill="none" />
<polyline points="304.0,40.0,344.0,0.0" stroke="black" stroke-width="1" fill="none" />
<polyline points="336.0,0.0,304.0,32.0" stroke="black" stroke-width="1" fill="none" />
<polyline points="296.0,32.0,328.0,0.0" stroke="black" stroke-width="1" fill="none" />
<polyline points="320.0,0.0,296.0,24.0" stroke="black" stroke-width="1" fill="none" />
<polyline points="288.0,24.0,312.0,0.0" stroke="black" stroke-width="1" fill="none" />
<polyline points="304.0,0.0,280.0,24.0,280.0,26.0,400.0,26.0" stroke="black" stroke-width="1" fill="none" />
<polyline points="416.0,62.0,344.0,62.0" stroke="black" stroke-width="1" fill="none" />
<polyline points="344.0,54.0,408.0,54.0" stroke="black" stroke-width="1" fill="none" />
<polyline points="408.0,46.0,336.0,46.0" stroke="black" stroke-width="1" fill="none" />
<polyline points="336.0,38.0,400.0,38.0" stroke="black" stroke-width="1" fill="none" />
<polyline points="432.0,90.0,328.0,90.0" stroke="black" stroke-width="1" fill="none" />
<polyline points="312.0,82.0,432.0,82.0" stroke="black" stroke-width="1" fill="none" />
<polyline points="480.0,106.0,336.0,106.0" stroke="black" stroke-width="1" fill="none" />
<polyline points="320.0,122.0,472.0,122.0" stroke="black" stroke-width="1" fill="none" />
<polyline points="368.0,198.0,352.0,198.0" stroke="black" stroke-width="1" fill="none" />
<polyline points="352.0,206.0,360.0,206.0" stroke="black" stroke-width="1" fill="none" />
<polyline points="352.0,214.0,368.0,214.0" stroke="black" stroke-width="1" fill="none" />
<polyline points="376.0,222.0,352.0,222.0" stroke="black" stroke-width="1" fill="none" />
<polyline points="352.0,230.0,376.0,230.0" stroke="black" stroke-width="1" fill="none" />
<polyline points="384.0,238.0,352.0,238.0" stroke="black" stroke-width="1" fill="none" />
<polyline points="312.0,234.0,512.0,234.0" stroke="black" stroke-width="1" fill="none" />
<polyline points="368.0,278.0,344.0,278.0" stroke="black" stroke-width="1" fill="none" />
<polyline points="312.0,250.0,512.0,250.0" stroke="black" stroke-width="1" fill="none" />
<polyline points="512.0,178.0,336.0,178.0" stroke="black" stroke-width="1" fill="none" />
<polyline points="336.0,170.0,512.0,170.0" stroke="black" stroke-width="1" fill="none" />
<polyline points="512.0,162.0,336.0,162.0" stroke="black" stroke-width="1" fill="none" />
<polyline points="336.0,146.0,512.0,146.0" stroke="black" stroke-width="1" fill="none" />
<polyline points="472.0,194.0,328.0,194.0" stroke="black" stroke-width="1" fill="none" />
<polyline points="328.0,186.0,512.0,186.0" stroke="black" stroke-width="1" fill="none" />
<polyline points="512.0,210.0,320.0,210.0" stroke="black" stroke-width="1" fill="none" />
<polyline points="320.0,202.0,512.0,202.0" stroke="black" stroke-width="1" fill="none" />
<polyline points="512.0,242.0,312.0,242.0" stroke="black" stroke-width="1" fill="none" />
<polyline points="312.0,226.0,512.0,226.0" stroke="black" stroke-width="1" fill="none" />
<polyline points="512.0,218.0,312.0,218.0" stroke="black" stroke-width="1" fill="none" />
<polyline points="304.0,258.0,512.0,258.0" stroke="black" stroke-width="1" fill="none" />
<polyline points="424.0,74.0,312.0,74.0" stroke="black" stroke-width="1" fill="none" />
<polyline points="304.0,66.0,424.0,66.0" stroke="black" stroke-width="1" fill="none" />
<polyline points="392.0,30.0,328.0,30.0" stroke="black" stroke-width="1" fill="none" />
<polyline points="328.0,22.0,392.0,22.0" stroke="black" stroke-width="1" fill="none" />
<polyline points="384.0,14.0,320.0,14.0" stroke="black" stroke-width="1" fill="none" />
<polyline points="320.0,6.0,344.0,6.0" stroke="black" stroke-width="1" fill="none" />
<polyline points="296.0,0.0,288.0,8.0" stroke="black" stroke-width="1" fill="none" />
<polyline points="288.0,34.0,408.0,34.0" stroke="black" stroke-width="1" fill="none" />
<polyline points="424.0,58.0,304.0,58.0" stroke="black" stroke-width="1" fill="none" />
<polyline points="296.0,50.0,416.0,50.0" stroke="black" stroke-width="1" fill="none" />
<polyline points="416.0,42.0,296.0,42.0" stroke="black" stroke-width="1" fill="none" />
<polyline points="240.0,18.0,400.0,18.0" stroke="black" stroke-width="1" fill="none" />
<polyline points="320.0,136.0,312.0,144.0" stroke="black" stroke-width="1" fill="none" />
<polyline points="312.0,136.0,304.0,144.0" stroke="black" stroke-width="1" fill="none" />
<polyline points="288.0,130.0,504.0,130.0" stroke="black" stroke-width="1" fill="none" />
<polyline points="512.0,266.0,296.0,266.0" stroke="black" stroke-width="1" fill="none" />
<polyline points="288.0,274.0,512.0,274.0" stroke="black" stroke-width="1" fill="none" />
<polyline points="512.0,282.0,280.0,282.0" stroke="black" stroke-width="1" fill="none" />
<polyline points="272.0,242.0,248.0,242.0" stroke="black" stroke-width="1" fill="none" />
<polyline points="240.0,250.0,264.0,250.0" stroke="black" stroke-width="1" fill="none" />
<polyline points="248.0,234.0,232.0,234.0" stroke="black" stroke-width="1" fill="none" />
<polyline points="224.0,226.0,256.0,226.0" stroke="black" stroke-width="1" fill="none" />
<polyline points="256.0,218.0,232.0,218.0" stroke="black" stroke-width="1" fill="none" />
<polyline points="240.0,154.0,248.0,154.0" stroke="black" stroke-width="1" fill="none" />
<polyline points="240.0,146.0,256.0,146.0" stroke="black" stroke-width="1" fill="none" />
<polyline points="264.0,138.0,240.0,138.0" stroke="black" stroke-width="1" fill="none" />
<polyline points="248.0,130.0,272.0,130.0" stroke="black" stroke-width="1" fill="none" />
<polyline points="280.0,138.0,504.0,138.0" stroke="black" stroke-width="1" fill="none" />
<polyline points="320.0,146.0,280.0,146.0" stroke="black" stroke-width="1" fill="none" />
<polyline points="216.0,146.0,192.0,146.0" stroke="black" stroke-width="1" fill="none" />
<polyline points="192.0,138.0,208.0,138.0" stroke="black" stroke-width="1" fill="none" />
<polyline points="136.0,144.0,128.0,152.0" stroke="black" stroke-width="1" fill="none" />
<polyline points="120.0,154.0,168.0,154.0" stroke="black" stroke-width="1" fill="none" />
<polyline points="168.0,122.0,128.0,122.0" stroke="black" stroke-width="1" fill="none" />
<polyline points="120.0,130.0,168.0,130.0" stroke="black" stroke-width="1" fill="none" />
<polyline points="168.0,98.0,136.0,98.0" stroke="black" stroke-width="1" fill="none" />
<polyline points="136.0,90.0,168.0,90.0" stroke="black" stroke-width="1" fill="none" />
<polyline points="168.0,82.0,144.0,82.0" stroke="black" stroke-width="1" fill="none" />
<polyline points="128.0,106.0,168.0,106.0" stroke="black" stroke-width="1" fill="none" />
<polyline points="160.0,162.0,120.0,162.0" stroke="black" stroke-width="1" fill="none" />
<polyline points="120.0,146.0,184.0,146.0" stroke="black" stroke-width="1" fill="none" />
<polyline points="184.0,138.0,120.0,138.0" stroke="black" stroke-width="1" fill="none" />
<polyline points="104.0,162.0,80.0,162.0" stroke="black" stroke-width="1" fill="none" />
<polyline points="112.0,200.0,104.0,208.0" stroke="black" stroke-width="1" fill="none" />
<polyline points="136.0,230.0,144.0,230.0" stroke="black" stroke-width="1" fill="none" />
<polyline points="144.0,222.0,152.0,222.0" stroke="black" stroke-width="1" fill="none" />
<polyline points="208.0,282.0,0.0,282.0" stroke="black" stroke-width="1" fill="none" />
<polyline points="0.0,274.0,200.0,274.0" stroke="black" stroke-width="1" fill="none" />
<polyline points="192.0,266.0,0.0,266.0" stroke="black" stroke-width="1" fill="none" />
<polyline points="0.0,258.0,184.0,258.0" stroke="black" stroke-width="1" fill="none" />
<polyline points="184.0,250.0,0.0,250.0" stroke="black" stroke-width="1" fill="none" />
<polyline points="0.0,242.0,176.0,242.0" stroke="black" stroke-width="1" fill="none" />
<polyline points="176.0,234.0,0.0,234.0" stroke="black" stroke-width="1" fill="none" />
<polyline points="0.0,226.0,176.0,226.0" stroke="black" stroke-width="1" fill="none" />
<polyline points="176.0,218.0,0.0,218.0" stroke="black" stroke-width="1" fill="none" />
<polyline points="0.0,210.0,168.0,210.0" stroke="black" stroke-width="1" fill="none" />
<polyline points="168.0,202.0,0.0,202.0" stroke="black" stroke-width="1" fill="none" />
<polyline points="0.0,194.0,168.0,194.0" stroke="black" stroke-width="1" fill="none" />
<polyline points="168.0,186.0,0.0,186.0" stroke="black" stroke-width="1" fill="none" />
<polyline points="0.0,178.0,160.0,178.0" stroke="black" stroke-width="1" fill="none" />
<polyline points="64.0,170.0,0.0,170.0" stroke="black" stroke-width="1" fill="none" />
<polyline points="0.0,162.0,32.0,162.0" stroke="black" stroke-width="1" fill="none" />
<polyline points="32.0,154.0,0.0,154.0" stroke="black" stroke-width="1" fill="none" />
<polyline points="0.0,146.0,24.0,146.0" stroke="black" stroke-width="1" fill="none" />
<polyline points="176.0,18.0,224.0,18.0" stroke="black" stroke-width="1" fill="none" />
<polyline points="192.0,2.0,384.0,2.0" stroke="black" stroke-width="1" fill="none" />
</svg>