<svg xmlns="http://www.w3.org/2000/svg" height="577px" width="512px" version="1.1"><polyline points="192.5,41.0,185.5,45.0,180.0,49.0,172.5,53.0,167.5,57.0,162.5,61.0,158.5,65.0,155.0,69.0,151.0,73.0,148.0,77.0,145.0,81.0,141.5,85.0,140.0,89.0,137.5,93.0,134.0,97.0,133.0,101.0,131.0,105.0,129.5,109.0,127.5,113.0,125.5,117.0,123.5,121.0,121.5,125.0,120.0,129.0,118.0,133.0,115.5,137.0,114.0,141.0,112.0,145.0,111.5,149.0,111.0,153.0,109.0,157.0,108.5,161.0,107.0,165.0,106.5,169.0,106.0,173.0,104.5,177.0,103.5,181.0,101.5,185.0,100.0,189.0,99.0,193.0,98.5,197.0,97.0,201.0,96.5,205.0,96.5,209.0,94.5,212.5,94.5,216.5,94.0,220.5,92.5,224.5,92.0,228.5,92.0,232.5,90.5,236.5,89.5,240.5,89.0,244.5,89.5,248.5,89.5,252.5,89.5,256.5,89.5,260.5,89.5,264.5,89.5,268.5,89.5,272.5,89.5,276.5,89.5,280.5,89.5,284.5,89.5,288.5,89.0,292.5,89.0,296.5,89.0,300.5,89.0,304.5,89.0,308.5,87.0,312.5,87.0,316.5,88.5,320.5,89.5,324.5,91.5,328.5,92.0,332.5,94.0,336.5,95.5,340.5,97.0,344.5,99.0,348.5,100.0,352.5,101.5,356.5,102.0,360.5,104.0,364.5,104.0,368.5,104.5,372.5,106.0,376.5,106.5,380.5,104.5,384.5,104.0,388.5,103.5,392.5,102.0,396.5,101.5,400.5,101.5,404.5,102.0,408.5,103.5,412.5,104.0,416.5,102.0,420.5,101.0,424.5,99.0,428.5,97.5,432.5,95.5,436.5,93.5,440.5,91.5,444.5,88.0,448.5,85.0,452.5,82.0,456.5,79.5,460.5,77.0,464.5,74.5,468.5,72.0,472.5,70.0,476.5,67.5,480.5,66.0,484.5,64.0,488.5,61.0,492.5,58.5,496.5,55.0,500.5,53.0,504.5,50.0,508.5,47.5,512.5,44.5,516.5,42.0,520.5,39.0,524.5,36.5,528.5,34.0,532.5,31.5,536.5,29.0,540.5,26.0,544.5,23.0,548.5,20.0,552.5,17.0,556.5,14.0,560.5,11.5,564.5,9.5,568.5,7.0,572.5,5.0,576.5,6.0,574.5,10.0,567.0,14.0,560.5,18.0,555.0,22.0,550.0,26.0,544.0,30.0,539.0,34.0,532.5,38.0,526.5,42.0,520.5,46.0,514.0,50.0,508.5,54.0,501.5,58.0,497.0,62.0,491.5,66.0,484.5,70.0,475.5,74.0,469.0,78.0,463.0,82.0,456.5,86.0,451.0,90.0,446.0,94.0,439.5,98.0,431.5,102.0,420.5" stroke="black" stroke-width="1" fill="none" />
<polyline points="150.0,428.5,154.0,423.0,158.0,416.5,162.0,412.0,166.0,408.5,170.0,406.0,174.0,404.0,178.0,401.5,182.0,398.5,186.0,396.0,190.0,393.0,194.0,390.5,198.0,388.0,202.0,385.5" stroke="black" stroke-width="1" fill="none" />
<polyline points="218.0,355.0,222.0,356.5,226.0,358.5,230.0,359.5,234.0,361.0,238.0,362.5,242.0,363.5,246.0,365.0,250.0,366.0,254.0,366.0,258.0,366.0,262.0,368.0,266.0,368.5,270.0,371.0,274.0,373.0,278.0,371.0,282.0,370.5,286.0,368.5,290.0,368.5,294.0,368.0,298.0,373.0" stroke="black" stroke-width="1" fill="none" />
<polyline points="294.0,368.5,297.0,372.5,298.5,376.5,300.0,380.5,300.5,384.5,302.5,388.5,303.0,392.5,305.0,396.5,305.5,400.5,305.5,404.5,306.0,408.5,307.5,412.5,307.5,416.5,307.5,420.5,308.0,424.5,308.0,428.5,308.0,432.5,307.5,436.5,305.5,440.5,305.5,444.5,305.5,448.5,303.5,452.5,303.0,456.5,301.5,460.5,300.5,464.5,298.5,468.5,298.5,472.5,298.0,476.5,298.0,480.5,298.5,484.5,301.0,488.5,298.5,483.5,302.5,490.0,306.5,492.0,310.5,492.5,314.5,492.0,318.5,490.5,322.5,489.5,326.5,487.0,330.5,484.5,334.5,482.5,338.5,480.0,342.5,478.0,346.5,475.5,350.5,472.5,354.5,470.5,358.5,468.0,362.5,466.0,366.5,464.5,370.5,462.5,374.5,460.5,378.5,458.5,382.5,457.5,386.5,455.5,390.5,453.5,394.5,452.5,398.5,450.5,402.5,448.0,406.5,445.0,410.5,442.5,414.5,439.5,418.5,437.0,422.5,434.0,426.5,431.0,430.5,428.5,434.5,426.0" stroke="black" stroke-width="1" fill="none" />
<polyline points="436.5,419.5,432.5,414.0,428.5,407.5,424.5,399.0,420.5,391.0,416.5,384.0,412.5,377.0,408.5,370.5,404.5,361.5,400.5,353.0" stroke="black" stroke-width="1" fill="none" />
<polyline points="449.0,435.5,443.5,439.5,440.5,443.5,437.5,447.5,436.5,451.5,436.5,455.5,436.5,459.5,436.5,463.5,436.5,467.5,436.5,471.5,434.0,475.5,430.5,479.5,428.0,483.5,423.5,487.5,416.5,491.5" stroke="black" stroke-width="1" fill="none" />
<polyline points="403.5,497.0,396.0,501.0,387.5,505.0,377.5,509.0" stroke="black" stroke-width="1" fill="none" />
<polyline points="370.0,511.5,362.5,515.5,353.5,519.5,346.5,523.5,337.5,527.5,329.5,531.5,322.5,535.5,314.5,539.5,303.0,543.5" stroke="black" stroke-width="1" fill="none" />
<polyline points="298.5,467.5,302.5,458.5" stroke="black" stroke-width="1" fill="none" />
<polyline points="320.0,489.5,328.5,485.5,336.5,481.5,343.0,477.5,349.5,473.5,356.0,469.5,363.0,465.5,372.0,461.5,382.0,457.5,390.0,453.5" stroke="black" stroke-width="1" fill="none" />
<polyline points="437.0,448.0,441.0,442.5,445.0,438.5,449.0,435.5,453.0,434.0,457.0,439.0,461.0,444.0,465.0,448.0,469.0,452.5,473.0,456.5,477.0,461.5,481.0,465.5,485.0,469.0,489.0,472.5,493.0,475.5,497.0,479.5,501.0,484.5,505.0,488.0,509.0,490.5" stroke="black" stroke-width="1" fill="none" />
<polyline points="434.0,475.0,430.0,480.0,426.0,485.5,422.0,488.5,418.0,490.5,414.0,492.5,410.0,494.5,406.0,496.5,402.0,498.0,398.0,499.5,394.0,502.0,390.0,504.0,386.0,506.5,382.0,507.5,378.0,509.0,374.0,511.0,370.0,511.5,366.0,514.0,362.0,516.0,358.0,517.5,354.0,519.0,350.0,521.5,346.0,524.0,342.0,526.0,338.0,527.0,334.0,529.0,330.0,531.0,326.0,534.0,322.0,536.0,318.0,538.0,314.0,540.0,310.0,541.0,306.0,543.0,302.0,544.5,298.0,545.0,294.0,545.5,290.0,547.0,286.0,547.5,282.0,547.5,278.0,547.5,274.0,547.5,270.0,547.5,266.0,547.5,262.0,547.5,258.0,547.5,254.0,547.5,250.0,547.5,246.0,547.5,242.0,547.5,238.0,547.5,234.0,547.5,230.0,547.5,226.0,547.0,222.0,545.5,218.0,545.5,214.0,545.5,210.0,545.0,206.0,545.0,202.0,543.0,198.0,543.0,194.0,541.5,190.0,540.0,186.0,537.5,182.0,536.0,178.0,535.0,174.0,533.0,170.0,532.0,166.0,531.0,162.0,530.5,158.0,528.5,154.0,528.0,150.0,526.0,146.0,524.5,142.0,523.0,138.0,521.5,134.0,519.5,130.0,518.0,126.0,515.0,122.0,512.5,118.0,509.0,114.0,502.0" stroke="black" stroke-width="1" fill="none" />
<polyline points="114.0,480.5,118.0,474.0,122.0,470.5,126.0,468.0,130.0,465.5,134.0,464.5,138.0,463.0,142.0,461.5,142.0,462.0,143.0,458.0,143.0,454.0,144.5,450.0,145.5,446.0,147.0,442.0,147.5,438.0,148.0,434.0,150.0,430.0,151.5,426.0,154.5,422.0,157.5,418.0,160.5,414.0,164.0,410.0,170.0,406.0,176.5,402.0,183.0,398.0,189.0,394.0,195.0,390.0,201.0,386.0,206.0,382.0,206.0,378.0,206.0,374.0,205.0,370.0,203.5,366.0,202.5,362.0,201.0,358.0,201.0,354.0,201.5,350.0,204.5,346.0,210.0,342.0,210.5,338.0,208.0,337.0,204.0,337.0,200.0,337.0,196.0,337.0,192.0,336.5,188.0,333.5,184.0,330.5,180.0,327.0,176.0,322.5,172.0,317.5,168.0,312.5,164.0,306.0,160.0,301.5,156.0,297.5,152.0,291.5,148.0,285.0" stroke="black" stroke-width="1" fill="none" />
<polyline points="167.5,279.0,171.5,278.0,175.5,278.5,179.5,279.0,183.5,280.5,187.5,281.0" stroke="black" stroke-width="1" fill="none" />
<polyline points="194.0,281.0,194.0,285.0,196.0,286.0,200.0,286.0,204.0,286.0,208.0,286.0,212.0,286.0,216.0,286.0,220.0,284.0,224.0,283.5,227.0,281.5,226.5,282.0,230.0,278.0,227.0,274.0,230.0,275.5,226.0,273.5,222.5,274.5,218.5,276.5,214.5,278.5,210.5,279.0,206.5,280.5,202.5,281.0,198.5,281.0,194.5,281.0,187.5,284.5,183.5,285.5,180.0,284.0,176.0,283.5,172.0,283.0,168.0,280.5,169.5,279.5,172.0,283.5" stroke="black" stroke-width="1" fill="none" />
<polyline points="191.0,296.0,195.0,295.5,199.0,295.0,203.0,295.0,207.0,295.5,211.0,295.5,210.0,299.0,207.5,300.5,211.5,297.5" stroke="black" stroke-width="1" fill="none" />
<polyline points="203.5,298.5,199.5,298.5,195.5,300.0" stroke="black" stroke-width="1" fill="none" />
<polyline points="215.0,278.0,223.0,274.0" stroke="black" stroke-width="1" fill="none" />
<polyline points="217.5,266.5,213.5,269.0,209.5,271.0,205.5,271.5,201.5,273.0,197.5,273.0,193.5,270.5,189.5,267.0,185.5,263.5,181.5,260.0,177.5,256.5,177.0,255.0,181.0,255.0,185.0,259.0,189.0,259.5,184.5,259.0,180.5,255.0,177.5,254.5,179.0,258.5,184.0,262.5,189.0,266.5,192.5,270.5" stroke="black" stroke-width="1" fill="none" />
<polyline points="200.5,252.0,194.5,256.0,191.0,260.0,190.5,260.5,194.5,256.0,198.5,253.5,202.5,252.0,206.5,251.5,210.5,251.5,214.5,252.0,218.5,253.0,217.5,252.5,220.5,256.5,220.5,260.5,219.0,264.5,215.5,268.5" stroke="black" stroke-width="1" fill="none" />
<polyline points="281.5,252.5,285.5,246.5,289.5,233.5,293.5,223.5,297.5,215.5" stroke="black" stroke-width="1" fill="none" />
<polyline points="295.5,189.5,291.5,186.0,287.5,184.5,283.5,186.0,279.5,187.0,275.5,191.0,271.5,193.5,267.5,195.5,263.5,196.5,259.5,198.5,255.5,198.5,251.5,199.0,247.5,199.0,243.5,198.5,239.5,197.5,235.5,195.0,235.0,195.0,235.0,191.0,229.5,191.5,225.5,191.0" stroke="black" stroke-width="1" fill="none" />
<polyline points="230.5,186.5,226.0,190.5,228.0,188.0,232.0,186.5,236.0,184.5,240.0,184.0,244.0,184.5,248.0,184.5,251.0,186.5" stroke="black" stroke-width="1" fill="none" />
<polyline points="269.5,194.5,276.0,190.5,281.0,186.5" stroke="black" stroke-width="1" fill="none" />
<polyline points="288.5,184.0,293.5,188.0,296.0,192.0,298.0,196.0,298.5,200.0,298.5,204.0,298.5,208.0,298.0,212.0,297.0,216.0,295.5,220.0,293.5,224.0,292.0,228.0,290.5,232.0,288.5,236.0,287.5,240.0,286.0,244.0,284.5,248.0,282.0,252.0,281.0,256.0,281.0,260.0,281.5,264.0,281.5,268.0,281.5,272.0,281.5,276.0,281.0,280.0,279.0,284.0,277.0,288.0,274.0,292.0,272.0,296.0,268.0,300.0,264.0,304.0,258.5,308.0,252.0,312.0,247.0,316.0,242.5,320.0,237.5,324.0,233.0,328.0,226.5,332.0,221.0,336.0,218.5,340.0,218.0,344.0,218.0,348.0,218.5,352.0,219.5,356.0,230.5,360.0" stroke="black" stroke-width="1" fill="none" />
<polyline points="218.5,340.0,222.5,334.5,226.5,332.0,230.5,330.0,234.5,326.5,238.5,323.0,242.5,320.0,246.5,316.5,250.5,313.0,254.5,310.5,258.5,308.0,262.5,305.5,266.5,301.5,270.5,297.5,274.5,291.5,278.5,285.0" stroke="black" stroke-width="1" fill="none" />
<polyline points="265.0,368.5,271.5,372.5" stroke="black" stroke-width="1" fill="none" />
<polyline points="209.0,343.5,205.0,345.5,201.0,351.0" stroke="black" stroke-width="1" fill="none" />
<polyline points="96.5,341.0,92.5,333.5" stroke="black" stroke-width="1" fill="none" />
<polyline points="140.5,253.5,136.5,247.0" stroke="black" stroke-width="1" fill="none" />
<polyline points="133.0,205.0,137.0,198.5,141.0,198.5,145.0,199.0" stroke="black" stroke-width="1" fill="none" />
<polyline points="138.0,198.0,134.5,202.0,133.5,206.0,133.5,210.0,133.5,214.0,133.5,218.0,133.5,222.0,133.5,226.0,133.5,230.0,133.5,234.0,135.5,238.0,135.5,242.0,136.0,246.0,138.0,250.0,140.5,254.0,141.0,258.0,142.5,262.0,143.0,266.0,144.0,270.0,145.5,274.0,145.5,278.0,146.0,282.0,148.0,286.0,150.0,290.0,153.5,294.0,156.5,298.0,160.0,302.0,163.5,306.0,166.5,310.0,169.0,314.0,172.0,318.0,175.0,322.0,179.0,326.0,183.0,330.0,188.0,334.0" stroke="black" stroke-width="1" fill="none" />
<polyline points="164.5,207.5,168.5,208.5,172.5,205.0,176.5,200.5" stroke="black" stroke-width="1" fill="none" />
<polyline points="171.0,199.0,169.5,203.0,165.0,207.0,166.0,205.5,170.0,202.5" stroke="black" stroke-width="1" fill="none" />
<polyline points="159.5,197.5,157.0,193.5,155.5,192.0,150.5,196.0,145.5,200.5,149.5,197.5,153.5,194.0,157.0,192.5,160.5,198.0,164.5,200.5,168.5,200.0" stroke="black" stroke-width="1" fill="none" />
<polyline points="175.5,189.5,171.5,187.5,167.5,186.5,163.5,186.5,159.5,188.0,155.5,189.0,151.5,191.0,154.0,189.0" stroke="black" stroke-width="1" fill="none" />
<polyline points="147.0,189.0,151.0,186.5,155.0,184.0,159.0,183.5,163.0,182.0,167.0,182.0,171.0,184.0,175.0,185.0,179.0,188.0,182.5,187.0,178.5,182.0,174.5,180.5,170.5,179.0,166.5,178.5,162.5,178.5,158.5,179.0,154.5,179.5,150.5,180.5,146.5,182.0,142.5,182.0,138.5,178.0" stroke="black" stroke-width="1" fill="none" />
<polyline points="161.0,183.5,165.0,183.5" stroke="black" stroke-width="1" fill="none" />
<polyline points="169.5,187.0,177.5,191.5" stroke="black" stroke-width="1" fill="none" />
<polyline points="173.5,184.5,179.0,188.5,175.5,190.0,179.5,194.0,178.0,198.0,175.0,202.0,171.5,206.0" stroke="black" stroke-width="1" fill="none" />
<polyline points="183.5,190.5,180.0,192.5,182.0,187.5,179.5,183.5,172.0,179.5" stroke="black" stroke-width="1" fill="none" />
<polyline points="203.5,188.0,207.5,181.0,211.5,177.5,215.5,175.0,219.5,172.0,223.5,173.0,227.5,176.5,231.5,176.5,235.5,176.5,239.5,174.5,243.0,176.0,246.0,176.0,250.0,176.5,254.0,176.5,258.0,176.5,262.0,176.5,266.0,176.5,270.0,174.5,274.0,174.0,278.0,172.0,282.0,171.0,286.0,166.5" stroke="black" stroke-width="1" fill="none" />
<polyline points="288.5,146.5,284.5,141.0,280.5,139.5,276.5,137.5,272.5,135.0,268.5,129.0,264.5,122.5" stroke="black" stroke-width="1" fill="none" />
<polyline points="261.0,111.5,257.0,105.0,253.0,100.0,249.0,96.0,245.0,93.0,241.0,91.0,237.0,89.5,233.0,88.0,229.0,87.0,225.0,87.0,221.0,87.0,217.0,87.0,213.0,86.5,209.0,86.5,205.0,85.0,201.0,84.0,199.5,83.0,198.5,79.0,199.0,75.0,199.0,71.0,201.0,67.0,200.0,63.0,199.0,71.0,194.0,69.0,198.0,63.0,199.0,62.0,196.0,66.0,194.0,70.0,193.5,74.0,191.5,78.0,189.0,82.0,184.0,84.5,188.0,83.0,183.0,85.0,179.0,87.0,175.0,87.5,171.0,89.5,167.0,90.5,163.0,92.0,159.0,94.5,155.0,96.0,151.0,100.0,147.0,107.5,143.0,114.0" stroke="black" stroke-width="1" fill="none" />
<polyline points="133.5,97.5,137.5,92.5,141.5,85.0,145.5,80.0,149.5,75.0,153.5,70.5,157.5,66.0,161.5,62.0,165.5,58.5,169.5,55.5,173.5,53.0,177.5,50.5,181.5,48.0,185.5,45.0,189.5,42.5,193.5,41.0,197.5,41.0,201.5,40.0,205.5,38.5,209.5,38.0,213.5,36.0,217.5,35.5,221.5,34.5,224.5,35.5,228.5,34.0,232.5,34.0,236.5,33.5,240.5,34.0,244.5,34.0,248.5,33.5,252.5,34.0,256.5,34.0,260.5,35.5,264.5,36.0,268.5,36.5,272.5,38.5,276.5,38.5,280.5,40.0,284.5,41.0,288.5,43.0,292.5,43.5,296.5,45.5,300.5,46.0,304.5,48.0,308.5,50.0,312.5,53.0,316.5,55.5,320.5,59.5,324.5,64.0,328.5,69.0,332.5,74.0,336.5,79.5,340.5,86.0,344.5,92.0,348.5,96.5,352.5,101.0,356.5,105.5,360.5,110.0,364.5,115.0,368.5,123.0" stroke="black" stroke-width="1" fill="none" />
<polyline points="283.5,170.0,286.5,166.0,288.5,162.0,288.5,158.0,288.5,154.0,288.5,150.0,288.0,146.0,285.5,142.0,277.0,138.0,271.5,134.0,269.0,130.0,266.0,126.0,264.0,122.0,262.5,118.0,261.5,114.0,260.0,110.0,257.0,106.0,254.0,102.0,252.0,98.0,245.5,94.0,239.0,90.0" stroke="black" stroke-width="1" fill="none" />
<polyline points="172.0,88.5,162.0,92.5,154.5,96.5,150.5,100.5,148.0,104.5,146.5,108.5,144.0,112.5,143.0,116.5,142.5,120.5,141.0,124.5,140.5,128.5,140.5,132.5,140.5,136.5,140.0,140.5,138.0,144.5,137.5,148.5,136.0,152.5,135.5,156.5,136.0,160.5,136.0,164.5,136.5,168.5,138.0,172.5,138.0,176.5,140.5,180.5" stroke="black" stroke-width="1" fill="none" />
<polyline points="113.5,141.5,117.5,133.5,121.5,124.5,125.5,116.5,129.5,109.0" stroke="black" stroke-width="1" fill="none" />
<polyline points="219.0,172.0,214.0,176.0,208.5,180.0,206.0,184.0,203.5,188.0,203.0,192.0,203.5,196.0,203.5,200.0,205.0,203.5,209.0,202.0,213.0,199.5,217.0,194.0,221.0,188.0,225.0,184.5,229.0,182.5,233.0,181.5,237.0,181.5,241.0,179.5,244.5,181.0,248.5,181.5,252.5,183.0,256.5,184.5" stroke="black" stroke-width="1" fill="none" />
<polyline points="225.5,184.0,221.0,188.0,218.0,192.0,215.5,196.0,212.5,200.0" stroke="black" stroke-width="1" fill="none" />
<polyline points="226.5,176.5,223.0,172.5" stroke="black" stroke-width="1" fill="none" />
<polyline points="302.0,46.5,308.5,50.5,314.5,54.5,319.0,58.5,322.5,62.5,326.0,66.5,329.5,70.5,332.5,74.5,335.0,78.5,338.0,82.5,340.5,86.5,343.0,90.5,346.0,94.5,349.5,98.5,353.5,102.5,356.5,106.5,360.5,110.5,363.5,114.5,366.0,118.5,368.0,122.5,369.0,126.5,369.0,130.5,370.5,134.5,371.0,138.5,373.0,142.5,373.5,146.5,374.0,150.5,376.0,154.5,376.0,158.5,376.0,162.5,376.0,166.5,376.0,170.5,378.0,174.5,378.5,178.5,379.5,182.5,380.5,186.5,381.0,190.5,381.0,194.5,381.0,198.5,381.5,202.5,383.0,206.5,383.5,210.5,385.5,214.5,385.5,218.5,385.5,222.5,386.5,226.5,388.0,230.5,388.5,234.5,390.0,238.5,390.5,242.5,390.5,246.5,390.5,250.5,390.5,254.5,390.5,258.5,392.5,262.5,393.0,266.5,393.0,270.5,393.0,274.5,395.0,278.5,395.0,282.5,395.5,286.5,395.5,290.5,397.5,294.5,397.5,298.5,397.5,302.5,397.5,306.5,397.5,310.5,397.5,314.5,397.5,318.5,398.0,322.5,398.0,326.5,397.5,330.5,397.5,334.5,397.5,338.5,398.0,342.5,398.0,346.5,400.0,350.5,400.5,354.5,402.5,358.5,405.0,362.5,406.0,366.5,408.5,370.5,410.5,374.5,413.0,378.5,415.0,382.5,417.5,386.5,420.0,390.5,422.0,394.5,424.0,398.5,426.0,402.5,427.5,406.5,430.0,410.5,432.5,414.5,435.0,418.5,436.5,422.5,433.0,426.5,427.0,430.5,421.5,434.5,416.5,438.5,410.5,442.5,404.0,446.5,397.5,450.5" stroke="black" stroke-width="1" fill="none" />
<polyline points="453.5,435.5,457.0,439.5,460.0,443.5,464.0,447.5,468.0,451.5,471.0,455.5,475.0,459.5,478.5,463.5,483.0,467.5,487.0,471.5,492.5,475.5,496.5,479.5,500.0,483.5,504.0,487.5,509.0,491.5" stroke="black" stroke-width="1" fill="none" />
<polyline points="189.5,540.0,182.0,536.0" stroke="black" stroke-width="1" fill="none" />
<polyline points="146.5,525.0,136.5,521.0,128.0,517.0,122.0,513.0,117.0,509.0,115.5,505.0,113.5,501.0,112.0,497.0,112.0,493.0,113.5,489.0,113.5,485.0,114.0,481.0,116.0,477.0,119.0,473.0,124.5,469.0,131.5,465.0" stroke="black" stroke-width="1" fill="none" />
<polyline points="4.0,573.0,512.0,573.0,512.0,572.0,508.0,576.0,504.0,576.0,512.0,568.0,512.0,564.0,500.0,576.0,496.0,576.0,512.0,560.0,512.0,556.0,492.0,576.0,488.0,576.0,512.0,552.0,512.0,548.0,484.0,576.0,480.0,576.0,512.0,544.0,512.0,540.0,476.0,576.0,472.0,576.0,512.0,536.0,512.0,532.0,468.0,576.0,464.0,576.0,512.0,528.0,512.0,524.0,460.0,576.0,456.0,576.0,512.0,520.0,512.0,516.0,452.0,576.0,448.0,576.0,512.0,512.0,512.0,508.0,444.0,576.0,440.0,576.0,512.0,504.0,512.0,500.0,436.0,576.0,432.0,576.0,512.0,496.0,512.0,492.0,428.0,576.0,424.0,576.0,512.0,488.0,508.0,488.0,420.0,576.0,416.0,576.0,504.0,488.0,504.0,484.0,412.0,576.0,408.0,576.0,500.0,484.0,500.0,480.0,404.0,576.0,400.0,576.0,496.0,480.0,496.0,476.0,396.0,576.0,392.0,576.0,492.0,476.0,492.0,472.0,388.0,576.0,384.0,576.0,488.0,472.0,488.0,468.0,380.0,576.0,376.0,576.0,484.0,468.0,484.0,464.0,372.0,576.0,368.0,576.0,480.0,464.0,480.0,460.0,364.0,576.0,360.0,576.0,476.0,460.0,476.0,456.0,356.0,576.0,352.0,576.0,472.0,456.0,472.0,452.0,348.0,576.0,344.0,576.0,468.0,452.0,468.0,448.0,340.0,576.0,336.0,576.0,464.0,448.0,464.0,444.0,436.0,472.0,436.0,469.0,488.0,469.0" stroke="black" stroke-width="1" fill="none" />
<polyline points="460.0,444.0,436.0,468.0,436.0,465.0,484.0,465.0" stroke="black" stroke-width="1" fill="none" />
<polyline points="460.0,440.0,436.0,464.0,436.0,461.0,480.0,461.0" stroke="black" stroke-width="1" fill="none" />
<polyline points="456.0,440.0,436.0,460.0,436.0,457.0,476.0,457.0" stroke="black" stroke-width="1" fill="none" />
<polyline points="456.0,436.0,436.0,456.0,436.0,453.0,472.0,453.0" stroke="black" stroke-width="1" fill="none" />
<polyline points="452.0,436.0,436.0,452.0,436.0,449.0,468.0,449.0" stroke="black" stroke-width="1" fill="none" />
<polyline points="456.0,439.0,448.0,439.0,448.0,436.0,440.0,444.0,440.0,441.0,464.0,441.0" stroke="black" stroke-width="1" fill="none" />
<polyline points="456.0,433.0,448.0,433.0,444.0,437.0,460.0,437.0" stroke="black" stroke-width="1" fill="none" />
<polyline points="460.0,443.0,444.0,443.0,440.0,447.0,460.0,447.0" stroke="black" stroke-width="1" fill="none" />
<polyline points="472.0,459.0,440.0,459.0,440.0,455.0,468.0,455.0" stroke="black" stroke-width="1" fill="none" />
<polyline points="484.0,471.0,440.0,471.0,440.0,467.0,480.0,467.0,476.0,463.0,440.0,463.0" stroke="black" stroke-width="1" fill="none" />
<polyline points="440.0,451.0,464.0,451.0" stroke="black" stroke-width="1" fill="none" />
<polyline points="464.0,445.0,436.0,445.0" stroke="black" stroke-width="1" fill="none" />
<polyline points="432.0,424.0,436.0,420.0,436.0,416.0,416.0,436.0" stroke="black" stroke-width="1" fill="none" />
<polyline points="408.0,440.0,432.0,416.0,432.0,412.0,396.0,448.0" stroke="black" stroke-width="1" fill="none" />
<polyline points="388.0,452.0,432.0,408.0,428.0,408.0,384.0,452.0" stroke="black" stroke-width="1" fill="none" />
<polyline points="376.0,456.0,428.0,404.0,424.0,404.0,368.0,460.0" stroke="black" stroke-width="1" fill="none" />
<polyline points="360.0,464.0,424.0,400.0,424.0,396.0,352.0,468.0" stroke="black" stroke-width="1" fill="none" />
<polyline points="340.0,476.0,424.0,392.0,420.0,392.0,332.0,480.0" stroke="black" stroke-width="1" fill="none" />
<polyline points="324.0,484.0,420.0,388.0,416.0,388.0,316.0,488.0,312.0,488.0,416.0,384.0,416.0,380.0,308.0,488.0,304.0,488.0,412.0,380.0,412.0,376.0,304.0,484.0,304.0,487.0,316.0,487.0,316.0,489.0,304.0,489.0,300.0,485.0,324.0,485.0" stroke="black" stroke-width="1" fill="none" />
<polyline points="300.0,484.0,412.0,372.0,408.0,372.0,300.0,480.0,300.0,479.0,332.0,479.0" stroke="black" stroke-width="1" fill="none" />
<polyline points="352.0,467.0,304.0,467.0,304.0,463.0,360.0,463.0" stroke="black" stroke-width="1" fill="none" />
<polyline points="380.0,505.0,512.0,505.0" stroke="black" stroke-width="1" fill="none" />
<polyline points="492.0,475.0,436.0,475.0,432.0,473.0,496.0,473.0" stroke="black" stroke-width="1" fill="none" />
<polyline points="500.0,483.0,432.0,483.0,432.0,479.0,496.0,479.0" stroke="black" stroke-width="1" fill="none" />
<polyline points="504.0,487.0,428.0,487.0" stroke="black" stroke-width="1" fill="none" />
<polyline points="428.0,481.0,500.0,481.0,500.0,477.0,428.0,477.0" stroke="black" stroke-width="1" fill="none" />
<polyline points="420.0,485.0,508.0,485.0" stroke="black" stroke-width="1" fill="none" />
<polyline points="420.0,488.0,332.0,576.0,328.0,576.0,412.0,492.0,412.0,489.0,512.0,489.0,508.0,491.0,420.0,491.0" stroke="black" stroke-width="1" fill="none" />
<polyline points="412.0,495.0,512.0,495.0" stroke="black" stroke-width="1" fill="none" />
<polyline points="404.0,496.0,324.0,576.0,320.0,576.0,396.0,500.0,396.0,497.0,512.0,497.0,512.0,499.0,404.0,499.0" stroke="black" stroke-width="1" fill="none" />
<polyline points="404.0,493.0,512.0,493.0" stroke="black" stroke-width="1" fill="none" />
<polyline points="512.0,503.0,396.0,503.0" stroke="black" stroke-width="1" fill="none" />
<polyline points="388.0,504.0,316.0,576.0,312.0,576.0,380.0,508.0,376.0,508.0,308.0,576.0,304.0,576.0,368.0,512.0,368.0,509.0,512.0,509.0" stroke="black" stroke-width="1" fill="none" />
<polyline points="512.0,501.0,388.0,501.0" stroke="black" stroke-width="1" fill="none" />
<polyline points="384.0,507.0,512.0,507.0,512.0,511.0,376.0,511.0" stroke="black" stroke-width="1" fill="none" />
<polyline points="368.0,515.0,512.0,515.0" stroke="black" stroke-width="1" fill="none" />
<polyline points="360.0,516.0,300.0,576.0,296.0,576.0,356.0,516.0,356.0,519.0,512.0,519.0" stroke="black" stroke-width="1" fill="none" />
<polyline points="512.0,513.0,360.0,513.0" stroke="black" stroke-width="1" fill="none" />
<polyline points="352.0,517.0,512.0,517.0" stroke="black" stroke-width="1" fill="none" />
<polyline points="512.0,523.0,348.0,523.0,344.0,524.0,292.0,576.0,288.0,576.0,340.0,524.0,340.0,527.0,512.0,527.0" stroke="black" stroke-width="1" fill="none" />
<polyline points="512.0,521.0,344.0,521.0" stroke="black" stroke-width="1" fill="none" />
<polyline points="332.0,525.0,512.0,525.0" stroke="black" stroke-width="1" fill="none" />
<polyline points="332.0,528.0,284.0,576.0,280.0,576.0,320.0,536.0,320.0,533.0,512.0,533.0,512.0,531.0,332.0,531.0,328.0,529.0,512.0,529.0" stroke="black" stroke-width="1" fill="none" />
<polyline points="512.0,535.0,328.0,535.0" stroke="black" stroke-width="1" fill="none" />
<polyline points="316.0,536.0,276.0,576.0,272.0,576.0,308.0,540.0,308.0,537.0,512.0,537.0,512.0,539.0,316.0,539.0" stroke="black" stroke-width="1" fill="none" />
<polyline points="308.0,543.0,512.0,543.0" stroke="black" stroke-width="1" fill="none" />
<polyline points="408.0,368.0,300.0,476.0,300.0,475.0,340.0,475.0" stroke="black" stroke-width="1" fill="none" />
<polyline points="308.0,455.0,376.0,455.0" stroke="black" stroke-width="1" fill="none" />
<polyline points="388.0,451.0,308.0,451.0,308.0,447.0,396.0,447.0" stroke="black" stroke-width="1" fill="none" />
<polyline points="404.0,364.0,300.0,468.0,300.0,469.0,352.0,469.0" stroke="black" stroke-width="1" fill="none" />
<polyline points="368.0,459.0,304.0,459.0,304.0,456.0,404.0,356.0,400.0,356.0,304.0,452.0,304.0,453.0,384.0,453.0" stroke="black" stroke-width="1" fill="none" />
<polyline points="308.0,444.0,400.0,352.0,400.0,348.0,308.0,440.0,308.0,439.0,408.0,439.0" stroke="black" stroke-width="1" fill="none" />
<polyline points="408.0,364.0,300.0,472.0,300.0,471.0,348.0,471.0" stroke="black" stroke-width="1" fill="none" />
<polyline points="324.0,483.0,300.0,483.0,300.0,481.0,332.0,481.0" stroke="black" stroke-width="1" fill="none" />
<polyline points="360.0,465.0,300.0,465.0,300.0,464.0,404.0,360.0" stroke="black" stroke-width="1" fill="none" />
<polyline points="400.0,344.0,308.0,436.0,308.0,435.0,416.0,435.0" stroke="black" stroke-width="1" fill="none" />
<polyline points="396.0,344.0,308.0,432.0,308.0,431.0,420.0,431.0" stroke="black" stroke-width="1" fill="none" />
<polyline points="396.0,340.0,308.0,428.0,308.0,427.0,428.0,427.0" stroke="black" stroke-width="1" fill="none" />
<polyline points="396.0,336.0,308.0,424.0,308.0,423.0,432.0,423.0" stroke="black" stroke-width="1" fill="none" />
<polyline points="396.0,332.0,308.0,420.0,308.0,419.0,436.0,419.0" stroke="black" stroke-width="1" fill="none" />
<polyline points="396.0,328.0,308.0,416.0,308.0,415.0,432.0,415.0" stroke="black" stroke-width="1" fill="none" />
<polyline points="396.0,324.0,308.0,412.0,308.0,411.0,428.0,411.0" stroke="black" stroke-width="1" fill="none" />
<polyline points="396.0,320.0,308.0,408.0,308.0,407.0,428.0,407.0" stroke="black" stroke-width="1" fill="none" />
<polyline points="396.0,316.0,308.0,404.0,308.0,403.0,424.0,403.0" stroke="black" stroke-width="1" fill="none" />
<polyline points="396.0,312.0,308.0,400.0,308.0,399.0,424.0,399.0" stroke="black" stroke-width="1" fill="none" />
<polyline points="396.0,308.0,308.0,396.0,308.0,395.0,420.0,395.0" stroke="black" stroke-width="1" fill="none" />
<polyline points="396.0,304.0,304.0,396.0,304.0,397.0,424.0,397.0" stroke="black" stroke-width="1" fill="none" />
<polyline points="396.0,300.0,304.0,392.0,304.0,393.0,424.0,393.0" stroke="black" stroke-width="1" fill="none" />
<polyline points="396.0,296.0,304.0,388.0,304.0,387.0,416.0,387.0" stroke="black" stroke-width="1" fill="none" />
<polyline points="396.0,292.0,304.0,384.0,304.0,383.0,412.0,383.0" stroke="black" stroke-width="1" fill="none" />
<polyline points="396.0,288.0,304.0,380.0,304.0,379.0,412.0,379.0" stroke="black" stroke-width="1" fill="none" />
<polyline points="396.0,284.0,300.0,380.0,300.0,381.0,416.0,381.0" stroke="black" stroke-width="1" fill="none" />
<polyline points="392.0,284.0,300.0,376.0,300.0,375.0,408.0,375.0" stroke="black" stroke-width="1" fill="none" />
<polyline points="392.0,280.0,300.0,372.0,300.0,371.0,408.0,371.0" stroke="black" stroke-width="1" fill="none" />
<polyline points="392.0,276.0,300.0,368.0,300.0,367.0,404.0,367.0" stroke="black" stroke-width="1" fill="none" />
<polyline points="392.0,272.0,296.0,368.0,296.0,369.0,412.0,369.0" stroke="black" stroke-width="1" fill="none" />
<polyline points="392.0,268.0,296.0,364.0,292.0,364.0,392.0,264.0,392.0,260.0,284.0,368.0,280.0,368.0,392.0,256.0,388.0,256.0,276.0,368.0,272.0,368.0,388.0,252.0,388.0,248.0,268.0,368.0,268.0,367.0,280.0,367.0,276.0,369.0,272.0,369.0" stroke="black" stroke-width="1" fill="none" />
<polyline points="268.0,364.0,388.0,244.0,388.0,240.0,264.0,364.0,264.0,365.0,408.0,365.0" stroke="black" stroke-width="1" fill="none" />
<polyline points="404.0,443.0,308.0,443.0,304.0,441.0,408.0,441.0" stroke="black" stroke-width="1" fill="none" />
<polyline points="420.0,433.0,308.0,433.0,308.0,429.0,424.0,429.0" stroke="black" stroke-width="1" fill="none" />
<polyline points="432.0,425.0,308.0,425.0,308.0,421.0,436.0,421.0,436.0,417.0,308.0,417.0,308.0,413.0,436.0,413.0,432.0,409.0,308.0,409.0,308.0,405.0,428.0,405.0" stroke="black" stroke-width="1" fill="none" />
<polyline points="420.0,391.0,308.0,391.0,304.0,389.0,420.0,389.0" stroke="black" stroke-width="1" fill="none" />
<polyline points="396.0,449.0,304.0,449.0,304.0,445.0,404.0,445.0" stroke="black" stroke-width="1" fill="none" />
<polyline points="416.0,437.0,304.0,437.0" stroke="black" stroke-width="1" fill="none" />
<polyline points="300.0,457.0,376.0,457.0" stroke="black" stroke-width="1" fill="none" />
<polyline points="368.0,461.0,300.0,461.0" stroke="black" stroke-width="1" fill="none" />
<polyline points="296.0,473.0,344.0,473.0,340.0,477.0,296.0,477.0" stroke="black" stroke-width="1" fill="none" />
<polyline points="296.0,541.0,512.0,541.0" stroke="black" stroke-width="1" fill="none" />
<polyline points="300.0,544.0,268.0,576.0,264.0,576.0,296.0,544.0,292.0,544.0,260.0,576.0,256.0,576.0,288.0,544.0,284.0,544.0,252.0,576.0,248.0,576.0,280.0,544.0,276.0,544.0,244.0,576.0,240.0,576.0,272.0,544.0,268.0,544.0,236.0,576.0,232.0,576.0,264.0,544.0,260.0,544.0,228.0,576.0,224.0,576.0,256.0,544.0,252.0,544.0,220.0,576.0,216.0,576.0,248.0,544.0,244.0,544.0,212.0,576.0,208.0,576.0,240.0,544.0,236.0,544.0,204.0,576.0,200.0,576.0,232.0,544.0,228.0,544.0,196.0,576.0,192.0,576.0,224.0,544.0,220.0,544.0,188.0,576.0,184.0,576.0,216.0,544.0,212.0,544.0,180.0,576.0,176.0,576.0,208.0,544.0,204.0,544.0,172.0,576.0,168.0,576.0,204.0,540.0,200.0,540.0,164.0,576.0,160.0,576.0,196.0,540.0,192.0,540.0,156.0,576.0,152.0,576.0,192.0,536.0,188.0,536.0,148.0,576.0,144.0,576.0,184.0,536.0,180.0,536.0,140.0,576.0,136.0,576.0,180.0,532.0,176.0,532.0,132.0,576.0,128.0,576.0,172.0,532.0,168.0,532.0,124.0,576.0,120.0,576.0,168.0,528.0,164.0,528.0,116.0,576.0,112.0,576.0,160.0,528.0,156.0,528.0,108.0,576.0,104.0,576.0,156.0,524.0,152.0,524.0,100.0,576.0,96.0,576.0,148.0,524.0,144.0,524.0,92.0,576.0,88.0,576.0,144.0,520.0,140.0,520.0,84.0,576.0,80.0,576.0,136.0,520.0,136.0,516.0,76.0,576.0,72.0,576.0,132.0,516.0,128.0,516.0,68.0,576.0,64.0,576.0,128.0,512.0,124.0,512.0,60.0,576.0,56.0,576.0,120.0,512.0,120.0,508.0,52.0,576.0,48.0,576.0,116.0,508.0,116.0,504.0,44.0,576.0,40.0,576.0,116.0,500.0,112.0,500.0,36.0,576.0,32.0,576.0,112.0,496.0,112.0,492.0,28.0,576.0" stroke="black" stroke-width="1" fill="none" />
<polyline points="12.0,576.0,144.0,444.0,144.0,448.0,128.0,464.0" stroke="black" stroke-width="1" fill="none" />
<polyline points="136.0,460.0,144.0,452.0" stroke="black" stroke-width="1" fill="none" />
<polyline points="148.0,436.0,8.0,576.0,8.0,575.0,512.0,575.0" stroke="black" stroke-width="1" fill="none" />
<polyline points="428.0,401.0,304.0,401.0" stroke="black" stroke-width="1" fill="none" />
<polyline points="304.0,385.0,420.0,385.0" stroke="black" stroke-width="1" fill="none" />
<polyline points="416.0,377.0,300.0,377.0,300.0,373.0,412.0,373.0" stroke="black" stroke-width="1" fill="none" />
<polyline points="388.0,236.0,260.0,364.0,256.0,364.0,388.0,232.0,388.0,228.0,252.0,364.0,248.0,364.0,388.0,224.0,384.0,224.0,248.0,360.0,244.0,360.0,384.0,220.0,384.0,216.0,240.0,360.0,240.0,359.0,400.0,359.0" stroke="black" stroke-width="1" fill="none" />
<polyline points="384.0,227.0,296.0,227.0,296.0,223.0,384.0,223.0" stroke="black" stroke-width="1" fill="none" />
<polyline points="384.0,212.0,236.0,360.0,236.0,356.0,384.0,208.0,384.0,204.0,232.0,356.0,232.0,357.0,404.0,357.0" stroke="black" stroke-width="1" fill="none" />
<polyline points="384.0,219.0,300.0,219.0,300.0,215.0,384.0,215.0" stroke="black" stroke-width="1" fill="none" />
<polyline points="380.0,204.0,228.0,356.0,224.0,356.0,380.0,200.0,380.0,196.0,224.0,352.0,224.0,355.0,400.0,355.0" stroke="black" stroke-width="1" fill="none" />
<polyline points="388.0,221.0,296.0,221.0,296.0,220.0,372.0,144.0,372.0,140.0,300.0,212.0,300.0,211.0,380.0,211.0" stroke="black" stroke-width="1" fill="none" />
<polyline points="380.0,192.0,220.0,352.0,220.0,351.0,400.0,351.0" stroke="black" stroke-width="1" fill="none" />
<polyline points="388.0,239.0,292.0,239.0,292.0,235.0,388.0,235.0" stroke="black" stroke-width="1" fill="none" />
<polyline points="380.0,188.0,276.0,292.0,276.0,289.0,396.0,289.0" stroke="black" stroke-width="1" fill="none" />
<polyline points="380.0,184.0,280.0,284.0,280.0,281.0,396.0,281.0" stroke="black" stroke-width="1" fill="none" />
<polyline points="380.0,180.0,284.0,276.0,284.0,275.0,392.0,275.0" stroke="black" stroke-width="1" fill="none" />
<polyline points="376.0,180.0,284.0,272.0,284.0,271.0,392.0,271.0" stroke="black" stroke-width="1" fill="none" />
<polyline points="376.0,176.0,284.0,268.0,284.0,267.0,392.0,267.0" stroke="black" stroke-width="1" fill="none" />
<polyline points="376.0,172.0,284.0,264.0,284.0,263.0,388.0,263.0" stroke="black" stroke-width="1" fill="none" />
<polyline points="376.0,168.0,284.0,260.0,284.0,259.0,388.0,259.0" stroke="black" stroke-width="1" fill="none" />
<polyline points="376.0,164.0,284.0,256.0,284.0,255.0,388.0,255.0" stroke="black" stroke-width="1" fill="none" />
<polyline points="376.0,160.0,284.0,252.0,284.0,251.0,388.0,251.0" stroke="black" stroke-width="1" fill="none" />
<polyline points="376.0,156.0,288.0,244.0,288.0,243.0,388.0,243.0" stroke="black" stroke-width="1" fill="none" />
<polyline points="376.0,152.0,288.0,240.0,288.0,241.0,392.0,241.0" stroke="black" stroke-width="1" fill="none" />
<polyline points="372.0,152.0,292.0,232.0,292.0,231.0,388.0,231.0" stroke="black" stroke-width="1" fill="none" />
<polyline points="372.0,148.0,292.0,228.0,292.0,229.0,388.0,229.0" stroke="black" stroke-width="1" fill="none" />
<polyline points="300.0,208.0,372.0,136.0,368.0,136.0,300.0,204.0,300.0,203.0,380.0,203.0" stroke="black" stroke-width="1" fill="none" />
<polyline points="368.0,132.0,300.0,200.0,300.0,199.0,380.0,199.0" stroke="black" stroke-width="1" fill="none" />
<polyline points="368.0,128.0,300.0,196.0,300.0,195.0,380.0,195.0" stroke="black" stroke-width="1" fill="none" />
<polyline points="368.0,124.0,300.0,192.0,300.0,191.0,380.0,191.0" stroke="black" stroke-width="1" fill="none" />
<polyline points="368.0,120.0,296.0,192.0,296.0,193.0,384.0,193.0" stroke="black" stroke-width="1" fill="none" />
<polyline points="364.0,120.0,296.0,188.0,296.0,187.0,380.0,187.0" stroke="black" stroke-width="1" fill="none" />
<polyline points="364.0,116.0,296.0,184.0,292.0,184.0,364.0,112.0,360.0,112.0,288.0,184.0,284.0,184.0,360.0,108.0,356.0,108.0,276.0,188.0" stroke="black" stroke-width="1" fill="none" />
<polyline points="272.0,176.0,252.0,196.0,256.0,196.0,280.0,172.0,280.0,169.0,376.0,169.0" stroke="black" stroke-width="1" fill="none" />
<polyline points="356.0,104.0,264.0,196.0,260.0,196.0,352.0,104.0,352.0,100.0,288.0,164.0,288.0,165.0,376.0,165.0" stroke="black" stroke-width="1" fill="none" />
<polyline points="348.0,100.0,288.0,160.0,288.0,161.0,376.0,161.0" stroke="black" stroke-width="1" fill="none" />
<polyline points="348.0,96.0,292.0,152.0,292.0,151.0,372.0,151.0" stroke="black" stroke-width="1" fill="none" />
<polyline points="344.0,96.0,288.0,152.0,288.0,153.0,376.0,153.0" stroke="black" stroke-width="1" fill="none" />
<polyline points="344.0,92.0,288.0,148.0,288.0,149.0,376.0,149.0" stroke="black" stroke-width="1" fill="none" />
<polyline points="344.0,88.0,288.0,144.0,288.0,143.0,372.0,143.0" stroke="black" stroke-width="1" fill="none" />
<polyline points="340.0,88.0,288.0,140.0,284.0,140.0,340.0,84.0,336.0,84.0,280.0,140.0,280.0,137.0,372.0,137.0" stroke="black" stroke-width="1" fill="none" />
<polyline points="336.0,80.0,280.0,136.0,276.0,136.0,336.0,76.0,332.0,76.0,276.0,132.0,276.0,135.0,368.0,135.0" stroke="black" stroke-width="1" fill="none" />
<polyline points="332.0,72.0,272.0,132.0,272.0,131.0,368.0,131.0" stroke="black" stroke-width="1" fill="none" />
<polyline points="328.0,72.0,272.0,128.0,268.0,128.0,328.0,68.0,324.0,68.0,268.0,124.0,268.0,123.0,364.0,123.0" stroke="black" stroke-width="1" fill="none" />
<polyline points="324.0,64.0,264.0,124.0,264.0,121.0,368.0,121.0" stroke="black" stroke-width="1" fill="none" />
<polyline points="320.0,64.0,264.0,120.0,264.0,119.0,364.0,119.0" stroke="black" stroke-width="1" fill="none" />
<polyline points="320.0,60.0,264.0,116.0,264.0,115.0,360.0,115.0" stroke="black" stroke-width="1" fill="none" />
<polyline points="316.0,60.0,264.0,112.0,264.0,111.0,356.0,111.0" stroke="black" stroke-width="1" fill="none" />
<polyline points="316.0,56.0,260.0,112.0,260.0,113.0,364.0,113.0" stroke="black" stroke-width="1" fill="none" />
<polyline points="312.0,56.0,260.0,108.0,260.0,107.0,352.0,107.0" stroke="black" stroke-width="1" fill="none" />
<polyline points="312.0,52.0,260.0,104.0,256.0,104.0,308.0,52.0,308.0,48.0,256.0,100.0,256.0,99.0,348.0,99.0" stroke="black" stroke-width="1" fill="none" />
<polyline points="304.0,48.0,252.0,100.0,252.0,97.0,352.0,97.0" stroke="black" stroke-width="1" fill="none" />
<polyline points="300.0,48.0,252.0,96.0,252.0,95.0,344.0,95.0" stroke="black" stroke-width="1" fill="none" />
<polyline points="296.0,48.0,248.0,96.0,248.0,93.0,348.0,93.0" stroke="black" stroke-width="1" fill="none" />
<polyline points="296.0,44.0,248.0,92.0,244.0,92.0,292.0,44.0,288.0,44.0,244.0,88.0,244.0,91.0,340.0,91.0" stroke="black" stroke-width="1" fill="none" />
<polyline points="284.0,44.0,240.0,88.0,240.0,89.0,344.0,89.0" stroke="black" stroke-width="1" fill="none" />
<polyline points="284.0,40.0,236.0,88.0,236.0,87.0,340.0,87.0" stroke="black" stroke-width="1" fill="none" />
<polyline points="280.0,40.0,232.0,88.0,228.0,88.0,276.0,40.0,272.0,40.0,228.0,84.0,224.0,84.0,268.0,40.0,268.0,36.0,220.0,84.0,216.0,84.0,264.0,36.0,260.0,36.0,212.0,84.0,208.0,84.0,256.0,36.0,252.0,36.0,204.0,84.0,204.0,83.0,336.0,83.0" stroke="black" stroke-width="1" fill="none" />
<polyline points="372.0,147.0,292.0,147.0,288.0,145.0,376.0,145.0" stroke="black" stroke-width="1" fill="none" />
<polyline points="380.0,207.0,300.0,207.0,300.0,205.0,384.0,205.0,384.0,201.0,300.0,201.0,300.0,197.0,384.0,197.0" stroke="black" stroke-width="1" fill="none" />
<polyline points="388.0,217.0,296.0,217.0,296.0,213.0,384.0,213.0,384.0,209.0,296.0,209.0" stroke="black" stroke-width="1" fill="none" />
<polyline points="292.0,225.0,388.0,225.0" stroke="black" stroke-width="1" fill="none" />
<polyline points="380.0,189.0,296.0,189.0,292.0,185.0,380.0,185.0,376.0,183.0,292.0,183.0" stroke="black" stroke-width="1" fill="none" />
<polyline points="288.0,171.0,376.0,171.0" stroke="black" stroke-width="1" fill="none" />
<polyline points="372.0,163.0,292.0,163.0,292.0,159.0,372.0,159.0,372.0,155.0,292.0,155.0,288.0,157.0,376.0,157.0" stroke="black" stroke-width="1" fill="none" />
<polyline points="392.0,237.0,288.0,237.0,288.0,233.0,388.0,233.0" stroke="black" stroke-width="1" fill="none" />
<polyline points="388.0,247.0,288.0,247.0,284.0,245.0,392.0,245.0" stroke="black" stroke-width="1" fill="none" />
<polyline points="372.0,167.0,288.0,167.0" stroke="black" stroke-width="1" fill="none" />
<polyline points="280.0,175.0,376.0,175.0" stroke="black" stroke-width="1" fill="none" />
<polyline points="392.0,249.0,284.0,249.0,280.0,253.0,392.0,253.0" stroke="black" stroke-width="1" fill="none" />
<polyline points="392.0,283.0,284.0,283.0,284.0,279.0,392.0,279.0" stroke="black" stroke-width="1" fill="none" />
<polyline points="392.0,291.0,280.0,291.0,280.0,287.0,392.0,287.0" stroke="black" stroke-width="1" fill="none" />
<polyline points="396.0,277.0,280.0,277.0,280.0,273.0,396.0,273.0,392.0,269.0,280.0,269.0,280.0,265.0,392.0,265.0,392.0,261.0,280.0,261.0,280.0,257.0,392.0,257.0" stroke="black" stroke-width="1" fill="none" />
<polyline points="372.0,141.0,284.0,141.0,284.0,139.0,368.0,139.0" stroke="black" stroke-width="1" fill="none" />
<polyline points="380.0,173.0,272.0,173.0,268.0,176.0,248.0,196.0,244.0,196.0,252.0,188.0,248.0,184.0,236.0,196.0,236.0,193.0,272.0,193.0" stroke="black" stroke-width="1" fill="none" />
<polyline points="276.0,187.0,260.0,187.0,256.0,184.0,264.0,176.0,260.0,176.0,240.0,196.0,240.0,195.0,260.0,195.0" stroke="black" stroke-width="1" fill="none" />
<polyline points="256.0,183.0,284.0,183.0" stroke="black" stroke-width="1" fill="none" />
<polyline points="260.0,179.0,376.0,179.0" stroke="black" stroke-width="1" fill="none" />
<polyline points="396.0,285.0,276.0,285.0" stroke="black" stroke-width="1" fill="none" />
<polyline points="272.0,293.0,396.0,293.0,396.0,295.0,276.0,295.0,272.0,299.0,396.0,299.0" stroke="black" stroke-width="1" fill="none" />
<polyline points="268.0,300.0,220.0,348.0,220.0,347.0,396.0,347.0" stroke="black" stroke-width="1" fill="none" />
<polyline points="396.0,303.0,268.0,303.0,264.0,301.0,400.0,301.0,400.0,297.0,268.0,297.0" stroke="black" stroke-width="1" fill="none" />
<polyline points="264.0,307.0,396.0,307.0,396.0,311.0,260.0,311.0" stroke="black" stroke-width="1" fill="none" />
<polyline points="260.0,305.0,396.0,305.0" stroke="black" stroke-width="1" fill="none" />
<polyline points="404.0,363.0,256.0,363.0" stroke="black" stroke-width="1" fill="none" />
<polyline points="244.0,361.0,404.0,361.0" stroke="black" stroke-width="1" fill="none" />
<polyline points="396.0,315.0,252.0,315.0,252.0,312.0,220.0,344.0,220.0,343.0,396.0,343.0" stroke="black" stroke-width="1" fill="none" />
<polyline points="396.0,309.0,252.0,309.0,248.0,313.0,400.0,313.0" stroke="black" stroke-width="1" fill="none" />
<polyline points="396.0,319.0,248.0,319.0,244.0,317.0,400.0,317.0" stroke="black" stroke-width="1" fill="none" />
<polyline points="380.0,181.0,248.0,181.0,248.0,180.0,252.0,176.0,248.0,176.0,244.0,180.0,244.0,176.0,240.0,180.0,240.0,176.0,236.0,180.0,236.0,176.0,232.0,180.0,232.0,176.0,224.0,184.0" stroke="black" stroke-width="1" fill="none" />
<polyline points="228.0,189.0,276.0,189.0" stroke="black" stroke-width="1" fill="none" />
<polyline points="256.0,176.0,252.0,180.0,248.0,179.0,256.0,179.0" stroke="black" stroke-width="1" fill="none" />
<polyline points="244.0,184.0,236.0,192.0,236.0,191.0,272.0,191.0" stroke="black" stroke-width="1" fill="none" />
<polyline points="256.0,197.0,244.0,197.0" stroke="black" stroke-width="1" fill="none" />
<polyline points="236.0,188.0,240.0,184.0" stroke="black" stroke-width="1" fill="none" />
<polyline points="232.0,185.0,280.0,185.0" stroke="black" stroke-width="1" fill="none" />
<polyline points="272.0,133.0,372.0,133.0,372.0,129.0,268.0,129.0,268.0,127.0,368.0,127.0,368.0,125.0,268.0,125.0" stroke="black" stroke-width="1" fill="none" />
<polyline points="264.0,117.0,368.0,117.0" stroke="black" stroke-width="1" fill="none" />
<polyline points="360.0,109.0,260.0,109.0,256.0,105.0,356.0,105.0,352.0,103.0,256.0,103.0,256.0,101.0,352.0,101.0" stroke="black" stroke-width="1" fill="none" />
<polyline points="248.0,36.0,200.0,84.0,200.0,81.0,340.0,81.0" stroke="black" stroke-width="1" fill="none" />
<polyline points="244.0,36.0,200.0,80.0,200.0,79.0,332.0,79.0" stroke="black" stroke-width="1" fill="none" />
<polyline points="240.0,36.0,200.0,76.0,200.0,77.0,336.0,77.0" stroke="black" stroke-width="1" fill="none" />
<polyline points="236.0,36.0,200.0,72.0,200.0,73.0,332.0,73.0" stroke="black" stroke-width="1" fill="none" />
<polyline points="248.0,33.0,236.0,33.0,232.0,36.0,204.0,64.0,204.0,63.0,320.0,63.0" stroke="black" stroke-width="1" fill="none" />
<polyline points="228.0,36.0,204.0,60.0,200.0,60.0,224.0,36.0,220.0,36.0,168.0,88.0" stroke="black" stroke-width="1" fill="none" />
<polyline points="160.0,92.0,216.0,36.0,216.0,39.0,264.0,39.0" stroke="black" stroke-width="1" fill="none" />
<polyline points="208.0,40.0,124.0,124.0,124.0,123.0,140.0,123.0,140.0,124.0,112.0,152.0,112.0,151.0,136.0,151.0,136.0,152.0,104.0,184.0,104.0,183.0,140.0,183.0,140.0,184.0,92.0,232.0,92.0,233.0,136.0,233.0,136.0,236.0,88.0,284.0,88.0,285.0,148.0,285.0,148.0,284.0,96.0,336.0,96.0,335.0,188.0,335.0,188.0,336.0,104.0,420.0,104.0,419.0,152.0,419.0,156.0,416.0,20.0,552.0,20.0,549.0,512.0,549.0,512.0,547.0,292.0,547.0" stroke="black" stroke-width="1" fill="none" />
<polyline points="148.0,432.0,8.0,572.0,8.0,569.0,512.0,569.0" stroke="black" stroke-width="1" fill="none" />
<polyline points="204.0,380.0,200.0,384.0" stroke="black" stroke-width="1" fill="none" />
<polyline points="204.0,376.0,188.0,392.0" stroke="black" stroke-width="1" fill="none" />
<polyline points="180.0,396.0,204.0,372.0,204.0,368.0,168.0,404.0" stroke="black" stroke-width="1" fill="none" />
<polyline points="148.0,428.0,12.0,564.0,12.0,561.0,512.0,561.0" stroke="black" stroke-width="1" fill="none" />
<polyline points="396.0,323.0,240.0,323.0,236.0,321.0,400.0,321.0" stroke="black" stroke-width="1" fill="none" />
<polyline points="396.0,327.0,236.0,327.0,232.0,325.0,400.0,325.0" stroke="black" stroke-width="1" fill="none" />
<polyline points="396.0,331.0,232.0,331.0,228.0,332.0,220.0,340.0,220.0,341.0,400.0,341.0" stroke="black" stroke-width="1" fill="none" />
<polyline points="400.0,329.0,228.0,329.0" stroke="black" stroke-width="1" fill="none" />
<polyline points="224.0,335.0,396.0,335.0,396.0,339.0,224.0,339.0,220.0,337.0,400.0,337.0" stroke="black" stroke-width="1" fill="none" />
<polyline points="404.0,353.0,220.0,353.0,220.0,349.0,400.0,349.0,400.0,345.0,220.0,345.0" stroke="black" stroke-width="1" fill="none" />
<polyline points="220.0,333.0,400.0,333.0" stroke="black" stroke-width="1" fill="none" />
<polyline points="228.0,276.0,224.0,280.0,220.0,276.0,212.0,284.0,216.0,284.0,228.0,272.0,232.0,273.0,220.0,273.0,216.0,276.0,208.0,284.0,208.0,280.0,204.0,284.0,204.0,280.0,200.0,284.0,200.0,280.0,196.0,284.0,196.0,283.0,216.0,283.0,216.0,279.0,228.0,279.0" stroke="black" stroke-width="1" fill="none" />
<polyline points="212.0,268.0,220.0,260.0,220.0,256.0,208.0,268.0" stroke="black" stroke-width="1" fill="none" />
<polyline points="200.0,272.0,220.0,252.0,216.0,252.0,196.0,272.0,196.0,268.0,212.0,252.0,208.0,252.0,192.0,268.0,192.0,267.0,212.0,267.0" stroke="black" stroke-width="1" fill="none" />
<polyline points="208.0,277.0,232.0,277.0" stroke="black" stroke-width="1" fill="none" />
<polyline points="208.0,297.0,204.0,297.0,200.0,297.0,196.0,297.0,192.0,293.0,212.0,293.0" stroke="black" stroke-width="1" fill="none" />
<polyline points="228.0,281.0,192.0,281.0,188.0,280.0,184.0,284.0,184.0,280.0,180.0,284.0" stroke="black" stroke-width="1" fill="none" />
<polyline points="172.0,281.0,188.0,281.0" stroke="black" stroke-width="1" fill="none" />
<polyline points="192.0,269.0,212.0,269.0" stroke="black" stroke-width="1" fill="none" />
<polyline points="216.0,255.0,200.0,255.0,196.0,256.0,188.0,264.0,188.0,263.0,216.0,263.0" stroke="black" stroke-width="1" fill="none" />
<polyline points="204.0,252.0,192.0,264.0,188.0,265.0,216.0,265.0" stroke="black" stroke-width="1" fill="none" />
<polyline points="216.0,249.0,204.0,249.0" stroke="black" stroke-width="1" fill="none" />
<polyline points="196.0,253.0,220.0,253.0" stroke="black" stroke-width="1" fill="none" />
<polyline points="220.0,259.0,196.0,259.0,192.0,257.0,220.0,257.0,220.0,261.0,184.0,261.0,180.0,257.0,188.0,257.0" stroke="black" stroke-width="1" fill="none" />
<polyline points="176.0,276.0,172.0,280.0,168.0,277.0,184.0,277.0" stroke="black" stroke-width="1" fill="none" />
<polyline points="160.0,300.0,104.0,356.0,104.0,355.0,200.0,355.0,200.0,356.0,52.0,504.0,52.0,501.0,116.0,501.0" stroke="black" stroke-width="1" fill="none" />
<polyline points="112.0,488.0,24.0,576.0,20.0,576.0,112.0,484.0,112.0,480.0,16.0,576.0" stroke="black" stroke-width="1" fill="none" />
<polyline points="12.0,571.0,512.0,571.0" stroke="black" stroke-width="1" fill="none" />
<polyline points="204.0,364.0,32.0,536.0,32.0,533.0,184.0,533.0" stroke="black" stroke-width="1" fill="none" />
<polyline points="156.0,415.0,108.0,415.0,104.0,416.0,188.0,332.0,184.0,332.0,104.0,412.0,104.0,411.0,160.0,411.0" stroke="black" stroke-width="1" fill="none" />
<polyline points="188.0,391.0,108.0,391.0,108.0,387.0,196.0,387.0" stroke="black" stroke-width="1" fill="none" />
<polyline points="200.0,360.0,48.0,512.0,48.0,509.0,124.0,509.0" stroke="black" stroke-width="1" fill="none" />
<polyline points="136.0,459.0,84.0,459.0,84.0,455.0,140.0,455.0" stroke="black" stroke-width="1" fill="none" />
<polyline points="148.0,427.0,104.0,427.0,104.0,423.0,152.0,423.0" stroke="black" stroke-width="1" fill="none" />
<polyline points="156.0,417.0,104.0,417.0,104.0,413.0,160.0,413.0" stroke="black" stroke-width="1" fill="none" />
<polyline points="200.0,383.0,108.0,383.0,108.0,380.0,172.0,316.0,168.0,316.0,108.0,376.0,108.0,375.0,204.0,375.0" stroke="black" stroke-width="1" fill="none" />
<polyline points="204.0,360.0,40.0,524.0,40.0,521.0,148.0,521.0" stroke="black" stroke-width="1" fill="none" />
<polyline points="144.0,435.0,100.0,435.0,100.0,431.0,148.0,431.0" stroke="black" stroke-width="1" fill="none" />
<polyline points="100.0,428.0,192.0,336.0,196.0,336.0,96.0,436.0,96.0,433.0,148.0,433.0" stroke="black" stroke-width="1" fill="none" />
<polyline points="164.0,409.0,104.0,409.0,104.0,408.0,184.0,328.0,180.0,328.0,104.0,404.0,104.0,403.0,168.0,403.0" stroke="black" stroke-width="1" fill="none" />
<polyline points="200.0,352.0,64.0,488.0,64.0,485.0,112.0,485.0" stroke="black" stroke-width="1" fill="none" />
<polyline points="128.0,463.0,80.0,463.0,80.0,460.0,204.0,336.0,200.0,336.0,92.0,444.0,92.0,441.0,148.0,441.0" stroke="black" stroke-width="1" fill="none" />
<polyline points="164.0,407.0,104.0,407.0,104.0,405.0,168.0,405.0" stroke="black" stroke-width="1" fill="none" />
<polyline points="204.0,379.0,108.0,379.0,104.0,377.0,208.0,377.0" stroke="black" stroke-width="1" fill="none" />
<polyline points="200.0,348.0,68.0,480.0,68.0,477.0,116.0,477.0" stroke="black" stroke-width="1" fill="none" />
<polyline points="140.0,451.0,88.0,451.0,84.0,449.0,144.0,449.0" stroke="black" stroke-width="1" fill="none" />
<polyline points="152.0,425.0,100.0,425.0,100.0,421.0,152.0,421.0" stroke="black" stroke-width="1" fill="none" />
<polyline points="176.0,401.0,104.0,401.0,104.0,400.0,180.0,324.0,176.0,324.0,104.0,396.0,104.0,395.0,184.0,395.0" stroke="black" stroke-width="1" fill="none" />
<polyline points="204.0,344.0,208.0,340.0,208.0,336.0,72.0,472.0,72.0,469.0,120.0,469.0" stroke="black" stroke-width="1" fill="none" />
<polyline points="96.0,443.0,144.0,443.0,144.0,439.0,96.0,439.0,92.0,437.0,148.0,437.0" stroke="black" stroke-width="1" fill="none" />
<polyline points="176.0,399.0,104.0,399.0,104.0,397.0,180.0,397.0" stroke="black" stroke-width="1" fill="none" />
<polyline points="204.0,371.0,108.0,371.0,108.0,372.0,168.0,312.0,168.0,308.0,108.0,368.0,108.0,367.0,204.0,367.0" stroke="black" stroke-width="1" fill="none" />
<polyline points="176.0,320.0,104.0,392.0,104.0,393.0,188.0,393.0" stroke="black" stroke-width="1" fill="none" />
<polyline points="172.0,320.0,104.0,388.0,104.0,389.0,192.0,389.0" stroke="black" stroke-width="1" fill="none" />
<polyline points="164.0,308.0,104.0,368.0,104.0,369.0,208.0,369.0" stroke="black" stroke-width="1" fill="none" />
<polyline points="164.0,304.0,104.0,364.0,104.0,365.0,204.0,365.0" stroke="black" stroke-width="1" fill="none" />
<polyline points="160.0,304.0,104.0,360.0,104.0,359.0,200.0,359.0" stroke="black" stroke-width="1" fill="none" />
<polyline points="156.0,300.0,104.0,352.0,104.0,351.0,200.0,351.0" stroke="black" stroke-width="1" fill="none" />
<polyline points="156.0,296.0,100.0,352.0,100.0,353.0,200.0,353.0" stroke="black" stroke-width="1" fill="none" />
<polyline points="152.0,296.0,100.0,348.0,100.0,347.0,200.0,347.0" stroke="black" stroke-width="1" fill="none" />
<polyline points="152.0,292.0,100.0,344.0,100.0,343.0,204.0,343.0" stroke="black" stroke-width="1" fill="none" />
<polyline points="152.0,288.0,100.0,340.0,100.0,339.0,192.0,339.0" stroke="black" stroke-width="1" fill="none" />
<polyline points="148.0,288.0,96.0,340.0,96.0,341.0,208.0,341.0" stroke="black" stroke-width="1" fill="none" />
<polyline points="148.0,280.0,96.0,332.0,96.0,331.0,180.0,331.0" stroke="black" stroke-width="1" fill="none" />
<polyline points="144.0,280.0,92.0,332.0,92.0,333.0,192.0,333.0" stroke="black" stroke-width="1" fill="none" />
<polyline points="144.0,276.0,92.0,328.0,92.0,327.0,176.0,327.0" stroke="black" stroke-width="1" fill="none" />
<polyline points="144.0,272.0,92.0,324.0,92.0,323.0,172.0,323.0" stroke="black" stroke-width="1" fill="none" />
<polyline points="144.0,268.0,92.0,320.0,92.0,319.0,172.0,319.0" stroke="black" stroke-width="1" fill="none" />
<polyline points="144.0,264.0,88.0,320.0,88.0,321.0,176.0,321.0" stroke="black" stroke-width="1" fill="none" />
<polyline points="144.0,260.0,88.0,316.0,88.0,315.0,168.0,315.0" stroke="black" stroke-width="1" fill="none" />
<polyline points="140.0,260.0,88.0,312.0,88.0,313.0,172.0,313.0" stroke="black" stroke-width="1" fill="none" />
<polyline points="140.0,256.0,88.0,308.0,88.0,309.0,168.0,309.0" stroke="black" stroke-width="1" fill="none" />
<polyline points="140.0,252.0,88.0,304.0,88.0,305.0,164.0,305.0" stroke="black" stroke-width="1" fill="none" />
<polyline points="136.0,252.0,88.0,300.0,88.0,301.0,164.0,301.0" stroke="black" stroke-width="1" fill="none" />
<polyline points="136.0,248.0,88.0,296.0,88.0,297.0,160.0,297.0" stroke="black" stroke-width="1" fill="none" />
<polyline points="136.0,244.0,88.0,292.0,88.0,293.0,156.0,293.0" stroke="black" stroke-width="1" fill="none" />
<polyline points="136.0,240.0,88.0,288.0,88.0,289.0,152.0,289.0" stroke="black" stroke-width="1" fill="none" />
<polyline points="132.0,236.0,88.0,280.0,88.0,281.0,148.0,281.0" stroke="black" stroke-width="1" fill="none" />
<polyline points="132.0,232.0,88.0,276.0,88.0,277.0,148.0,277.0" stroke="black" stroke-width="1" fill="none" />
<polyline points="132.0,228.0,88.0,272.0,88.0,273.0,144.0,273.0" stroke="black" stroke-width="1" fill="none" />
<polyline points="132.0,224.0,88.0,268.0,88.0,269.0,144.0,269.0" stroke="black" stroke-width="1" fill="none" />
<polyline points="132.0,220.0,88.0,264.0,88.0,265.0,144.0,265.0" stroke="black" stroke-width="1" fill="none" />
<polyline points="132.0,216.0,88.0,260.0,88.0,261.0,144.0,261.0" stroke="black" stroke-width="1" fill="none" />
<polyline points="132.0,212.0,88.0,256.0,88.0,257.0,144.0,257.0" stroke="black" stroke-width="1" fill="none" />
<polyline points="132.0,208.0,88.0,252.0,88.0,253.0,140.0,253.0" stroke="black" stroke-width="1" fill="none" />
<polyline points="132.0,215.0,100.0,215.0,100.0,211.0,132.0,211.0" stroke="black" stroke-width="1" fill="none" />
<polyline points="132.0,204.0,88.0,248.0,88.0,249.0,140.0,249.0" stroke="black" stroke-width="1" fill="none" />
<polyline points="132.0,207.0,100.0,207.0,100.0,203.0,132.0,203.0" stroke="black" stroke-width="1" fill="none" />
<polyline points="140.0,197.0,148.0,197.0,148.0,196.0,156.0,188.0,160.0,188.0,156.0,192.0,160.0,192.0,164.0,188.0,168.0,188.0,160.0,196.0,160.0,195.0,176.0,195.0,176.0,192.0,172.0,196.0,172.0,199.0,176.0,199.0,172.0,200.0,180.0,192.0,176.0,188.0,168.0,196.0,164.0,196.0,172.0,188.0,172.0,184.0,176.0,180.0,176.0,185.0,184.0,185.0" stroke="black" stroke-width="1" fill="none" />
<polyline points="204.0,185.0,224.0,185.0" stroke="black" stroke-width="1" fill="none" />
<polyline points="224.0,176.0,204.0,196.0,204.0,195.0,216.0,195.0,216.0,192.0,208.0,200.0,204.0,200.0,228.0,176.0,224.0,172.0,204.0,192.0,204.0,191.0,216.0,191.0,220.0,187.0,208.0,187.0,208.0,183.0,224.0,183.0" stroke="black" stroke-width="1" fill="none" />
<polyline points="216.0,179.0,232.0,179.0" stroke="black" stroke-width="1" fill="none" />
<polyline points="216.0,176.0,204.0,188.0,204.0,189.0,220.0,189.0" stroke="black" stroke-width="1" fill="none" />
<polyline points="212.0,199.0,204.0,199.0,204.0,197.0,216.0,197.0" stroke="black" stroke-width="1" fill="none" />
<polyline points="208.0,201.0,204.0,201.0" stroke="black" stroke-width="1" fill="none" />
<polyline points="204.0,193.0,216.0,193.0" stroke="black" stroke-width="1" fill="none" />
<polyline points="204.0,181.0,232.0,181.0" stroke="black" stroke-width="1" fill="none" />
<polyline points="228.0,173.0,216.0,173.0" stroke="black" stroke-width="1" fill="none" />
<polyline points="208.0,177.0,380.0,177.0" stroke="black" stroke-width="1" fill="none" />
<polyline points="340.0,85.0,208.0,85.0" stroke="black" stroke-width="1" fill="none" />
<polyline points="204.0,75.0,328.0,75.0" stroke="black" stroke-width="1" fill="none" />
<polyline points="276.0,37.0,208.0,37.0,204.0,40.0,128.0,116.0,128.0,115.0,140.0,115.0,140.0,120.0,112.0,148.0,112.0,149.0,136.0,149.0,136.0,148.0,104.0,180.0,104.0,181.0,180.0,181.0" stroke="black" stroke-width="1" fill="none" />
<polyline points="180.0,197.0,160.0,197.0,160.0,193.0,180.0,193.0" stroke="black" stroke-width="1" fill="none" />
<polyline points="176.0,201.0,168.0,201.0,164.0,205.0,172.0,205.0" stroke="black" stroke-width="1" fill="none" />
<polyline points="172.0,191.0,160.0,191.0" stroke="black" stroke-width="1" fill="none" />
<polyline points="160.0,185.0,172.0,185.0" stroke="black" stroke-width="1" fill="none" />
<polyline points="156.0,180.0,152.0,184.0,152.0,180.0,88.0,244.0,88.0,245.0,136.0,245.0" stroke="black" stroke-width="1" fill="none" />
<polyline points="132.0,231.0,96.0,231.0,96.0,227.0,132.0,227.0" stroke="black" stroke-width="1" fill="none" />
<polyline points="144.0,196.0,148.0,192.0,148.0,188.0,140.0,196.0" stroke="black" stroke-width="1" fill="none" />
<polyline points="144.0,184.0,92.0,236.0,92.0,235.0,132.0,235.0" stroke="black" stroke-width="1" fill="none" />
<polyline points="96.0,224.0,140.0,180.0,140.0,176.0,96.0,220.0,96.0,219.0,132.0,219.0" stroke="black" stroke-width="1" fill="none" />
<polyline points="96.0,216.0,136.0,176.0,136.0,172.0,96.0,212.0,96.0,213.0,136.0,213.0" stroke="black" stroke-width="1" fill="none" />
<polyline points="100.0,200.0,136.0,164.0,136.0,160.0,100.0,196.0,100.0,195.0,148.0,195.0" stroke="black" stroke-width="1" fill="none" />
<polyline points="156.0,177.0,172.0,177.0" stroke="black" stroke-width="1" fill="none" />
<polyline points="136.0,168.0,96.0,208.0,96.0,209.0,136.0,209.0" stroke="black" stroke-width="1" fill="none" />
<polyline points="136.0,179.0,108.0,179.0,108.0,175.0,136.0,175.0" stroke="black" stroke-width="1" fill="none" />
<polyline points="136.0,156.0,100.0,192.0,100.0,193.0,152.0,193.0" stroke="black" stroke-width="1" fill="none" />
<polyline points="136.0,163.0,112.0,163.0,112.0,159.0,136.0,159.0" stroke="black" stroke-width="1" fill="none" />
<polyline points="140.0,140.0,108.0,172.0,108.0,171.0,136.0,171.0" stroke="black" stroke-width="1" fill="none" />
<polyline points="108.0,168.0,140.0,136.0,140.0,132.0,108.0,164.0,108.0,165.0,136.0,165.0" stroke="black" stroke-width="1" fill="none" />
<polyline points="112.0,156.0,140.0,128.0" stroke="black" stroke-width="1" fill="none" />
<polyline points="140.0,119.0,128.0,119.0,124.0,117.0,144.0,117.0,144.0,112.0,116.0,140.0,116.0,139.0,140.0,139.0" stroke="black" stroke-width="1" fill="none" />
<polyline points="140.0,131.0,124.0,131.0,124.0,127.0,140.0,127.0" stroke="black" stroke-width="1" fill="none" />
<polyline points="144.0,111.0,132.0,111.0,132.0,108.0,200.0,40.0,204.0,43.0,280.0,43.0" stroke="black" stroke-width="1" fill="none" />
<polyline points="328.0,71.0,204.0,71.0,204.0,67.0,324.0,67.0,328.0,69.0,200.0,69.0,200.0,65.0,328.0,65.0" stroke="black" stroke-width="1" fill="none" />
<polyline points="196.0,64.0,172.0,88.0" stroke="black" stroke-width="1" fill="none" />
<polyline points="184.0,84.0,192.0,76.0,192.0,72.0,180.0,84.0" stroke="black" stroke-width="1" fill="none" />
<polyline points="192.0,67.0,160.0,67.0,156.0,65.0,196.0,65.0" stroke="black" stroke-width="1" fill="none" />
<polyline points="184.0,51.0,304.0,51.0" stroke="black" stroke-width="1" fill="none" />
<polyline points="192.0,44.0,132.0,104.0,132.0,105.0,148.0,105.0,148.0,104.0,120.0,132.0,120.0,129.0,140.0,129.0" stroke="black" stroke-width="1" fill="none" />
<polyline points="144.0,113.0,128.0,113.0,128.0,109.0,148.0,109.0" stroke="black" stroke-width="1" fill="none" />
<polyline points="148.0,103.0,136.0,103.0,136.0,99.0,148.0,99.0,152.0,95.0,140.0,95.0,136.0,96.0,184.0,48.0,184.0,45.0,300.0,45.0" stroke="black" stroke-width="1" fill="none" />
<polyline points="288.0,41.0,192.0,41.0" stroke="black" stroke-width="1" fill="none" />
<polyline points="188.0,47.0,292.0,47.0" stroke="black" stroke-width="1" fill="none" />
<polyline points="308.0,49.0,180.0,49.0,176.0,52.0,144.0,84.0,144.0,81.0,188.0,81.0" stroke="black" stroke-width="1" fill="none" />
<polyline points="172.0,59.0,316.0,59.0,312.0,55.0,176.0,55.0,172.0,53.0,316.0,53.0,320.0,57.0,168.0,57.0" stroke="black" stroke-width="1" fill="none" />
<polyline points="164.0,63.0,196.0,63.0" stroke="black" stroke-width="1" fill="none" />
<polyline points="160.0,61.0,324.0,61.0" stroke="black" stroke-width="1" fill="none" />
<polyline points="192.0,71.0,156.0,71.0,152.0,69.0,196.0,69.0" stroke="black" stroke-width="1" fill="none" />
<polyline points="188.0,79.0,152.0,79.0,152.0,75.0,192.0,75.0,192.0,73.0,152.0,73.0,148.0,77.0,192.0,77.0" stroke="black" stroke-width="1" fill="none" />
<polyline points="184.0,83.0,148.0,83.0,144.0,87.0,172.0,87.0" stroke="black" stroke-width="1" fill="none" />
<polyline points="164.0,91.0,144.0,91.0,140.0,89.0,168.0,89.0" stroke="black" stroke-width="1" fill="none" />
<polyline points="180.0,85.0,140.0,85.0" stroke="black" stroke-width="1" fill="none" />
<polyline points="136.0,93.0,160.0,93.0" stroke="black" stroke-width="1" fill="none" />
<polyline points="144.0,107.0,132.0,107.0" stroke="black" stroke-width="1" fill="none" />
<polyline points="132.0,101.0,152.0,101.0,152.0,97.0,132.0,97.0" stroke="black" stroke-width="1" fill="none" />
<polyline points="124.0,121.0,144.0,121.0" stroke="black" stroke-width="1" fill="none" />
<polyline points="140.0,135.0,120.0,135.0,116.0,133.0,140.0,133.0" stroke="black" stroke-width="1" fill="none" />
<polyline points="140.0,125.0,120.0,125.0" stroke="black" stroke-width="1" fill="none" />
<polyline points="116.0,137.0,140.0,137.0" stroke="black" stroke-width="1" fill="none" />
<polyline points="136.0,147.0,116.0,147.0,116.0,143.0,136.0,143.0" stroke="black" stroke-width="1" fill="none" />
<polyline points="136.0,155.0,112.0,155.0,108.0,153.0,136.0,153.0" stroke="black" stroke-width="1" fill="none" />
<polyline points="140.0,145.0,112.0,145.0,112.0,141.0,140.0,141.0" stroke="black" stroke-width="1" fill="none" />
<polyline points="136.0,167.0,108.0,167.0,104.0,169.0,136.0,169.0" stroke="black" stroke-width="1" fill="none" />
<polyline points="136.0,161.0,108.0,161.0,108.0,157.0,136.0,157.0" stroke="black" stroke-width="1" fill="none" />
<polyline points="148.0,187.0,104.0,187.0,104.0,191.0,148.0,191.0" stroke="black" stroke-width="1" fill="none" />
<polyline points="140.0,177.0,104.0,177.0,104.0,173.0,140.0,173.0" stroke="black" stroke-width="1" fill="none" />
<polyline points="136.0,199.0,100.0,199.0,96.0,197.0,136.0,197.0" stroke="black" stroke-width="1" fill="none" />
<polyline points="100.0,189.0,184.0,189.0" stroke="black" stroke-width="1" fill="none" />
<polyline points="152.0,185.0,100.0,185.0" stroke="black" stroke-width="1" fill="none" />
<polyline points="96.0,201.0,136.0,201.0" stroke="black" stroke-width="1" fill="none" />
<polyline points="132.0,223.0,96.0,223.0,92.0,221.0,136.0,221.0" stroke="black" stroke-width="1" fill="none" />
<polyline points="136.0,205.0,96.0,205.0" stroke="black" stroke-width="1" fill="none" />
<polyline points="92.0,217.0,136.0,217.0" stroke="black" stroke-width="1" fill="none" />
<polyline points="140.0,259.0,92.0,259.0,92.0,255.0,140.0,255.0" stroke="black" stroke-width="1" fill="none" />
<polyline points="156.0,299.0,92.0,299.0,92.0,295.0,152.0,295.0" stroke="black" stroke-width="1" fill="none" />
<polyline points="188.0,329.0,92.0,329.0,92.0,325.0,180.0,325.0" stroke="black" stroke-width="1" fill="none" />
<polyline points="200.0,363.0,108.0,363.0,104.0,361.0,204.0,361.0" stroke="black" stroke-width="1" fill="none" />
<polyline points="200.0,385.0,104.0,385.0,104.0,381.0,204.0,381.0" stroke="black" stroke-width="1" fill="none" />
<polyline points="208.0,373.0,104.0,373.0" stroke="black" stroke-width="1" fill="none" />
<polyline points="104.0,357.0,204.0,357.0" stroke="black" stroke-width="1" fill="none" />
<polyline points="200.0,349.0,100.0,349.0,100.0,345.0,204.0,345.0" stroke="black" stroke-width="1" fill="none" />
<polyline points="148.0,429.0,96.0,429.0" stroke="black" stroke-width="1" fill="none" />
<polyline points="88.0,445.0,144.0,445.0,144.0,447.0,92.0,447.0" stroke="black" stroke-width="1" fill="none" />
<polyline points="84.0,453.0,144.0,453.0,144.0,457.0,80.0,457.0,76.0,461.0,132.0,461.0" stroke="black" stroke-width="1" fill="none" />
<polyline points="116.0,471.0,76.0,471.0,76.0,467.0,120.0,467.0" stroke="black" stroke-width="1" fill="none" />
<polyline points="128.0,465.0,76.0,465.0" stroke="black" stroke-width="1" fill="none" />
<polyline points="72.0,475.0,116.0,475.0,112.0,479.0,72.0,479.0,68.0,483.0,112.0,483.0,112.0,487.0,68.0,487.0,64.0,491.0,112.0,491.0" stroke="black" stroke-width="1" fill="none" />
<polyline points="116.0,473.0,68.0,473.0" stroke="black" stroke-width="1" fill="none" />
<polyline points="64.0,481.0,116.0,481.0" stroke="black" stroke-width="1" fill="none" />
<polyline points="112.0,499.0,60.0,499.0,60.0,495.0,112.0,495.0,112.0,493.0,60.0,493.0,60.0,489.0,112.0,489.0" stroke="black" stroke-width="1" fill="none" />
<polyline points="112.0,503.0,56.0,503.0,52.0,507.0,116.0,507.0" stroke="black" stroke-width="1" fill="none" />
<polyline points="116.0,497.0,56.0,497.0" stroke="black" stroke-width="1" fill="none" />
<polyline points="48.0,505.0,120.0,505.0" stroke="black" stroke-width="1" fill="none" />
<polyline points="120.0,511.0,52.0,511.0,48.0,515.0,124.0,515.0" stroke="black" stroke-width="1" fill="none" />
<polyline points="140.0,523.0,44.0,523.0,44.0,519.0,132.0,519.0" stroke="black" stroke-width="1" fill="none" />
<polyline points="128.0,513.0,44.0,513.0,40.0,517.0,136.0,517.0" stroke="black" stroke-width="1" fill="none" />
<polyline points="152.0,527.0,40.0,527.0,36.0,525.0,160.0,525.0" stroke="black" stroke-width="1" fill="none" />
<polyline points="176.0,535.0,36.0,535.0,36.0,531.0,164.0,531.0" stroke="black" stroke-width="1" fill="none" />
<polyline points="172.0,529.0,36.0,529.0" stroke="black" stroke-width="1" fill="none" />
<polyline points="32.0,539.0,188.0,539.0" stroke="black" stroke-width="1" fill="none" />
<polyline points="200.0,543.0,28.0,543.0,24.0,541.0,212.0,541.0" stroke="black" stroke-width="1" fill="none" />
<polyline points="192.0,537.0,28.0,537.0" stroke="black" stroke-width="1" fill="none" />
<polyline points="24.0,545.0,512.0,545.0" stroke="black" stroke-width="1" fill="none" />
<polyline points="212.0,337.0,96.0,337.0" stroke="black" stroke-width="1" fill="none" />
<polyline points="88.0,317.0,176.0,317.0" stroke="black" stroke-width="1" fill="none" />
<polyline points="164.0,311.0,92.0,311.0,92.0,307.0,164.0,307.0,160.0,303.0,92.0,303.0" stroke="black" stroke-width="1" fill="none" />
<polyline points="92.0,291.0,148.0,291.0,148.0,287.0,92.0,287.0,92.0,283.0,144.0,283.0,144.0,279.0,92.0,279.0,92.0,275.0,144.0,275.0,144.0,271.0,92.0,271.0,92.0,267.0,140.0,267.0,140.0,263.0,92.0,263.0" stroke="black" stroke-width="1" fill="none" />
<polyline points="92.0,251.0,136.0,251.0,136.0,247.0,92.0,247.0,92.0,243.0,136.0,243.0,132.0,239.0,92.0,239.0,88.0,237.0,136.0,237.0" stroke="black" stroke-width="1" fill="none" />
<polyline points="136.0,229.0,92.0,229.0,92.0,225.0,136.0,225.0" stroke="black" stroke-width="1" fill="none" />
<polyline points="136.0,241.0,88.0,241.0" stroke="black" stroke-width="1" fill="none" />
<polyline points="24.0,547.0,224.0,547.0" stroke="black" stroke-width="1" fill="none" />
<polyline points="24.0,551.0,512.0,551.0,512.0,555.0,20.0,555.0,16.0,553.0,512.0,553.0" stroke="black" stroke-width="1" fill="none" />
<polyline points="512.0,563.0,16.0,563.0,16.0,559.0,512.0,559.0" stroke="black" stroke-width="1" fill="none" />
<polyline points="512.0,567.0,12.0,567.0,8.0,565.0,512.0,565.0" stroke="black" stroke-width="1" fill="none" />
<polyline points="512.0,557.0,12.0,557.0" stroke="black" stroke-width="1" fill="none" />
</svg>