<svg xmlns="http://www.w3.org/2000/svg" height="288px" width="512px" version="1.1"><polyline points="193.5,0.0,180.0,12.0,171.0,24.0,165.0,36.0,157.5,48.0,151.5,61.5,141.0,73.5,132.0,85.5,126.0,97.5,123.0,109.5,120.0,121.5,120.0,133.5,121.5,145.5,121.5,157.5,114.0,169.5,109.5,181.5,114.0,187.5,121.5,187.5,130.5,184.5,132.0,183.0,127.5,180.0,129.0,168.0,123.0,154.5,111.0,174.0" stroke="black" stroke-width="1" fill="none" />
<polyline points="102.0,165.0,103.5,153.0" stroke="black" stroke-width="1" fill="none" />
<polyline points="90.0,153.0,99.0,165.0,105.0,165.0,106.5,177.0,106.5,189.0" stroke="black" stroke-width="1" fill="none" />
<polyline points="70.5,162.0,81.0,150.0" stroke="black" stroke-width="1" fill="none" />
<polyline points="87.0,151.5,75.0,159.0,63.0,172.5,58.5,166.5,51.0,163.5,57.0,151.5,57.0,139.5,51.0,127.5,51.0,126.0,39.0,123.0,27.0,118.5,16.5,127.5,4.5,133.5" stroke="black" stroke-width="1" fill="none" />
<polyline points="40.5,145.5,40.5,157.5,39.0,169.5,42.0,181.5" stroke="black" stroke-width="1" fill="none" />
<polyline points="112.5,256.5,109.5,268.5,111.0,280.5" stroke="black" stroke-width="1" fill="none" />
<polyline points="171.0,234.0,184.5,265.5,196.5,274.5,208.5,285.0" stroke="black" stroke-width="1" fill="none" />
<polyline points="226.5,268.5,238.5,271.5" stroke="black" stroke-width="1" fill="none" />
<polyline points="244.5,261.0,232.5,261.0,220.5,261.0" stroke="black" stroke-width="1" fill="none" />
<polyline points="195.0,229.5,207.0,243.0,219.0,246.0,231.0,244.5,243.0,246.0,255.0,244.5,267.0,243.0" stroke="black" stroke-width="1" fill="none" />
<polyline points="250.5,229.5,238.5,234.0,226.5,232.5,223.5,231.0,208.5,219.0,214.5,217.5,210.0,219.0,207.0,217.5,219.0,220.5,231.0,216.0,237.0,211.5" stroke="black" stroke-width="1" fill="none" />
<polyline points="249.0,231.0,258.0,219.0,256.5,207.0,253.5,195.0" stroke="black" stroke-width="1" fill="none" />
<polyline points="271.5,166.5,283.5,166.5,295.5,165.0,307.5,159.0" stroke="black" stroke-width="1" fill="none" />
<polyline points="300.0,142.5,288.0,138.0,276.0,139.5,264.0,142.5" stroke="black" stroke-width="1" fill="none" />
<polyline points="270.0,133.5,252.0,145.5,255.0,154.5,253.5,166.5" stroke="black" stroke-width="1" fill="none" />
<polyline points="253.5,153.0,265.5,147.0,277.5,148.5,289.5,147.0,295.5,150.0,307.5,150.0,319.5,147.0" stroke="black" stroke-width="1" fill="none" />
<polyline points="327.0,139.5,307.5,151.5" stroke="black" stroke-width="1" fill="none" />
<polyline points="262.5,117.0,250.5,121.5" stroke="black" stroke-width="1" fill="none" />
<polyline points="244.5,130.5,240.0,142.5,238.5,154.5,235.5,166.5,240.0,171.0" stroke="black" stroke-width="1" fill="none" />
<polyline points="249.0,151.5,261.0,138.0,273.0,133.5,285.0,133.5,297.0,135.0" stroke="black" stroke-width="1" fill="none" />
<polyline points="204.0,145.5,192.0,148.5" stroke="black" stroke-width="1" fill="none" />
<polyline points="208.5,151.5,202.5,156.0,190.5,160.5,178.5,163.5" stroke="black" stroke-width="1" fill="none" />
<polyline points="186.0,165.0,198.0,165.0" stroke="black" stroke-width="1" fill="none" />
<polyline points="220.5,156.0,213.0,148.5,217.5,141.0,210.0,129.0,201.0,135.0,189.0,135.0,177.0,139.5" stroke="black" stroke-width="1" fill="none" />
<polyline points="166.5,142.5,178.5,150.0,180.0,142.5,192.0,139.5,204.0,141.0,216.0,147.0" stroke="black" stroke-width="1" fill="none" />
<polyline points="210.0,127.5,198.0,124.5,186.0,130.5,174.0,133.5,162.0,121.5" stroke="black" stroke-width="1" fill="none" />
<polyline points="139.5,135.0,135.0,123.0,133.5,111.0,136.5,99.0,142.5,87.0,150.0,75.0,145.5,85.5,133.5,105.0" stroke="black" stroke-width="1" fill="none" />
<polyline points="124.5,100.5,136.5,79.5,148.5,66.0,157.5,48.0,169.5,27.0,181.5,12.0,193.5,1.5" stroke="black" stroke-width="1" fill="none" />
<polyline points="198.0,28.5,177.0,40.5,174.0,51.0,186.0,46.5,184.5,46.5,169.5,58.5,163.5,70.5,162.0,82.5,162.0,94.5,160.5,106.5,160.5,118.5,160.5,130.5,162.0,142.5,160.5,154.5,160.5,166.5,160.5,178.5,162.0,190.5,165.0,202.5,166.5,214.5,168.0,226.5,172.5,238.5,177.0,250.5,180.0,262.5,195.0,274.5" stroke="black" stroke-width="1" fill="none" />
<polyline points="196.5,228.0,202.5,240.0,204.0,255.0,202.5,249.0,214.5,250.5,226.5,252.0,238.5,253.5,250.5,252.0,262.5,250.5,274.5,243.0" stroke="black" stroke-width="1" fill="none" />
<polyline points="442.5,193.5,454.5,196.5,466.5,192.0,478.5,201.0,490.5,201.0,502.5,202.5" stroke="black" stroke-width="1" fill="none" />
<polyline points="501.0,189.0,489.0,189.0,477.0,189.0,465.0,187.5,453.0,187.5,441.0,186.0" stroke="black" stroke-width="1" fill="none" />
<polyline points="486.0,138.0,474.0,126.0,462.0,123.0,454.5,115.5,450.0,102.0,448.5,90.0,438.0,82.5" stroke="black" stroke-width="1" fill="none" />
<polyline points="423.0,69.0,411.0,43.5,399.0,25.5,387.0,12.0,375.0,1.5,375.0,0.0,385.5,12.0,396.0,24.0,405.0,36.0,412.5,48.0,418.5,60.0,423.0,72.0,427.5,84.0,430.5,96.0,432.0,108.0,433.5,120.0,435.0,132.0,436.5,144.0,436.5,156.0,438.0,168.0,439.5,180.0,441.0,192.0,444.0,204.0,448.5,216.0,448.5,228.0,448.5,240.0,450.0,252.0" stroke="black" stroke-width="1" fill="none" />
<polyline points="439.5,129.0,441.0,117.0" stroke="black" stroke-width="1" fill="none" />
<polyline points="306.0,43.5,294.0,40.5,292.5,31.5,280.5,27.0,268.5,25.5,256.5,24.0,244.5,24.0,232.5,16.5,225.0,25.5,219.0,24.0,207.0,27.0,195.0,30.0,183.0,34.5,171.0,46.5" stroke="black" stroke-width="1" fill="none" />
<polyline points="0.0,137.0,32.0,137.0" stroke="black" stroke-width="1" fill="none" />
<polyline points="28.0,145.0,24.0,145.0" stroke="black" stroke-width="1" fill="none" />
<polyline points="24.0,133.0,16.0,133.0" stroke="black" stroke-width="1" fill="none" />
<polyline points="20.0,145.0,0.0,145.0,0.0,141.0,32.0,141.0" stroke="black" stroke-width="1" fill="none" />
<polyline points="44.0,153.0,52.0,153.0,52.0,149.0,56.0,149.0,56.0,145.0,52.0,145.0,52.0,141.0,56.0,141.0" stroke="black" stroke-width="1" fill="none" />
<polyline points="52.0,161.0,40.0,161.0,40.0,157.0,52.0,157.0" stroke="black" stroke-width="1" fill="none" />
<polyline points="56.0,169.0,60.0,169.0" stroke="black" stroke-width="1" fill="none" />
<polyline points="68.0,173.0,84.0,173.0,88.0,177.0,108.0,177.0,112.0,177.0,164.0,177.0,160.0,176.0,108.0,228.0" stroke="black" stroke-width="1" fill="none" />
<polyline points="120.0,252.0,164.0,208.0,164.0,204.0,112.0,256.0,116.0,256.0,112.0,260.0,112.0,264.0,164.0,212.0,168.0,212.0,120.0,260.0,120.0,264.0,168.0,216.0,168.0,220.0,120.0,268.0,116.0,268.0,112.0,272.0,116.0,272.0,112.0,276.0" stroke="black" stroke-width="1" fill="none" />
<polyline points="124.0,276.0,168.0,232.0,168.0,228.0,116.0,280.0" stroke="black" stroke-width="1" fill="none" />
<polyline points="128.0,288.0,172.0,244.0,172.0,240.0,128.0,284.0" stroke="black" stroke-width="1" fill="none" />
<polyline points="140.0,288.0,176.0,252.0,176.0,248.0,136.0,288.0" stroke="black" stroke-width="1" fill="none" />
<polyline points="148.0,288.0,180.0,256.0,176.0,256.0,144.0,288.0" stroke="black" stroke-width="1" fill="none" />
<polyline points="148.0,283.0,156.0,283.0,160.0,283.0,164.0,283.0,164.0,288.0,184.0,268.0,184.0,264.0,160.0,288.0" stroke="black" stroke-width="1" fill="none" />
<polyline points="168.0,288.0,188.0,268.0,188.0,272.0,172.0,288.0,176.0,288.0,192.0,272.0,192.0,276.0,180.0,288.0,184.0,288.0,196.0,276.0,196.0,280.0,188.0,288.0,192.0,288.0,200.0,280.0,200.0,284.0,196.0,288.0,200.0,288.0,204.0,284.0" stroke="black" stroke-width="1" fill="none" />
<polyline points="196.0,287.0,192.0,287.0" stroke="black" stroke-width="1" fill="none" />
<polyline points="180.0,287.0,176.0,287.0" stroke="black" stroke-width="1" fill="none" />
<polyline points="172.0,275.0,184.0,275.0,184.0,271.0,180.0,271.0" stroke="black" stroke-width="1" fill="none" />
<polyline points="180.0,264.0,156.0,288.0,152.0,288.0,180.0,260.0" stroke="black" stroke-width="1" fill="none" />
<polyline points="180.0,267.0,172.0,267.0,168.0,263.0,180.0,263.0,176.0,259.0,172.0,259.0,172.0,255.0,168.0,255.0,168.0,251.0,172.0,251.0,172.0,247.0,168.0,247.0" stroke="black" stroke-width="1" fill="none" />
<polyline points="176.0,244.0,132.0,288.0" stroke="black" stroke-width="1" fill="none" />
<polyline points="128.0,280.0,172.0,236.0,172.0,232.0,128.0,276.0" stroke="black" stroke-width="1" fill="none" />
<polyline points="140.0,275.0,148.0,275.0,144.0,279.0,156.0,279.0,156.0,275.0,160.0,275.0,160.0,279.0,164.0,279.0" stroke="black" stroke-width="1" fill="none" />
<polyline points="164.0,267.0,168.0,267.0" stroke="black" stroke-width="1" fill="none" />
<polyline points="160.0,271.0,152.0,271.0,152.0,267.0,156.0,267.0,160.0,263.0,148.0,263.0,148.0,259.0,156.0,259.0" stroke="black" stroke-width="1" fill="none" />
<polyline points="156.0,251.0,160.0,251.0" stroke="black" stroke-width="1" fill="none" />
<polyline points="152.0,235.0,148.0,235.0" stroke="black" stroke-width="1" fill="none" />
<polyline points="156.0,231.0,164.0,231.0,164.0,227.0,160.0,227.0,160.0,223.0,164.0,223.0,168.0,224.0,112.0,280.0" stroke="black" stroke-width="1" fill="none" />
<polyline points="112.0,268.0,116.0,264.0" stroke="black" stroke-width="1" fill="none" />
<polyline points="112.0,252.0,164.0,200.0,164.0,196.0,112.0,248.0,112.0,244.0,164.0,192.0,160.0,192.0,112.0,240.0,108.0,240.0,160.0,188.0,160.0,184.0,108.0,236.0,108.0,232.0,160.0,180.0" stroke="black" stroke-width="1" fill="none" />
<polyline points="160.0,172.0,104.0,228.0,100.0,228.0,160.0,168.0,160.0,164.0,104.0,220.0,104.0,216.0,160.0,160.0,160.0,156.0,132.0,184.0,132.0,180.0,160.0,152.0,160.0,148.0,132.0,176.0,132.0,172.0,160.0,144.0,160.0,140.0,132.0,168.0,128.0,168.0,160.0,136.0,160.0,132.0,128.0,164.0,128.0,160.0,160.0,128.0,160.0,124.0,132.0,152.0" stroke="black" stroke-width="1" fill="none" />
<polyline points="124.0,153.0,164.0,153.0" stroke="black" stroke-width="1" fill="none" />
<polyline points="172.0,149.0,180.0,149.0" stroke="black" stroke-width="1" fill="none" />
<polyline points="184.0,141.0,208.0,141.0,208.0,137.0,216.0,137.0" stroke="black" stroke-width="1" fill="none" />
<polyline points="204.0,144.0,200.0,148.0,200.0,144.0,196.0,148.0,192.0,149.0,212.0,149.0" stroke="black" stroke-width="1" fill="none" />
<polyline points="204.0,161.0,200.0,161.0" stroke="black" stroke-width="1" fill="none" />
<polyline points="192.0,145.0,212.0,145.0" stroke="black" stroke-width="1" fill="none" />
<polyline points="204.0,129.0,196.0,129.0" stroke="black" stroke-width="1" fill="none" />
<polyline points="180.0,133.0,212.0,133.0" stroke="black" stroke-width="1" fill="none" />
<polyline points="240.0,141.0,260.0,141.0" stroke="black" stroke-width="1" fill="none" />
<polyline points="272.0,141.0,496.0,141.0,500.0,141.0,504.0,141.0,504.0,137.0,500.0,137.0" stroke="black" stroke-width="1" fill="none" />
<polyline points="500.0,125.0,504.0,125.0,504.0,121.0,500.0,121.0,500.0,117.0,504.0,117.0" stroke="black" stroke-width="1" fill="none" />
<polyline points="504.0,133.0,488.0,133.0,488.0,129.0,496.0,129.0" stroke="black" stroke-width="1" fill="none" />
<polyline points="480.0,101.0,476.0,101.0" stroke="black" stroke-width="1" fill="none" />
<polyline points="452.0,101.0,444.0,101.0,444.0,97.0,452.0,97.0" stroke="black" stroke-width="1" fill="none" />
<polyline points="448.0,89.0,444.0,89.0,444.0,85.0,448.0,85.0" stroke="black" stroke-width="1" fill="none" />
<polyline points="444.0,93.0,440.0,93.0" stroke="black" stroke-width="1" fill="none" />
<polyline points="432.0,92.0,348.0,176.0,348.0,172.0,428.0,92.0,428.0,88.0,348.0,168.0" stroke="black" stroke-width="1" fill="none" />
<polyline points="340.0,169.0,512.0,169.0" stroke="black" stroke-width="1" fill="none" />
<polyline points="508.0,189.0,504.0,189.0" stroke="black" stroke-width="1" fill="none" />
<polyline points="500.0,220.0,496.0,224.0,500.0,224.0,496.0,228.0,492.0,228.0,488.0,232.0,488.0,228.0,484.0,232.0,480.0,228.0,476.0,232.0,476.0,228.0,472.0,232.0,472.0,236.0,468.0,240.0,472.0,240.0,468.0,244.0" stroke="black" stroke-width="1" fill="none" />
<polyline points="460.0,244.0,416.0,288.0" stroke="black" stroke-width="1" fill="none" />
<polyline points="424.0,288.0,456.0,256.0,456.0,252.0,420.0,288.0" stroke="black" stroke-width="1" fill="none" />
<polyline points="424.0,283.0,428.0,283.0" stroke="black" stroke-width="1" fill="none" />
<polyline points="432.0,288.0,460.0,260.0,456.0,260.0,428.0,288.0" stroke="black" stroke-width="1" fill="none" />
<polyline points="436.0,288.0,460.0,264.0" stroke="black" stroke-width="1" fill="none" />
<polyline points="456.0,272.0,440.0,288.0" stroke="black" stroke-width="1" fill="none" />
<polyline points="448.0,288.0,460.0,276.0,456.0,276.0,444.0,288.0" stroke="black" stroke-width="1" fill="none" />
<polyline points="452.0,288.0,456.0,284.0" stroke="black" stroke-width="1" fill="none" />
<polyline points="440.0,279.0,436.0,279.0" stroke="black" stroke-width="1" fill="none" />
<polyline points="436.0,271.0,440.0,271.0,440.0,267.0,436.0,267.0,436.0,263.0,440.0,263.0,440.0,259.0,436.0,259.0,436.0,255.0,440.0,255.0,440.0,251.0,436.0,251.0,436.0,247.0,440.0,247.0" stroke="black" stroke-width="1" fill="none" />
<polyline points="440.0,239.0,436.0,239.0,436.0,235.0,440.0,235.0,440.0,231.0,436.0,231.0,432.0,227.0,440.0,227.0,440.0,223.0,432.0,223.0,432.0,219.0,436.0,219.0,436.0,215.0,432.0,215.0,432.0,211.0,436.0,211.0,440.0,211.0,444.0,211.0" stroke="black" stroke-width="1" fill="none" />
<polyline points="448.0,204.0,364.0,288.0,368.0,288.0,456.0,200.0,456.0,204.0,372.0,288.0" stroke="black" stroke-width="1" fill="none" />
<polyline points="380.0,288.0,460.0,208.0,456.0,208.0,376.0,288.0" stroke="black" stroke-width="1" fill="none" />
<polyline points="384.0,288.0,464.0,208.0,468.0,208.0,464.0,212.0,464.0,216.0,472.0,208.0,472.0,212.0,468.0,216.0,472.0,216.0,400.0,288.0,400.0,287.0,432.0,287.0" stroke="black" stroke-width="1" fill="none" />
<polyline points="412.0,288.0,456.0,244.0,456.0,240.0,408.0,288.0,404.0,288.0,452.0,240.0" stroke="black" stroke-width="1" fill="none" />
<polyline points="468.0,232.0,480.0,220.0" stroke="black" stroke-width="1" fill="none" />
<polyline points="472.0,220.0,460.0,232.0" stroke="black" stroke-width="1" fill="none" />
<polyline points="468.0,228.0,472.0,224.0" stroke="black" stroke-width="1" fill="none" />
<polyline points="464.0,220.0,396.0,288.0,392.0,288.0,460.0,220.0,460.0,216.0,388.0,288.0,388.0,287.0,384.0,287.0,384.0,283.0,392.0,283.0" stroke="black" stroke-width="1" fill="none" />
<polyline points="400.0,283.0,420.0,283.0,424.0,279.0,400.0,279.0" stroke="black" stroke-width="1" fill="none" />
<polyline points="400.0,267.0,428.0,267.0" stroke="black" stroke-width="1" fill="none" />
<polyline points="428.0,255.0,412.0,255.0" stroke="black" stroke-width="1" fill="none" />
<polyline points="404.0,251.0,428.0,251.0" stroke="black" stroke-width="1" fill="none" />
<polyline points="432.0,239.0,420.0,239.0,420.0,235.0,428.0,235.0" stroke="black" stroke-width="1" fill="none" />
<polyline points="428.0,227.0,420.0,227.0,416.0,223.0,428.0,223.0" stroke="black" stroke-width="1" fill="none" />
<polyline points="428.0,215.0,420.0,215.0" stroke="black" stroke-width="1" fill="none" />
<polyline points="412.0,219.0,428.0,219.0" stroke="black" stroke-width="1" fill="none" />
<polyline points="416.0,207.0,444.0,207.0" stroke="black" stroke-width="1" fill="none" />
<polyline points="444.0,200.0,356.0,288.0,360.0,288.0,448.0,200.0,444.0,196.0,352.0,288.0,352.0,287.0,356.0,287.0,360.0,287.0,372.0,287.0" stroke="black" stroke-width="1" fill="none" />
<polyline points="372.0,279.0,388.0,279.0,384.0,275.0,440.0,275.0" stroke="black" stroke-width="1" fill="none" />
<polyline points="432.0,247.0,408.0,247.0,408.0,243.0,432.0,243.0" stroke="black" stroke-width="1" fill="none" />
<polyline points="428.0,231.0,412.0,231.0,412.0,235.0,408.0,235.0,404.0,239.0,412.0,239.0" stroke="black" stroke-width="1" fill="none" />
<polyline points="404.0,247.0,400.0,247.0,400.0,243.0,392.0,243.0" stroke="black" stroke-width="1" fill="none" />
<polyline points="388.0,251.0,400.0,251.0,396.0,255.0,392.0,255.0,392.0,259.0,432.0,259.0,428.0,263.0,400.0,263.0" stroke="black" stroke-width="1" fill="none" />
<polyline points="388.0,271.0,432.0,271.0" stroke="black" stroke-width="1" fill="none" />
<polyline points="400.0,231.0,392.0,231.0,392.0,227.0,396.0,227.0,396.0,223.0,400.0,223.0,400.0,219.0,408.0,219.0" stroke="black" stroke-width="1" fill="none" />
<polyline points="408.0,211.0,428.0,211.0" stroke="black" stroke-width="1" fill="none" />
<polyline points="428.0,199.0,440.0,199.0" stroke="black" stroke-width="1" fill="none" />
<polyline points="440.0,192.0,344.0,288.0,348.0,288.0,444.0,192.0" stroke="black" stroke-width="1" fill="none" />
<polyline points="444.0,184.0,340.0,288.0,340.0,287.0,348.0,287.0" stroke="black" stroke-width="1" fill="none" />
<polyline points="344.0,279.0,368.0,279.0,368.0,275.0,364.0,275.0" stroke="black" stroke-width="1" fill="none" />
<polyline points="360.0,283.0,368.0,283.0" stroke="black" stroke-width="1" fill="none" />
<polyline points="380.0,267.0,396.0,267.0" stroke="black" stroke-width="1" fill="none" />
<polyline points="380.0,255.0,376.0,255.0" stroke="black" stroke-width="1" fill="none" />
<polyline points="376.0,247.0,372.0,247.0" stroke="black" stroke-width="1" fill="none" />
<polyline points="380.0,247.0,384.0,247.0" stroke="black" stroke-width="1" fill="none" />
<polyline points="380.0,239.0,376.0,239.0,376.0,235.0,380.0,235.0" stroke="black" stroke-width="1" fill="none" />
<polyline points="372.0,219.0,368.0,219.0,364.0,223.0,380.0,223.0" stroke="black" stroke-width="1" fill="none" />
<polyline points="380.0,215.0,376.0,215.0" stroke="black" stroke-width="1" fill="none" />
<polyline points="376.0,207.0,380.0,207.0" stroke="black" stroke-width="1" fill="none" />
<polyline points="384.0,199.0,388.0,199.0" stroke="black" stroke-width="1" fill="none" />
<polyline points="388.0,191.0,400.0,191.0,404.0,191.0,412.0,191.0,412.0,187.0,424.0,187.0,428.0,191.0,440.0,191.0" stroke="black" stroke-width="1" fill="none" />
<polyline points="440.0,184.0,336.0,288.0,332.0,288.0,444.0,176.0,440.0,176.0,328.0,288.0,324.0,288.0,440.0,172.0,440.0,168.0,328.0,280.0,324.0,280.0,320.0,284.0,324.0,284.0,320.0,288.0" stroke="black" stroke-width="1" fill="none" />
<polyline points="320.0,280.0,324.0,276.0,328.0,276.0,440.0,164.0,440.0,160.0,328.0,272.0,328.0,268.0,440.0,156.0,440.0,152.0,332.0,260.0,332.0,256.0,440.0,148.0,440.0,144.0,336.0,248.0,336.0,244.0,436.0,144.0,436.0,140.0,336.0,240.0,336.0,236.0,436.0,136.0,436.0,132.0,336.0,232.0,336.0,228.0,436.0,128.0,436.0,124.0,336.0,224.0,336.0,220.0,436.0,120.0,432.0,120.0,340.0,212.0,340.0,208.0,432.0,116.0,432.0,112.0,340.0,204.0,340.0,200.0,432.0,108.0,432.0,104.0,340.0,196.0" stroke="black" stroke-width="1" fill="none" />
<polyline points="344.0,188.0,432.0,100.0,432.0,96.0,344.0,184.0" stroke="black" stroke-width="1" fill="none" />
<polyline points="352.0,187.0,364.0,187.0,368.0,187.0,376.0,187.0" stroke="black" stroke-width="1" fill="none" />
<polyline points="376.0,179.0,400.0,179.0,404.0,179.0,440.0,179.0" stroke="black" stroke-width="1" fill="none" />
<polyline points="440.0,187.0,432.0,187.0,432.0,183.0,440.0,183.0" stroke="black" stroke-width="1" fill="none" />
<polyline points="448.0,172.0,456.0,164.0,460.0,164.0,456.0,168.0" stroke="black" stroke-width="1" fill="none" />
<polyline points="456.0,189.0,460.0,189.0,460.0,193.0,472.0,193.0,472.0,189.0,476.0,189.0" stroke="black" stroke-width="1" fill="none" />
<polyline points="492.0,220.0,488.0,224.0" stroke="black" stroke-width="1" fill="none" />
<polyline points="440.0,195.0,428.0,195.0" stroke="black" stroke-width="1" fill="none" />
<polyline points="420.0,191.0,416.0,191.0,412.0,195.0,424.0,195.0" stroke="black" stroke-width="1" fill="none" />
<polyline points="416.0,203.0,444.0,203.0" stroke="black" stroke-width="1" fill="none" />
<polyline points="440.0,175.0,428.0,175.0,428.0,171.0,440.0,171.0" stroke="black" stroke-width="1" fill="none" />
<polyline points="424.0,199.0,404.0,199.0,404.0,203.0,412.0,203.0,412.0,207.0,404.0,207.0" stroke="black" stroke-width="1" fill="none" />
<polyline points="404.0,215.0,396.0,215.0,392.0,211.0,404.0,211.0" stroke="black" stroke-width="1" fill="none" />
<polyline points="400.0,203.0,396.0,203.0,392.0,207.0,400.0,207.0" stroke="black" stroke-width="1" fill="none" />
<polyline points="392.0,215.0,384.0,215.0" stroke="black" stroke-width="1" fill="none" />
<polyline points="400.0,227.0,404.0,227.0" stroke="black" stroke-width="1" fill="none" />
<polyline points="404.0,187.0,408.0,187.0,404.0,183.0,428.0,183.0" stroke="black" stroke-width="1" fill="none" />
<polyline points="424.0,175.0,404.0,175.0" stroke="black" stroke-width="1" fill="none" />
<polyline points="400.0,183.0,396.0,183.0,396.0,187.0,400.0,187.0" stroke="black" stroke-width="1" fill="none" />
<polyline points="392.0,187.0,388.0,187.0,384.0,183.0,392.0,183.0" stroke="black" stroke-width="1" fill="none" />
<polyline points="384.0,175.0,400.0,175.0" stroke="black" stroke-width="1" fill="none" />
<polyline points="384.0,171.0,424.0,171.0" stroke="black" stroke-width="1" fill="none" />
<polyline points="436.0,167.0,384.0,167.0,384.0,163.0,436.0,163.0" stroke="black" stroke-width="1" fill="none" />
<polyline points="436.0,151.0,384.0,151.0,380.0,151.0,376.0,151.0,376.0,155.0,436.0,155.0" stroke="black" stroke-width="1" fill="none" />
<polyline points="380.0,175.0,376.0,175.0" stroke="black" stroke-width="1" fill="none" />
<polyline points="380.0,183.0,368.0,183.0" stroke="black" stroke-width="1" fill="none" />
<polyline points="368.0,175.0,364.0,175.0,368.0,179.0,356.0,179.0,356.0,175.0,360.0,175.0,356.0,171.0,376.0,171.0,376.0,167.0,368.0,167.0" stroke="black" stroke-width="1" fill="none" />
<polyline points="360.0,159.0,436.0,159.0" stroke="black" stroke-width="1" fill="none" />
<polyline points="436.0,143.0,376.0,143.0,372.0,139.0,436.0,139.0" stroke="black" stroke-width="1" fill="none" />
<polyline points="428.0,84.0,352.0,160.0,352.0,156.0,428.0,80.0,424.0,80.0,352.0,152.0,352.0,148.0,424.0,76.0,424.0,72.0,352.0,144.0,348.0,144.0,424.0,68.0,420.0,68.0,348.0,140.0,348.0,136.0,420.0,64.0,420.0,60.0,348.0,132.0,348.0,128.0,416.0,60.0,416.0,56.0,348.0,124.0,344.0,124.0,416.0,52.0,412.0,52.0,344.0,120.0,344.0,116.0,412.0,48.0,412.0,44.0,344.0,112.0,344.0,108.0,408.0,44.0,408.0,40.0,344.0,104.0,344.0,100.0,408.0,36.0,404.0,36.0,344.0,96.0,344.0,92.0,404.0,32.0,400.0,32.0,344.0,88.0,340.0,88.0,400.0,28.0,396.0,28.0,340.0,84.0,336.0,84.0,396.0,24.0,396.0,20.0,336.0,80.0,336.0,76.0,392.0,20.0,392.0,16.0,332.0,76.0,332.0,72.0,388.0,16.0,388.0,12.0,328.0,72.0,328.0,68.0,384.0,12.0,384.0,8.0,324.0,68.0,324.0,64.0,380.0,8.0,380.0,4.0,324.0,60.0,320.0,60.0,376.0,4.0,376.0,0.0,320.0,56.0,320.0,52.0,372.0,0.0,368.0,0.0,316.0,52.0,316.0,48.0,364.0,0.0,360.0,0.0,312.0,48.0,312.0,44.0,356.0,0.0,356.0,3.0,372.0,3.0" stroke="black" stroke-width="1" fill="none" />
<polyline points="380.0,7.0,356.0,7.0" stroke="black" stroke-width="1" fill="none" />
<polyline points="352.0,0.0,312.0,40.0,308.0,40.0,348.0,0.0,344.0,0.0,308.0,36.0,304.0,36.0,340.0,0.0,336.0,0.0,304.0,32.0,300.0,32.0,332.0,0.0,328.0,0.0,296.0,32.0,296.0,28.0,324.0,0.0,320.0,0.0,292.0,28.0,288.0,28.0,316.0,0.0,312.0,0.0,288.0,24.0,284.0,24.0,308.0,0.0,304.0,0.0,288.0,16.0,284.0,16.0,300.0,0.0,296.0,0.0,284.0,12.0,284.0,8.0,292.0,0.0,288.0,0.0,284.0,4.0,280.0,0.0,276.0,4.0" stroke="black" stroke-width="1" fill="none" />
<polyline points="268.0,25.0,400.0,25.0" stroke="black" stroke-width="1" fill="none" />
<polyline points="424.0,75.0,360.0,75.0,360.0,71.0,420.0,71.0" stroke="black" stroke-width="1" fill="none" />
<polyline points="428.0,99.0,368.0,99.0" stroke="black" stroke-width="1" fill="none" />
<polyline points="356.0,103.0,428.0,103.0" stroke="black" stroke-width="1" fill="none" />
<polyline points="436.0,147.0,372.0,147.0" stroke="black" stroke-width="1" fill="none" />
<polyline points="368.0,139.0,364.0,139.0,360.0,143.0,372.0,143.0" stroke="black" stroke-width="1" fill="none" />
<polyline points="372.0,131.0,432.0,131.0" stroke="black" stroke-width="1" fill="none" />
<polyline points="368.0,131.0,364.0,131.0,360.0,131.0,356.0,131.0,356.0,127.0,432.0,127.0" stroke="black" stroke-width="1" fill="none" />
<polyline points="432.0,119.0,364.0,119.0,360.0,119.0,356.0,119.0,356.0,115.0,432.0,115.0" stroke="black" stroke-width="1" fill="none" />
<polyline points="368.0,155.0,360.0,155.0,360.0,151.0,372.0,151.0" stroke="black" stroke-width="1" fill="none" />
<polyline points="364.0,147.0,360.0,147.0" stroke="black" stroke-width="1" fill="none" />
<polyline points="356.0,135.0,436.0,135.0" stroke="black" stroke-width="1" fill="none" />
<polyline points="364.0,167.0,356.0,167.0,356.0,163.0,380.0,163.0" stroke="black" stroke-width="1" fill="none" />
<polyline points="364.0,183.0,356.0,183.0" stroke="black" stroke-width="1" fill="none" />
<polyline points="356.0,191.0,364.0,191.0" stroke="black" stroke-width="1" fill="none" />
<polyline points="356.0,195.0,380.0,195.0" stroke="black" stroke-width="1" fill="none" />
<polyline points="372.0,207.0,364.0,207.0" stroke="black" stroke-width="1" fill="none" />
<polyline points="364.0,215.0,356.0,215.0,356.0,219.0,360.0,219.0,360.0,223.0,352.0,223.0,352.0,227.0,376.0,227.0" stroke="black" stroke-width="1" fill="none" />
<polyline points="368.0,235.0,356.0,235.0,352.0,231.0,376.0,231.0" stroke="black" stroke-width="1" fill="none" />
<polyline points="372.0,255.0,360.0,255.0,360.0,259.0,364.0,259.0,364.0,263.0,376.0,263.0,372.0,259.0,368.0,259.0" stroke="black" stroke-width="1" fill="none" />
<polyline points="356.0,263.0,352.0,263.0,352.0,259.0,356.0,259.0" stroke="black" stroke-width="1" fill="none" />
<polyline points="348.0,251.0,380.0,251.0" stroke="black" stroke-width="1" fill="none" />
<polyline points="384.0,243.0,352.0,243.0,352.0,239.0,372.0,239.0" stroke="black" stroke-width="1" fill="none" />
<polyline points="368.0,247.0,348.0,247.0" stroke="black" stroke-width="1" fill="none" />
<polyline points="348.0,267.0,364.0,267.0,360.0,271.0,348.0,271.0,344.0,275.0,356.0,275.0" stroke="black" stroke-width="1" fill="none" />
<polyline points="312.0,253.0,512.0,253.0" stroke="black" stroke-width="1" fill="none" />
<polyline points="432.0,123.0,356.0,123.0" stroke="black" stroke-width="1" fill="none" />
<polyline points="356.0,111.0,432.0,111.0,432.0,107.0,356.0,107.0" stroke="black" stroke-width="1" fill="none" />
<polyline points="352.0,99.0,364.0,99.0" stroke="black" stroke-width="1" fill="none" />
<polyline points="352.0,95.0,428.0,95.0" stroke="black" stroke-width="1" fill="none" />
<polyline points="424.0,79.0,356.0,79.0" stroke="black" stroke-width="1" fill="none" />
<polyline points="348.0,83.0,424.0,83.0" stroke="black" stroke-width="1" fill="none" />
<polyline points="428.0,91.0,352.0,91.0,352.0,87.0,428.0,87.0" stroke="black" stroke-width="1" fill="none" />
<polyline points="352.0,71.0,348.0,71.0,344.0,67.0,420.0,67.0,416.0,63.0,344.0,63.0,344.0,59.0,416.0,59.0,412.0,55.0,340.0,55.0,340.0,51.0,412.0,51.0,408.0,47.0,340.0,47.0,336.0,43.0,408.0,43.0" stroke="black" stroke-width="1" fill="none" />
<polyline points="396.0,27.0,340.0,27.0,340.0,23.0,392.0,23.0" stroke="black" stroke-width="1" fill="none" />
<polyline points="384.0,15.0,336.0,15.0" stroke="black" stroke-width="1" fill="none" />
<polyline points="336.0,23.0,324.0,23.0,324.0,19.0,388.0,19.0" stroke="black" stroke-width="1" fill="none" />
<polyline points="404.0,39.0,332.0,39.0,332.0,35.0,400.0,35.0,400.0,31.0,332.0,31.0,332.0,27.0,324.0,27.0" stroke="black" stroke-width="1" fill="none" />
<polyline points="324.0,15.0,332.0,15.0" stroke="black" stroke-width="1" fill="none" />
<polyline points="324.0,11.0,384.0,11.0" stroke="black" stroke-width="1" fill="none" />
<polyline points="348.0,7.0,320.0,7.0,320.0,3.0,340.0,3.0" stroke="black" stroke-width="1" fill="none" />
<polyline points="288.0,33.0,408.0,33.0" stroke="black" stroke-width="1" fill="none" />
<polyline points="436.0,101.0,336.0,101.0,336.0,105.0,480.0,105.0" stroke="black" stroke-width="1" fill="none" />
<polyline points="372.0,199.0,352.0,199.0,352.0,203.0,356.0,203.0,356.0,207.0,352.0,207.0,352.0,211.0,372.0,211.0" stroke="black" stroke-width="1" fill="none" />
<polyline points="328.0,193.0,452.0,193.0" stroke="black" stroke-width="1" fill="none" />
<polyline points="512.0,165.0,340.0,165.0,340.0,161.0,512.0,161.0,512.0,157.0,340.0,157.0,340.0,153.0,512.0,153.0,512.0,149.0,340.0,149.0,340.0,145.0,508.0,145.0" stroke="black" stroke-width="1" fill="none" />
<polyline points="512.0,177.0,336.0,177.0,336.0,173.0,512.0,173.0" stroke="black" stroke-width="1" fill="none" />
<polyline points="476.0,113.0,336.0,113.0,336.0,109.0,484.0,109.0" stroke="black" stroke-width="1" fill="none" />
<polyline points="512.0,185.0,332.0,185.0,332.0,181.0,512.0,181.0" stroke="black" stroke-width="1" fill="none" />
<polyline points="472.0,117.0,332.0,117.0" stroke="black" stroke-width="1" fill="none" />
<polyline points="324.0,121.0,472.0,121.0" stroke="black" stroke-width="1" fill="none" />
<polyline points="440.0,97.0,332.0,97.0,328.0,93.0,436.0,93.0" stroke="black" stroke-width="1" fill="none" />
<polyline points="444.0,189.0,328.0,189.0" stroke="black" stroke-width="1" fill="none" />
<polyline points="324.0,197.0,476.0,197.0" stroke="black" stroke-width="1" fill="none" />
<polyline points="512.0,201.0,324.0,201.0,320.0,205.0,512.0,205.0,512.0,209.0,320.0,209.0,316.0,213.0,512.0,213.0" stroke="black" stroke-width="1" fill="none" />
<polyline points="432.0,89.0,320.0,89.0,316.0,85.0,432.0,85.0" stroke="black" stroke-width="1" fill="none" />
<polyline points="324.0,136.0,316.0,144.0,316.0,140.0,320.0,136.0,316.0,136.0,312.0,140.0,312.0,136.0,308.0,140.0,308.0,136.0,304.0,140.0" stroke="black" stroke-width="1" fill="none" />
<polyline points="296.0,137.0,488.0,137.0" stroke="black" stroke-width="1" fill="none" />
<polyline points="512.0,241.0,316.0,241.0,312.0,237.0,512.0,237.0" stroke="black" stroke-width="1" fill="none" />
<polyline points="512.0,217.0,316.0,217.0,312.0,221.0,512.0,221.0" stroke="black" stroke-width="1" fill="none" />
<polyline points="512.0,249.0,312.0,249.0,312.0,245.0,512.0,245.0" stroke="black" stroke-width="1" fill="none" />
<polyline points="512.0,233.0,312.0,233.0,312.0,229.0,512.0,229.0,512.0,225.0,312.0,225.0" stroke="black" stroke-width="1" fill="none" />
<polyline points="308.0,257.0,512.0,257.0" stroke="black" stroke-width="1" fill="none" />
<polyline points="476.0,125.0,312.0,125.0" stroke="black" stroke-width="1" fill="none" />
<polyline points="292.0,133.0,484.0,133.0" stroke="black" stroke-width="1" fill="none" />
<polyline points="428.0,81.0,312.0,81.0,312.0,77.0,428.0,77.0,428.0,73.0,308.0,73.0,304.0,69.0,424.0,69.0,424.0,65.0,304.0,65.0,304.0,61.0,420.0,61.0,420.0,57.0,304.0,57.0,300.0,53.0,416.0,53.0,416.0,49.0,300.0,49.0,296.0,45.0,416.0,45.0,412.0,41.0,292.0,41.0,288.0,37.0,408.0,37.0" stroke="black" stroke-width="1" fill="none" />
<polyline points="404.0,29.0,280.0,29.0" stroke="black" stroke-width="1" fill="none" />
<polyline points="240.0,21.0,396.0,21.0" stroke="black" stroke-width="1" fill="none" />
<polyline points="312.0,149.0,280.0,149.0,284.0,148.0,288.0,144.0,288.0,140.0,284.0,144.0" stroke="black" stroke-width="1" fill="none" />
<polyline points="276.0,145.0,324.0,145.0" stroke="black" stroke-width="1" fill="none" />
<polyline points="268.0,125.0,256.0,125.0" stroke="black" stroke-width="1" fill="none" />
<polyline points="248.0,129.0,480.0,129.0" stroke="black" stroke-width="1" fill="none" />
<polyline points="512.0,261.0,304.0,261.0,300.0,265.0,512.0,265.0,512.0,269.0,300.0,269.0" stroke="black" stroke-width="1" fill="none" />
<polyline points="292.0,273.0,512.0,273.0,512.0,277.0,288.0,277.0,284.0,281.0,512.0,281.0,512.0,285.0,280.0,285.0" stroke="black" stroke-width="1" fill="none" />
<polyline points="272.0,241.0,268.0,241.0" stroke="black" stroke-width="1" fill="none" />
<polyline points="256.0,253.0,248.0,253.0" stroke="black" stroke-width="1" fill="none" />
<polyline points="236.0,245.0,272.0,245.0" stroke="black" stroke-width="1" fill="none" />
<polyline points="248.0,220.0,244.0,224.0,244.0,220.0,240.0,224.0" stroke="black" stroke-width="1" fill="none" />
<polyline points="232.0,217.0,260.0,217.0,256.0,213.0,252.0,213.0" stroke="black" stroke-width="1" fill="none" />
<polyline points="248.0,233.0,228.0,233.0,224.0,229.0,256.0,229.0" stroke="black" stroke-width="1" fill="none" />
<polyline points="268.0,249.0,232.0,249.0" stroke="black" stroke-width="1" fill="none" />
<polyline points="228.0,265.0,248.0,265.0" stroke="black" stroke-width="1" fill="none" />
<polyline points="260.0,221.0,228.0,221.0" stroke="black" stroke-width="1" fill="none" />
<polyline points="220.0,225.0,256.0,225.0" stroke="black" stroke-width="1" fill="none" />
<polyline points="208.0,245.0,204.0,245.0" stroke="black" stroke-width="1" fill="none" />
<polyline points="164.0,219.0,156.0,219.0,152.0,219.0,148.0,219.0,148.0,215.0,164.0,215.0" stroke="black" stroke-width="1" fill="none" />
<polyline points="160.0,207.0,156.0,207.0,156.0,203.0,160.0,203.0,160.0,199.0,156.0,199.0,156.0,195.0,160.0,195.0,160.0,191.0,156.0,191.0,160.0,187.0,148.0,187.0,144.0,183.0,156.0,183.0,156.0,179.0,148.0,179.0,148.0,175.0,152.0,175.0,148.0,171.0,156.0,171.0" stroke="black" stroke-width="1" fill="none" />
<polyline points="164.0,157.0,124.0,157.0,120.0,161.0,164.0,161.0" stroke="black" stroke-width="1" fill="none" />
<polyline points="144.0,136.0,160.0,120.0,160.0,116.0,140.0,136.0,140.0,132.0,160.0,112.0,160.0,108.0,140.0,128.0" stroke="black" stroke-width="1" fill="none" />
<polyline points="136.0,116.0,164.0,88.0,164.0,84.0,136.0,112.0,136.0,108.0,164.0,80.0,164.0,76.0,140.0,100.0,140.0,96.0,144.0,92.0,140.0,89.0,168.0,89.0" stroke="black" stroke-width="1" fill="none" />
<polyline points="160.0,96.0,136.0,120.0,136.0,124.0,160.0,100.0,160.0,104.0,136.0,128.0" stroke="black" stroke-width="1" fill="none" />
<polyline points="128.0,121.0,164.0,121.0" stroke="black" stroke-width="1" fill="none" />
<polyline points="156.0,107.0,152.0,107.0" stroke="black" stroke-width="1" fill="none" />
<polyline points="164.0,101.0,136.0,101.0,136.0,97.0,164.0,97.0" stroke="black" stroke-width="1" fill="none" />
<polyline points="148.0,88.0,164.0,72.0,164.0,68.0,152.0,80.0,152.0,76.0,168.0,60.0,168.0,56.0,152.0,72.0,152.0,68.0,168.0,52.0" stroke="black" stroke-width="1" fill="none" />
<polyline points="168.0,44.0,172.0,40.0,176.0,40.0,172.0,44.0" stroke="black" stroke-width="1" fill="none" />
<polyline points="164.0,41.0,180.0,41.0" stroke="black" stroke-width="1" fill="none" />
<polyline points="188.0,33.0,168.0,33.0,168.0,29.0,196.0,29.0" stroke="black" stroke-width="1" fill="none" />
<polyline points="176.0,21.0,224.0,21.0" stroke="black" stroke-width="1" fill="none" />
<polyline points="236.0,17.0,396.0,17.0" stroke="black" stroke-width="1" fill="none" />
<polyline points="388.0,9.0,236.0,9.0" stroke="black" stroke-width="1" fill="none" />
<polyline points="192.0,1.0,380.0,1.0" stroke="black" stroke-width="1" fill="none" />
<polyline points="264.0,137.0,244.0,137.0,244.0,133.0,268.0,133.0" stroke="black" stroke-width="1" fill="none" />
<polyline points="252.0,153.0,240.0,153.0,240.0,149.0,252.0,149.0" stroke="black" stroke-width="1" fill="none" />
<polyline points="248.0,157.0,240.0,157.0" stroke="black" stroke-width="1" fill="none" />
<polyline points="240.0,145.0,256.0,145.0" stroke="black" stroke-width="1" fill="none" />
<polyline points="176.0,49.0,160.0,49.0,160.0,45.0,176.0,45.0" stroke="black" stroke-width="1" fill="none" />
<polyline points="184.0,37.0,164.0,37.0" stroke="black" stroke-width="1" fill="none" />
<polyline points="172.0,25.0,208.0,25.0" stroke="black" stroke-width="1" fill="none" />
<polyline points="188.0,5.0,384.0,5.0" stroke="black" stroke-width="1" fill="none" />
<polyline points="232.0,9.0,184.0,9.0,180.0,13.0,392.0,13.0" stroke="black" stroke-width="1" fill="none" />
<polyline points="228.0,17.0,176.0,17.0" stroke="black" stroke-width="1" fill="none" />
<polyline points="172.0,57.0,156.0,57.0,156.0,53.0,176.0,53.0" stroke="black" stroke-width="1" fill="none" />
<polyline points="172.0,61.0,152.0,61.0,148.0,65.0,172.0,65.0" stroke="black" stroke-width="1" fill="none" />
<polyline points="168.0,81.0,148.0,81.0,148.0,77.0,168.0,77.0" stroke="black" stroke-width="1" fill="none" />
<polyline points="168.0,69.0,148.0,69.0,144.0,73.0,168.0,73.0" stroke="black" stroke-width="1" fill="none" />
<polyline points="168.0,85.0,144.0,85.0" stroke="black" stroke-width="1" fill="none" />
<polyline points="136.0,93.0,168.0,93.0" stroke="black" stroke-width="1" fill="none" />
<polyline points="164.0,117.0,132.0,117.0,132.0,113.0,164.0,113.0,164.0,109.0,132.0,109.0,132.0,105.0,164.0,105.0" stroke="black" stroke-width="1" fill="none" />
<polyline points="164.0,149.0,124.0,149.0,120.0,145.0,188.0,145.0" stroke="black" stroke-width="1" fill="none" />
<polyline points="164.0,129.0,124.0,129.0,124.0,125.0,164.0,125.0" stroke="black" stroke-width="1" fill="none" />
<polyline points="164.0,165.0,120.0,165.0,116.0,169.0,164.0,169.0" stroke="black" stroke-width="1" fill="none" />
<polyline points="160.0,211.0,148.0,211.0" stroke="black" stroke-width="1" fill="none" />
<polyline points="144.0,223.0,152.0,223.0" stroke="black" stroke-width="1" fill="none" />
<polyline points="144.0,231.0,136.0,231.0,136.0,227.0,144.0,227.0" stroke="black" stroke-width="1" fill="none" />
<polyline points="116.0,200.0,104.0,212.0,104.0,208.0,112.0,200.0,112.0,196.0,116.0,192.0" stroke="black" stroke-width="1" fill="none" />
<polyline points="112.0,173.0,164.0,173.0" stroke="black" stroke-width="1" fill="none" />
<polyline points="180.0,141.0,120.0,141.0,120.0,137.0,180.0,137.0" stroke="black" stroke-width="1" fill="none" />
<polyline points="172.0,133.0,120.0,133.0" stroke="black" stroke-width="1" fill="none" />
<polyline points="96.0,161.0,88.0,161.0,88.0,157.0,92.0,157.0" stroke="black" stroke-width="1" fill="none" />
<polyline points="92.0,173.0,108.0,173.0,108.0,169.0,76.0,169.0,76.0,165.0,104.0,165.0" stroke="black" stroke-width="1" fill="none" />
<polyline points="52.0,165.0,40.0,165.0" stroke="black" stroke-width="1" fill="none" />
<polyline points="28.0,149.0,4.0,149.0,0.0,153.0,28.0,153.0" stroke="black" stroke-width="1" fill="none" />
<polyline points="36.0,165.0,0.0,165.0,0.0,161.0,32.0,161.0" stroke="black" stroke-width="1" fill="none" />
<polyline points="52.0,169.0,0.0,169.0,0.0,173.0,64.0,173.0" stroke="black" stroke-width="1" fill="none" />
<polyline points="84.0,177.0,0.0,177.0,0.0,181.0,164.0,181.0" stroke="black" stroke-width="1" fill="none" />
<polyline points="208.0,285.0,0.0,285.0,0.0,281.0,204.0,281.0,204.0,277.0,0.0,277.0,0.0,273.0,200.0,273.0,196.0,269.0,0.0,269.0,0.0,265.0,192.0,265.0,188.0,261.0,0.0,261.0,0.0,257.0,184.0,257.0,180.0,253.0,0.0,253.0,0.0,249.0,180.0,249.0,180.0,245.0,0.0,245.0,0.0,241.0,176.0,241.0,176.0,237.0,0.0,237.0,0.0,233.0,176.0,233.0,176.0,229.0,0.0,229.0,0.0,225.0,176.0,225.0,176.0,221.0,0.0,221.0,0.0,217.0,172.0,217.0,172.0,213.0,0.0,213.0,0.0,209.0,168.0,209.0,168.0,205.0,0.0,205.0,0.0,201.0,168.0,201.0,168.0,197.0,0.0,197.0,0.0,193.0,164.0,193.0,164.0,189.0,0.0,189.0,0.0,185.0,164.0,185.0" stroke="black" stroke-width="1" fill="none" />
<polyline points="28.0,157.0,0.0,157.0" stroke="black" stroke-width="1" fill="none" />
</svg>