<svg xmlns="http://www.w3.org/2000/svg" height="576px" width="512px" version="1.1"><polyline points="192.0,40.5,171.0,52.5,157.5,64.5,147.0,76.5,138.0,88.5,132.0,100.5,126.0,112.5,120.0,124.5,114.0,136.5,111.0,148.5,108.0,160.5,105.0,172.5,100.5,184.5,97.5,196.5,96.0,208.5,93.0,220.5,91.5,232.5,88.5,244.5,88.5,256.5,88.5,268.5,88.5,280.5,88.5,292.5,88.5,304.5,87.0,316.5,90.0,328.5,94.5,340.5,100.5,352.5,103.5,364.5,105.0,376.5,103.5,388.5,102.0,400.5,103.5,412.5,99.0,424.5,94.5,436.5,87.0,448.5,78.0,460.5,70.5,472.5,64.5,484.5,57.0,496.5,48.0,508.5,40.5,520.5,33.0,532.5,24.0,544.5,15.0,556.5,7.5,568.5,7.5,568.5,19.5,550.5,31.5,534.0,43.5,516.0,55.5,498.0,67.5,477.0,79.5,457.5,91.5,441.0" stroke="black" stroke-width="1" fill="none" />
<polyline points="114.0,477.0,126.0,466.5,138.0,462.0" stroke="black" stroke-width="1" fill="none" />
<polyline points="147.0,433.5,159.0,414.0,171.0,403.5,183.0,396.0,195.0,388.5" stroke="black" stroke-width="1" fill="none" />
<polyline points="219.0,355.5,217.5,343.5,225.0,331.5,241.5,319.5,256.5,307.5,270.0,295.5,277.5,283.5,280.5,271.5,280.5,259.5,283.5,247.5,288.0,235.5,292.5,223.5,297.0,211.5,297.0,199.5,292.5,187.5,288.0,184.5,276.0,189.0,264.0,196.5,252.0,198.0,240.0,198.0,228.0,190.5,225.0,190.5,237.0,184.5,249.0,186.0" stroke="black" stroke-width="1" fill="none" />
<polyline points="234.0,184.5,220.5,186.0,213.0,198.0" stroke="black" stroke-width="1" fill="none" />
<polyline points="202.5,187.5,214.5,174.0,226.5,175.5,238.5,174.0,250.5,175.5,262.5,175.5,274.5,172.5,286.5,162.0" stroke="black" stroke-width="1" fill="none" />
<polyline points="292.5,223.5,280.5,252.0" stroke="black" stroke-width="1" fill="none" />
<polyline points="277.5,283.5,265.5,300.0,253.5,310.5,241.5,319.5,229.5,328.5,217.5,339.0" stroke="black" stroke-width="1" fill="none" />
<polyline points="219.0,354.0,231.0,358.5,243.0,363.0,255.0,366.0,267.0,369.0,279.0,370.5,291.0,367.5,297.0,372.0,300.0,384.0,304.5,396.0,306.0,408.0,306.0,420.0,306.0,432.0,304.5,444.0,301.5,456.0,298.5,468.0,297.0,480.0,304.5,492.0,309.0,492.0,321.0,489.0,333.0,481.5,345.0,474.0,357.0,468.0,369.0,462.0,381.0,456.0,393.0,451.5,405.0,444.0,417.0,436.5,429.0,427.5" stroke="black" stroke-width="1" fill="none" />
<polyline points="435.0,417.0,423.0,396.0,411.0,373.5,399.0,348.0" stroke="black" stroke-width="1" fill="none" />
<polyline points="447.0,435.0,436.5,447.0,435.0,459.0,435.0,471.0,426.0,483.0,403.5,495.0,379.5,507.0,351.0,519.0,327.0,531.0,300.0,543.0" stroke="black" stroke-width="1" fill="none" />
<polyline points="435.0,450.0,447.0,435.0,459.0,441.0,471.0,454.5,483.0,466.5,495.0,477.0,507.0,489.0" stroke="black" stroke-width="1" fill="none" />
<polyline points="499.5,484.5,487.5,472.5,475.5,460.5,465.0,448.5,453.0,436.5" stroke="black" stroke-width="1" fill="none" />
<polyline points="226.5,280.5,214.5,285.0,202.5,285.0,183.0,285.0,171.0,282.0,168.0,277.5,180.0,279.0,195.0,280.5,207.0,279.0,219.0,274.5" stroke="black" stroke-width="1" fill="none" />
<polyline points="214.5,267.0,202.5,271.5,190.5,267.0,178.5,258.0,177.0,256.5,189.0,259.5,201.0,252.0,213.0,250.5,219.0,255.0,214.5,267.0" stroke="black" stroke-width="1" fill="none" />
<polyline points="216.0,276.0,228.0,274.5" stroke="black" stroke-width="1" fill="none" />
<polyline points="205.5,298.5,193.5,298.5" stroke="black" stroke-width="1" fill="none" />
<polyline points="202.5,294.0,190.5,297.0,192.0,280.5,189.0,267.0,178.5,255.0" stroke="black" stroke-width="1" fill="none" />
<polyline points="147.0,283.5,159.0,300.0,171.0,316.5,183.0,328.5,195.0,337.5,207.0,336.0,204.0,345.0,201.0,357.0,204.0,369.0,205.5,381.0,187.5,393.0,168.0,405.0,156.0,417.0,148.5,429.0,145.5,441.0,142.5,453.0,127.5,465.0,114.0,477.0,112.5,489.0,114.0,501.0,121.5,513.0,148.5,525.0" stroke="black" stroke-width="1" fill="none" />
<polyline points="114.0,501.0,126.0,514.5,138.0,520.5,150.0,525.0,162.0,529.5,174.0,532.5,186.0,537.0,198.0,541.5,210.0,544.5,222.0,544.5,234.0,546.0,246.0,546.0,258.0,546.0,270.0,546.0,282.0,546.0,294.0,544.5,306.0,541.5,318.0,535.5,330.0,529.5,342.0,525.0,354.0,517.5,366.0,511.5,378.0,508.5,390.0,502.5,402.0,496.5,414.0,490.5,426.0,483.0" stroke="black" stroke-width="1" fill="none" />
<polyline points="100.5,352.5,88.5,321.0" stroke="black" stroke-width="1" fill="none" />
<polyline points="133.5,201.0,145.5,199.5,157.5,193.5,169.5,199.5" stroke="black" stroke-width="1" fill="none" />
<polyline points="175.5,190.5,163.5,186.0,151.5,189.0,147.0,187.5,159.0,183.0,171.0,183.0,178.5,183.0,181.5,187.5,175.5,199.5,165.0,204.0,165.0,208.5,177.0,196.5" stroke="black" stroke-width="1" fill="none" />
<polyline points="136.5,198.0,133.5,210.0,133.5,222.0,133.5,234.0,136.5,246.0,141.0,258.0,144.0,270.0,145.5,282.0,153.0,294.0,163.5,306.0,171.0,318.0,183.0,330.0" stroke="black" stroke-width="1" fill="none" />
<polyline points="219.0,171.0,204.0,183.0,202.5,195.0,207.0,202.5,219.0,187.5,231.0,181.5,243.0,180.0,255.0,183.0" stroke="black" stroke-width="1" fill="none" />
<polyline points="274.5,172.5,288.0,160.5,288.0,148.5,274.5,136.5,264.0,124.5,261.0,112.5,252.0,100.5,234.0,88.5" stroke="black" stroke-width="1" fill="none" />
<polyline points="201.0,64.5,198.0,76.5,201.0,84.0,213.0,85.5,225.0,87.0,237.0,88.5,249.0,96.0,261.0,112.5,273.0,135.0,285.0,141.0" stroke="black" stroke-width="1" fill="none" />
<polyline points="363.0,112.5,351.0,99.0,339.0,82.5,327.0,67.5,315.0,54.0,303.0,46.5,291.0,43.5,279.0,39.0,267.0,36.0,255.0,34.5,243.0,33.0,231.0,34.5,219.0,34.5,207.0,37.5,195.0,40.5,183.0,45.0,171.0,52.5,159.0,63.0,147.0,76.5,135.0,93.0,123.0,118.5,111.0,144.0" stroke="black" stroke-width="1" fill="none" />
<polyline points="142.5,112.5,154.5,94.5,166.5,90.0,178.5,85.5,190.5,78.0" stroke="black" stroke-width="1" fill="none" />
<polyline points="196.5,63.0,192.0,75.0,174.0,87.0,150.0,99.0,144.0,111.0,141.0,123.0,139.5,135.0,136.5,147.0,135.0,159.0,136.5,171.0,138.0,175.5,150.0,180.0,162.0,177.0,174.0,180.0" stroke="black" stroke-width="1" fill="none" />
<polyline points="301.5,46.5,318.0,58.5,328.5,70.5,337.5,82.5,345.0,94.5,355.5,106.5,364.5,118.5,369.0,130.5,372.0,142.5,375.0,154.5,375.0,166.5,378.0,178.5,379.5,190.5,381.0,202.5,384.0,214.5,385.5,226.5,388.5,238.5,390.0,250.5,391.5,262.5,393.0,274.5,394.5,286.5,396.0,298.5,396.0,310.5,397.5,322.5,397.5,334.5,397.5,346.5,402.0,358.5,408.0,370.5,414.0,382.5,421.5,394.5,427.5,406.5,435.0,418.5,424.5,430.5,406.5,442.5,385.5,454.5,358.5,466.5,337.5,478.5,315.0,490.5" stroke="black" stroke-width="1" fill="none" />
<polyline points="8.0,562.0,512.0,562.0,512.0,560.0,496.0,576.0" stroke="black" stroke-width="1" fill="none" />
<polyline points="504.0,576.0,512.0,568.0" stroke="black" stroke-width="1" fill="none" />
<polyline points="512.0,552.0,488.0,576.0" stroke="black" stroke-width="1" fill="none" />
<polyline points="480.0,576.0,512.0,544.0" stroke="black" stroke-width="1" fill="none" />
<polyline points="512.0,536.0,472.0,576.0" stroke="black" stroke-width="1" fill="none" />
<polyline points="464.0,576.0,512.0,528.0" stroke="black" stroke-width="1" fill="none" />
<polyline points="512.0,520.0,456.0,576.0" stroke="black" stroke-width="1" fill="none" />
<polyline points="448.0,576.0,512.0,512.0" stroke="black" stroke-width="1" fill="none" />
<polyline points="512.0,504.0,440.0,576.0" stroke="black" stroke-width="1" fill="none" />
<polyline points="432.0,576.0,512.0,496.0" stroke="black" stroke-width="1" fill="none" />
<polyline points="512.0,488.0,424.0,576.0" stroke="black" stroke-width="1" fill="none" />
<polyline points="416.0,576.0,504.0,488.0" stroke="black" stroke-width="1" fill="none" />
<polyline points="504.0,480.0,408.0,576.0" stroke="black" stroke-width="1" fill="none" />
<polyline points="400.0,576.0,496.0,480.0" stroke="black" stroke-width="1" fill="none" />
<polyline points="496.0,472.0,392.0,576.0" stroke="black" stroke-width="1" fill="none" />
<polyline points="384.0,576.0,488.0,472.0" stroke="black" stroke-width="1" fill="none" />
<polyline points="480.0,472.0,376.0,576.0" stroke="black" stroke-width="1" fill="none" />
<polyline points="368.0,576.0,480.0,464.0" stroke="black" stroke-width="1" fill="none" />
<polyline points="472.0,464.0,360.0,576.0" stroke="black" stroke-width="1" fill="none" />
<polyline points="352.0,576.0,472.0,456.0" stroke="black" stroke-width="1" fill="none" />
<polyline points="472.0,448.0,344.0,576.0" stroke="black" stroke-width="1" fill="none" />
<polyline points="336.0,576.0,464.0,448.0" stroke="black" stroke-width="1" fill="none" />
<polyline points="464.0,440.0,440.0,464.0,440.0,462.0,472.0,462.0" stroke="black" stroke-width="1" fill="none" />
<polyline points="456.0,440.0,440.0,456.0,440.0,454.0,464.0,454.0" stroke="black" stroke-width="1" fill="none" />
<polyline points="456.0,432.0,440.0,448.0,440.0,446.0,456.0,446.0" stroke="black" stroke-width="1" fill="none" />
<polyline points="456.0,434.0,448.0,434.0" stroke="black" stroke-width="1" fill="none" />
<polyline points="440.0,442.0,464.0,442.0" stroke="black" stroke-width="1" fill="none" />
<polyline points="480.0,470.0,440.0,470.0" stroke="black" stroke-width="1" fill="none" />
<polyline points="440.0,478.0,488.0,478.0" stroke="black" stroke-width="1" fill="none" />
<polyline points="496.0,486.0,432.0,486.0" stroke="black" stroke-width="1" fill="none" />
<polyline points="424.0,482.0,504.0,482.0" stroke="black" stroke-width="1" fill="none" />
<polyline points="496.0,474.0,432.0,474.0" stroke="black" stroke-width="1" fill="none" />
<polyline points="432.0,466.0,488.0,466.0" stroke="black" stroke-width="1" fill="none" />
<polyline points="480.0,458.0,432.0,458.0" stroke="black" stroke-width="1" fill="none" />
<polyline points="432.0,450.0,472.0,450.0" stroke="black" stroke-width="1" fill="none" />
<polyline points="432.0,416.0,408.0,440.0" stroke="black" stroke-width="1" fill="none" />
<polyline points="392.0,448.0,432.0,408.0" stroke="black" stroke-width="1" fill="none" />
<polyline points="424.0,408.0,376.0,456.0" stroke="black" stroke-width="1" fill="none" />
<polyline points="360.0,464.0,424.0,400.0" stroke="black" stroke-width="1" fill="none" />
<polyline points="424.0,392.0,344.0,472.0" stroke="black" stroke-width="1" fill="none" />
<polyline points="328.0,480.0,416.0,392.0" stroke="black" stroke-width="1" fill="none" />
<polyline points="416.0,384.0,312.0,488.0" stroke="black" stroke-width="1" fill="none" />
<polyline points="304.0,488.0,416.0,376.0" stroke="black" stroke-width="1" fill="none" />
<polyline points="408.0,376.0,304.0,480.0,304.0,478.0,336.0,478.0" stroke="black" stroke-width="1" fill="none" />
<polyline points="304.0,472.0,408.0,368.0" stroke="black" stroke-width="1" fill="none" />
<polyline points="408.0,360.0,304.0,464.0,304.0,462.0,360.0,462.0" stroke="black" stroke-width="1" fill="none" />
<polyline points="376.0,506.0,512.0,506.0" stroke="black" stroke-width="1" fill="none" />
<polyline points="504.0,494.0,424.0,494.0" stroke="black" stroke-width="1" fill="none" />
<polyline points="408.0,496.0,328.0,576.0" stroke="black" stroke-width="1" fill="none" />
<polyline points="320.0,576.0,392.0,504.0" stroke="black" stroke-width="1" fill="none" />
<polyline points="392.0,498.0,512.0,498.0" stroke="black" stroke-width="1" fill="none" />
<polyline points="512.0,490.0,408.0,490.0" stroke="black" stroke-width="1" fill="none" />
<polyline points="400.0,502.0,512.0,502.0" stroke="black" stroke-width="1" fill="none" />
<polyline points="512.0,510.0,384.0,510.0" stroke="black" stroke-width="1" fill="none" />
<polyline points="376.0,512.0,312.0,576.0" stroke="black" stroke-width="1" fill="none" />
<polyline points="304.0,576.0,368.0,512.0" stroke="black" stroke-width="1" fill="none" />
<polyline points="368.0,518.0,512.0,518.0" stroke="black" stroke-width="1" fill="none" />
<polyline points="352.0,520.0,296.0,576.0" stroke="black" stroke-width="1" fill="none" />
<polyline points="288.0,576.0,336.0,528.0" stroke="black" stroke-width="1" fill="none" />
<polyline points="336.0,522.0,512.0,522.0,512.0,526.0,352.0,526.0" stroke="black" stroke-width="1" fill="none" />
<polyline points="352.0,514.0,512.0,514.0" stroke="black" stroke-width="1" fill="none" />
<polyline points="512.0,534.0,336.0,534.0" stroke="black" stroke-width="1" fill="none" />
<polyline points="320.0,536.0,280.0,576.0" stroke="black" stroke-width="1" fill="none" />
<polyline points="272.0,576.0,304.0,544.0" stroke="black" stroke-width="1" fill="none" />
<polyline points="304.0,538.0,512.0,538.0,512.0,542.0,320.0,542.0" stroke="black" stroke-width="1" fill="none" />
<polyline points="320.0,530.0,512.0,530.0" stroke="black" stroke-width="1" fill="none" />
<polyline points="400.0,360.0,304.0,456.0,304.0,458.0,368.0,458.0" stroke="black" stroke-width="1" fill="none" />
<polyline points="376.0,454.0,312.0,454.0" stroke="black" stroke-width="1" fill="none" />
<polyline points="312.0,446.0,400.0,446.0" stroke="black" stroke-width="1" fill="none" />
<polyline points="408.0,438.0,312.0,438.0" stroke="black" stroke-width="1" fill="none" />
<polyline points="312.0,432.0,400.0,344.0" stroke="black" stroke-width="1" fill="none" />
<polyline points="400.0,336.0,312.0,424.0,312.0,422.0,432.0,422.0" stroke="black" stroke-width="1" fill="none" />
<polyline points="400.0,352.0,304.0,448.0,304.0,450.0,392.0,450.0" stroke="black" stroke-width="1" fill="none" />
<polyline points="424.0,430.0,312.0,430.0" stroke="black" stroke-width="1" fill="none" />
<polyline points="304.0,426.0,432.0,426.0" stroke="black" stroke-width="1" fill="none" />
<polyline points="392.0,336.0,312.0,416.0,312.0,414.0,432.0,414.0" stroke="black" stroke-width="1" fill="none" />
<polyline points="400.0,320.0,312.0,408.0,312.0,406.0,424.0,406.0" stroke="black" stroke-width="1" fill="none" />
<polyline points="392.0,320.0,312.0,400.0,312.0,398.0,416.0,398.0" stroke="black" stroke-width="1" fill="none" />
<polyline points="392.0,312.0,304.0,400.0,304.0,402.0,432.0,402.0" stroke="black" stroke-width="1" fill="none" />
<polyline points="392.0,304.0,304.0,392.0,304.0,390.0,416.0,390.0" stroke="black" stroke-width="1" fill="none" />
<polyline points="392.0,296.0,304.0,384.0,304.0,382.0,408.0,382.0" stroke="black" stroke-width="1" fill="none" />
<polyline points="392.0,288.0,304.0,376.0,304.0,374.0,408.0,374.0" stroke="black" stroke-width="1" fill="none" />
<polyline points="392.0,280.0,304.0,368.0" stroke="black" stroke-width="1" fill="none" />
<polyline points="296.0,368.0,392.0,272.0" stroke="black" stroke-width="1" fill="none" />
<polyline points="392.0,264.0,288.0,368.0" stroke="black" stroke-width="1" fill="none" />
<polyline points="280.0,368.0,392.0,256.0" stroke="black" stroke-width="1" fill="none" />
<polyline points="392.0,248.0,272.0,368.0,272.0,366.0,280.0,366.0" stroke="black" stroke-width="1" fill="none" />
<polyline points="296.0,366.0,400.0,366.0" stroke="black" stroke-width="1" fill="none" />
<polyline points="408.0,442.0,304.0,442.0" stroke="black" stroke-width="1" fill="none" />
<polyline points="304.0,434.0,416.0,434.0" stroke="black" stroke-width="1" fill="none" />
<polyline points="320.0,486.0,304.0,486.0" stroke="black" stroke-width="1" fill="none" />
<polyline points="296.0,482.0,328.0,482.0" stroke="black" stroke-width="1" fill="none" />
<polyline points="344.0,470.0,304.0,470.0" stroke="black" stroke-width="1" fill="none" />
<polyline points="296.0,466.0,352.0,466.0" stroke="black" stroke-width="1" fill="none" />
<polyline points="344.0,474.0,296.0,474.0" stroke="black" stroke-width="1" fill="none" />
<polyline points="304.0,418.0,440.0,418.0" stroke="black" stroke-width="1" fill="none" />
<polyline points="432.0,410.0,304.0,410.0" stroke="black" stroke-width="1" fill="none" />
<polyline points="304.0,394.0,424.0,394.0" stroke="black" stroke-width="1" fill="none" />
<polyline points="424.0,386.0,304.0,386.0" stroke="black" stroke-width="1" fill="none" />
<polyline points="296.0,378.0,416.0,378.0" stroke="black" stroke-width="1" fill="none" />
<polyline points="408.0,370.0,296.0,370.0" stroke="black" stroke-width="1" fill="none" />
<polyline points="264.0,368.0,392.0,240.0" stroke="black" stroke-width="1" fill="none" />
<polyline points="384.0,240.0,264.0,360.0" stroke="black" stroke-width="1" fill="none" />
<polyline points="256.0,360.0,384.0,232.0" stroke="black" stroke-width="1" fill="none" />
<polyline points="384.0,224.0,248.0,360.0,248.0,362.0,408.0,362.0" stroke="black" stroke-width="1" fill="none" />
<polyline points="384.0,222.0,304.0,222.0" stroke="black" stroke-width="1" fill="none" />
<polyline points="304.0,214.0,384.0,214.0,384.0,216.0,240.0,360.0,240.0,358.0,400.0,358.0" stroke="black" stroke-width="1" fill="none" />
<polyline points="384.0,238.0,296.0,238.0" stroke="black" stroke-width="1" fill="none" />
<polyline points="296.0,230.0,384.0,230.0" stroke="black" stroke-width="1" fill="none" />
<polyline points="384.0,208.0,232.0,360.0" stroke="black" stroke-width="1" fill="none" />
<polyline points="232.0,352.0,384.0,200.0" stroke="black" stroke-width="1" fill="none" />
<polyline points="376.0,200.0,224.0,352.0,224.0,350.0,392.0,350.0" stroke="black" stroke-width="1" fill="none" />
<polyline points="392.0,278.0,288.0,278.0" stroke="black" stroke-width="1" fill="none" />
<polyline points="288.0,270.0,392.0,270.0" stroke="black" stroke-width="1" fill="none" />
<polyline points="376.0,192.0,280.0,288.0,280.0,286.0,392.0,286.0" stroke="black" stroke-width="1" fill="none" />
<polyline points="376.0,184.0,280.0,280.0,280.0,282.0,392.0,282.0" stroke="black" stroke-width="1" fill="none" />
<polyline points="288.0,264.0,376.0,176.0" stroke="black" stroke-width="1" fill="none" />
<polyline points="376.0,168.0,280.0,264.0,280.0,266.0,392.0,266.0" stroke="black" stroke-width="1" fill="none" />
<polyline points="376.0,206.0,304.0,206.0" stroke="black" stroke-width="1" fill="none" />
<polyline points="304.0,200.0,368.0,136.0" stroke="black" stroke-width="1" fill="none" />
<polyline points="368.0,128.0,304.0,192.0,304.0,190.0,376.0,190.0" stroke="black" stroke-width="1" fill="none" />
<polyline points="376.0,160.0,288.0,248.0,288.0,246.0,384.0,246.0" stroke="black" stroke-width="1" fill="none" />
<polyline points="296.0,224.0,376.0,144.0" stroke="black" stroke-width="1" fill="none" />
<polyline points="368.0,144.0,296.0,216.0,296.0,218.0,384.0,218.0" stroke="black" stroke-width="1" fill="none" />
<polyline points="376.0,152.0,288.0,240.0,288.0,242.0,392.0,242.0" stroke="black" stroke-width="1" fill="none" />
<polyline points="376.0,198.0,304.0,198.0" stroke="black" stroke-width="1" fill="none" />
<polyline points="296.0,194.0,384.0,194.0" stroke="black" stroke-width="1" fill="none" />
<polyline points="368.0,120.0,296.0,192.0" stroke="black" stroke-width="1" fill="none" />
<polyline points="296.0,186.0,384.0,186.0" stroke="black" stroke-width="1" fill="none" />
<polyline points="360.0,120.0,296.0,184.0" stroke="black" stroke-width="1" fill="none" />
<polyline points="288.0,184.0,360.0,112.0" stroke="black" stroke-width="1" fill="none" />
<polyline points="360.0,104.0,280.0,184.0" stroke="black" stroke-width="1" fill="none" />
<polyline points="272.0,176.0,248.0,200.0" stroke="black" stroke-width="1" fill="none" />
<polyline points="248.0,192.0,264.0,176.0" stroke="black" stroke-width="1" fill="none" />
<polyline points="264.0,182.0,376.0,182.0" stroke="black" stroke-width="1" fill="none" />
<polyline points="352.0,104.0,264.0,192.0" stroke="black" stroke-width="1" fill="none" />
<polyline points="256.0,190.0,272.0,190.0" stroke="black" stroke-width="1" fill="none" />
<polyline points="272.0,170.0,376.0,170.0" stroke="black" stroke-width="1" fill="none" />
<polyline points="352.0,96.0,288.0,160.0,288.0,162.0,376.0,162.0" stroke="black" stroke-width="1" fill="none" />
<polyline points="344.0,96.0,288.0,152.0,288.0,154.0,376.0,154.0" stroke="black" stroke-width="1" fill="none" />
<polyline points="344.0,88.0,288.0,144.0,288.0,142.0,368.0,142.0" stroke="black" stroke-width="1" fill="none" />
<polyline points="336.0,88.0,288.0,136.0" stroke="black" stroke-width="1" fill="none" />
<polyline points="280.0,136.0,336.0,80.0" stroke="black" stroke-width="1" fill="none" />
<polyline points="328.0,80.0,272.0,136.0" stroke="black" stroke-width="1" fill="none" />
<polyline points="272.0,130.0,368.0,130.0" stroke="black" stroke-width="1" fill="none" />
<polyline points="328.0,72.0,272.0,128.0,272.0,126.0,368.0,126.0" stroke="black" stroke-width="1" fill="none" />
<polyline points="328.0,64.0,272.0,120.0" stroke="black" stroke-width="1" fill="none" />
<polyline points="264.0,120.0,320.0,64.0" stroke="black" stroke-width="1" fill="none" />
<polyline points="320.0,56.0,264.0,112.0,264.0,110.0,352.0,110.0" stroke="black" stroke-width="1" fill="none" />
<polyline points="312.0,56.0,264.0,104.0" stroke="black" stroke-width="1" fill="none" />
<polyline points="256.0,104.0,304.0,56.0" stroke="black" stroke-width="1" fill="none" />
<polyline points="304.0,48.0,256.0,96.0,256.0,98.0,352.0,98.0" stroke="black" stroke-width="1" fill="none" />
<polyline points="296.0,48.0,248.0,96.0,248.0,94.0,336.0,94.0" stroke="black" stroke-width="1" fill="none" />
<polyline points="288.0,48.0,248.0,88.0" stroke="black" stroke-width="1" fill="none" />
<polyline points="240.0,88.0,288.0,40.0" stroke="black" stroke-width="1" fill="none" />
<polyline points="280.0,40.0,232.0,88.0,232.0,86.0,336.0,86.0" stroke="black" stroke-width="1" fill="none" />
<polyline points="368.0,150.0,296.0,150.0" stroke="black" stroke-width="1" fill="none" />
<polyline points="296.0,158.0,368.0,158.0" stroke="black" stroke-width="1" fill="none" />
<polyline points="384.0,210.0,296.0,210.0" stroke="black" stroke-width="1" fill="none" />
<polyline points="296.0,202.0,384.0,202.0" stroke="black" stroke-width="1" fill="none" />
<polyline points="384.0,262.0,288.0,262.0" stroke="black" stroke-width="1" fill="none" />
<polyline points="288.0,254.0,384.0,254.0" stroke="black" stroke-width="1" fill="none" />
<polyline points="392.0,234.0,288.0,234.0" stroke="black" stroke-width="1" fill="none" />
<polyline points="288.0,226.0,392.0,226.0" stroke="black" stroke-width="1" fill="none" />
<polyline points="376.0,174.0,288.0,174.0" stroke="black" stroke-width="1" fill="none" />
<polyline points="288.0,166.0,368.0,166.0" stroke="black" stroke-width="1" fill="none" />
<polyline points="376.0,146.0,288.0,146.0" stroke="black" stroke-width="1" fill="none" />
<polyline points="280.0,138.0,376.0,138.0" stroke="black" stroke-width="1" fill="none" />
<polyline points="368.0,134.0,280.0,134.0" stroke="black" stroke-width="1" fill="none" />
<polyline points="264.0,122.0,368.0,122.0" stroke="black" stroke-width="1" fill="none" />
<polyline points="360.0,118.0,264.0,118.0,264.0,114.0,368.0,114.0" stroke="black" stroke-width="1" fill="none" />
<polyline points="360.0,106.0,256.0,106.0,256.0,102.0,344.0,102.0" stroke="black" stroke-width="1" fill="none" />
<polyline points="272.0,40.0,224.0,88.0" stroke="black" stroke-width="1" fill="none" />
<polyline points="224.0,80.0,264.0,40.0" stroke="black" stroke-width="1" fill="none" />
<polyline points="256.0,40.0,216.0,80.0" stroke="black" stroke-width="1" fill="none" />
<polyline points="208.0,80.0,248.0,40.0" stroke="black" stroke-width="1" fill="none" />
<polyline points="240.0,40.0,200.0,80.0,200.0,78.0,328.0,78.0" stroke="black" stroke-width="1" fill="none" />
<polyline points="344.0,90.0,240.0,90.0" stroke="black" stroke-width="1" fill="none" />
<polyline points="208.0,70.0,320.0,70.0" stroke="black" stroke-width="1" fill="none" />
<polyline points="232.0,40.0,200.0,72.0,200.0,74.0,336.0,74.0" stroke="black" stroke-width="1" fill="none" />
<polyline points="224.0,40.0,200.0,64.0" stroke="black" stroke-width="1" fill="none" />
<polyline points="208.0,62.0,312.0,62.0" stroke="black" stroke-width="1" fill="none" />
<polyline points="216.0,40.0,168.0,88.0" stroke="black" stroke-width="1" fill="none" />
<polyline points="184.0,80.0,192.0,72.0" stroke="black" stroke-width="1" fill="none" />
<polyline points="200.0,82.0,344.0,82.0" stroke="black" stroke-width="1" fill="none" />
<polyline points="256.0,176.0,240.0,192.0,240.0,190.0,248.0,190.0" stroke="black" stroke-width="1" fill="none" />
<polyline points="240.0,194.0,264.0,194.0" stroke="black" stroke-width="1" fill="none" />
<polyline points="240.0,184.0,232.0,192.0" stroke="black" stroke-width="1" fill="none" />
<polyline points="232.0,186.0,280.0,186.0" stroke="black" stroke-width="1" fill="none" />
<polyline points="232.0,176.0,224.0,184.0" stroke="black" stroke-width="1" fill="none" />
<polyline points="224.0,176.0,208.0,192.0,208.0,190.0,216.0,190.0,216.0,192.0,208.0,200.0" stroke="black" stroke-width="1" fill="none" />
<polyline points="200.0,194.0,216.0,194.0" stroke="black" stroke-width="1" fill="none" />
<polyline points="216.0,182.0,224.0,182.0" stroke="black" stroke-width="1" fill="none" />
<polyline points="216.0,176.0,208.0,184.0" stroke="black" stroke-width="1" fill="none" />
<polyline points="208.0,178.0,384.0,178.0" stroke="black" stroke-width="1" fill="none" />
<polyline points="392.0,294.0,280.0,294.0" stroke="black" stroke-width="1" fill="none" />
<polyline points="272.0,290.0,400.0,290.0" stroke="black" stroke-width="1" fill="none" />
<polyline points="392.0,274.0,280.0,274.0" stroke="black" stroke-width="1" fill="none" />
<polyline points="280.0,258.0,392.0,258.0" stroke="black" stroke-width="1" fill="none" />
<polyline points="392.0,250.0,280.0,250.0" stroke="black" stroke-width="1" fill="none" />
<polyline points="264.0,298.0,400.0,298.0" stroke="black" stroke-width="1" fill="none" />
<polyline points="392.0,302.0,272.0,302.0" stroke="black" stroke-width="1" fill="none" />
<polyline points="264.0,310.0,392.0,310.0" stroke="black" stroke-width="1" fill="none" />
<polyline points="256.0,312.0,224.0,344.0,224.0,342.0,392.0,342.0" stroke="black" stroke-width="1" fill="none" />
<polyline points="392.0,318.0,256.0,318.0" stroke="black" stroke-width="1" fill="none" />
<polyline points="248.0,314.0,400.0,314.0" stroke="black" stroke-width="1" fill="none" />
<polyline points="400.0,306.0,256.0,306.0" stroke="black" stroke-width="1" fill="none" />
<polyline points="240.0,326.0,392.0,326.0" stroke="black" stroke-width="1" fill="none" />
<polyline points="392.0,334.0,232.0,334.0" stroke="black" stroke-width="1" fill="none" />
<polyline points="224.0,330.0,400.0,330.0" stroke="black" stroke-width="1" fill="none" />
<polyline points="400.0,322.0,232.0,322.0" stroke="black" stroke-width="1" fill="none" />
<polyline points="216.0,338.0,400.0,338.0" stroke="black" stroke-width="1" fill="none" />
<polyline points="400.0,354.0,224.0,354.0" stroke="black" stroke-width="1" fill="none" />
<polyline points="216.0,346.0,400.0,346.0" stroke="black" stroke-width="1" fill="none" />
<polyline points="208.0,336.0,72.0,472.0,72.0,474.0,120.0,474.0" stroke="black" stroke-width="1" fill="none" />
<polyline points="112.0,480.0,16.0,576.0" stroke="black" stroke-width="1" fill="none" />
<polyline points="8.0,576.0,144.0,440.0" stroke="black" stroke-width="1" fill="none" />
<polyline points="144.0,432.0,16.0,560.0" stroke="black" stroke-width="1" fill="none" />
<polyline points="16.0,554.0,512.0,554.0" stroke="black" stroke-width="1" fill="none" />
<polyline points="296.0,544.0,264.0,576.0" stroke="black" stroke-width="1" fill="none" />
<polyline points="256.0,576.0,288.0,544.0" stroke="black" stroke-width="1" fill="none" />
<polyline points="288.0,550.0,512.0,550.0" stroke="black" stroke-width="1" fill="none" />
<polyline points="280.0,544.0,248.0,576.0" stroke="black" stroke-width="1" fill="none" />
<polyline points="240.0,576.0,272.0,544.0" stroke="black" stroke-width="1" fill="none" />
<polyline points="264.0,544.0,232.0,576.0" stroke="black" stroke-width="1" fill="none" />
<polyline points="224.0,576.0,256.0,544.0" stroke="black" stroke-width="1" fill="none" />
<polyline points="248.0,544.0,216.0,576.0" stroke="black" stroke-width="1" fill="none" />
<polyline points="208.0,576.0,240.0,544.0" stroke="black" stroke-width="1" fill="none" />
<polyline points="232.0,544.0,200.0,576.0" stroke="black" stroke-width="1" fill="none" />
<polyline points="192.0,576.0,224.0,544.0" stroke="black" stroke-width="1" fill="none" />
<polyline points="216.0,544.0,184.0,576.0" stroke="black" stroke-width="1" fill="none" />
<polyline points="176.0,576.0,208.0,544.0" stroke="black" stroke-width="1" fill="none" />
<polyline points="200.0,544.0,168.0,576.0" stroke="black" stroke-width="1" fill="none" />
<polyline points="160.0,576.0,192.0,544.0" stroke="black" stroke-width="1" fill="none" />
<polyline points="192.0,536.0,152.0,576.0" stroke="black" stroke-width="1" fill="none" />
<polyline points="144.0,576.0,184.0,536.0" stroke="black" stroke-width="1" fill="none" />
<polyline points="176.0,536.0,136.0,576.0" stroke="black" stroke-width="1" fill="none" />
<polyline points="128.0,576.0,168.0,536.0" stroke="black" stroke-width="1" fill="none" />
<polyline points="168.0,528.0,120.0,576.0" stroke="black" stroke-width="1" fill="none" />
<polyline points="112.0,576.0,160.0,528.0" stroke="black" stroke-width="1" fill="none" />
<polyline points="152.0,528.0,104.0,576.0" stroke="black" stroke-width="1" fill="none" />
<polyline points="96.0,576.0,144.0,528.0" stroke="black" stroke-width="1" fill="none" />
<polyline points="144.0,520.0,88.0,576.0" stroke="black" stroke-width="1" fill="none" />
<polyline points="80.0,576.0,136.0,520.0" stroke="black" stroke-width="1" fill="none" />
<polyline points="128.0,520.0,72.0,576.0" stroke="black" stroke-width="1" fill="none" />
<polyline points="64.0,576.0,128.0,512.0" stroke="black" stroke-width="1" fill="none" />
<polyline points="120.0,512.0,56.0,576.0" stroke="black" stroke-width="1" fill="none" />
<polyline points="48.0,576.0,120.0,504.0" stroke="black" stroke-width="1" fill="none" />
<polyline points="112.0,504.0,40.0,576.0" stroke="black" stroke-width="1" fill="none" />
<polyline points="32.0,576.0,112.0,496.0" stroke="black" stroke-width="1" fill="none" />
<polyline points="112.0,488.0,24.0,576.0" stroke="black" stroke-width="1" fill="none" />
<polyline points="16.0,566.0,512.0,566.0" stroke="black" stroke-width="1" fill="none" />
<polyline points="208.0,368.0,184.0,392.0" stroke="black" stroke-width="1" fill="none" />
<polyline points="200.0,368.0,32.0,536.0" stroke="black" stroke-width="1" fill="none" />
<polyline points="32.0,530.0,184.0,530.0" stroke="black" stroke-width="1" fill="none" />
<polyline points="128.0,464.0,144.0,448.0" stroke="black" stroke-width="1" fill="none" />
<polyline points="152.0,414.0,112.0,414.0" stroke="black" stroke-width="1" fill="none" />
<polyline points="104.0,416.0,184.0,336.0" stroke="black" stroke-width="1" fill="none" />
<polyline points="184.0,328.0,104.0,408.0,104.0,406.0,160.0,406.0" stroke="black" stroke-width="1" fill="none" />
<polyline points="184.0,390.0,112.0,390.0" stroke="black" stroke-width="1" fill="none" />
<polyline points="112.0,382.0,200.0,382.0" stroke="black" stroke-width="1" fill="none" />
<polyline points="200.0,360.0,48.0,512.0" stroke="black" stroke-width="1" fill="none" />
<polyline points="48.0,506.0,120.0,506.0" stroke="black" stroke-width="1" fill="none" />
<polyline points="112.0,470.0,80.0,470.0" stroke="black" stroke-width="1" fill="none" />
<polyline points="80.0,462.0,128.0,462.0" stroke="black" stroke-width="1" fill="none" />
<polyline points="144.0,446.0,96.0,446.0" stroke="black" stroke-width="1" fill="none" />
<polyline points="96.0,440.0,200.0,336.0" stroke="black" stroke-width="1" fill="none" />
<polyline points="192.0,336.0,104.0,424.0,104.0,422.0,152.0,422.0" stroke="black" stroke-width="1" fill="none" />
<polyline points="144.0,430.0,104.0,430.0" stroke="black" stroke-width="1" fill="none" />
<polyline points="96.0,426.0,152.0,426.0" stroke="black" stroke-width="1" fill="none" />
<polyline points="152.0,418.0,104.0,418.0" stroke="black" stroke-width="1" fill="none" />
<polyline points="104.0,410.0,160.0,410.0" stroke="black" stroke-width="1" fill="none" />
<polyline points="200.0,374.0,112.0,374.0" stroke="black" stroke-width="1" fill="none" />
<polyline points="112.0,366.0,200.0,366.0" stroke="black" stroke-width="1" fill="none" />
<polyline points="200.0,352.0,64.0,488.0" stroke="black" stroke-width="1" fill="none" />
<polyline points="64.0,482.0,112.0,482.0" stroke="black" stroke-width="1" fill="none" />
<polyline points="88.0,454.0,136.0,454.0" stroke="black" stroke-width="1" fill="none" />
<polyline points="144.0,438.0,96.0,438.0,96.0,434.0,152.0,434.0" stroke="black" stroke-width="1" fill="none" />
<polyline points="168.0,402.0,104.0,402.0,104.0,400.0,176.0,328.0" stroke="black" stroke-width="1" fill="none" />
<polyline points="176.0,320.0,104.0,392.0,104.0,394.0,184.0,394.0" stroke="black" stroke-width="1" fill="none" />
<polyline points="168.0,320.0,104.0,384.0,104.0,386.0,200.0,386.0" stroke="black" stroke-width="1" fill="none" />
<polyline points="168.0,312.0,104.0,376.0,104.0,378.0,208.0,378.0" stroke="black" stroke-width="1" fill="none" />
<polyline points="168.0,304.0,104.0,368.0,104.0,370.0,208.0,370.0" stroke="black" stroke-width="1" fill="none" />
<polyline points="160.0,304.0,104.0,360.0,104.0,358.0,200.0,358.0" stroke="black" stroke-width="1" fill="none" />
<polyline points="160.0,296.0,104.0,352.0,104.0,350.0,200.0,350.0" stroke="black" stroke-width="1" fill="none" />
<polyline points="200.0,282.0,224.0,282.0" stroke="black" stroke-width="1" fill="none" />
<polyline points="216.0,274.0,232.0,274.0" stroke="black" stroke-width="1" fill="none" />
<polyline points="216.0,256.0,200.0,272.0" stroke="black" stroke-width="1" fill="none" />
<polyline points="192.0,272.0,216.0,248.0,216.0,250.0,200.0,250.0" stroke="black" stroke-width="1" fill="none" />
<polyline points="200.0,256.0,192.0,264.0,192.0,262.0,216.0,262.0,216.0,266.0,192.0,266.0" stroke="black" stroke-width="1" fill="none" />
<polyline points="184.0,258.0,224.0,258.0" stroke="black" stroke-width="1" fill="none" />
<polyline points="224.0,186.0,200.0,186.0" stroke="black" stroke-width="1" fill="none" />
<polyline points="216.0,170.0,224.0,170.0" stroke="black" stroke-width="1" fill="none" />
<polyline points="176.0,184.0,160.0,200.0" stroke="black" stroke-width="1" fill="none" />
<polyline points="160.0,194.0,176.0,194.0,176.0,192.0,168.0,200.0,168.0,198.0,176.0,198.0,176.0,202.0,168.0,202.0" stroke="black" stroke-width="1" fill="none" />
<polyline points="160.0,192.0,168.0,184.0" stroke="black" stroke-width="1" fill="none" />
<polyline points="152.0,184.0,144.0,192.0" stroke="black" stroke-width="1" fill="none" />
<polyline points="144.0,184.0,96.0,232.0,96.0,230.0,128.0,230.0" stroke="black" stroke-width="1" fill="none" />
<polyline points="136.0,232.0,88.0,280.0,88.0,282.0,152.0,282.0" stroke="black" stroke-width="1" fill="none" />
<polyline points="152.0,288.0,96.0,344.0,96.0,346.0,200.0,346.0" stroke="black" stroke-width="1" fill="none" />
<polyline points="152.0,296.0,104.0,344.0,104.0,342.0,192.0,342.0" stroke="black" stroke-width="1" fill="none" />
<polyline points="144.0,288.0,96.0,336.0,96.0,334.0,184.0,334.0" stroke="black" stroke-width="1" fill="none" />
<polyline points="144.0,280.0,96.0,328.0,96.0,326.0,176.0,326.0" stroke="black" stroke-width="1" fill="none" />
<polyline points="144.0,272.0,96.0,320.0,96.0,318.0,168.0,318.0" stroke="black" stroke-width="1" fill="none" />
<polyline points="144.0,264.0,88.0,320.0,88.0,322.0,176.0,322.0" stroke="black" stroke-width="1" fill="none" />
<polyline points="144.0,256.0,88.0,312.0,88.0,314.0,176.0,314.0" stroke="black" stroke-width="1" fill="none" />
<polyline points="136.0,256.0,88.0,304.0,88.0,306.0,168.0,306.0" stroke="black" stroke-width="1" fill="none" />
<polyline points="136.0,248.0,88.0,296.0,88.0,298.0,160.0,298.0" stroke="black" stroke-width="1" fill="none" />
<polyline points="136.0,240.0,88.0,288.0,88.0,290.0,152.0,290.0" stroke="black" stroke-width="1" fill="none" />
<polyline points="160.0,310.0,96.0,310.0" stroke="black" stroke-width="1" fill="none" />
<polyline points="96.0,302.0,152.0,302.0" stroke="black" stroke-width="1" fill="none" />
<polyline points="192.0,330.0,96.0,330.0" stroke="black" stroke-width="1" fill="none" />
<polyline points="96.0,338.0,208.0,338.0" stroke="black" stroke-width="1" fill="none" />
<polyline points="176.0,398.0,104.0,398.0" stroke="black" stroke-width="1" fill="none" />
<polyline points="104.0,362.0,208.0,362.0" stroke="black" stroke-width="1" fill="none" />
<polyline points="200.0,354.0,104.0,354.0" stroke="black" stroke-width="1" fill="none" />
<polyline points="96.0,294.0,144.0,294.0" stroke="black" stroke-width="1" fill="none" />
<polyline points="144.0,286.0,96.0,286.0" stroke="black" stroke-width="1" fill="none" />
<polyline points="96.0,278.0,144.0,278.0" stroke="black" stroke-width="1" fill="none" />
<polyline points="136.0,270.0,96.0,270.0" stroke="black" stroke-width="1" fill="none" />
<polyline points="96.0,262.0,136.0,262.0" stroke="black" stroke-width="1" fill="none" />
<polyline points="136.0,224.0,88.0,272.0,88.0,274.0,144.0,274.0" stroke="black" stroke-width="1" fill="none" />
<polyline points="136.0,254.0,96.0,254.0" stroke="black" stroke-width="1" fill="none" />
<polyline points="96.0,246.0,136.0,246.0" stroke="black" stroke-width="1" fill="none" />
<polyline points="136.0,216.0,88.0,264.0,88.0,266.0,144.0,266.0" stroke="black" stroke-width="1" fill="none" />
<polyline points="128.0,214.0,104.0,214.0" stroke="black" stroke-width="1" fill="none" />
<polyline points="104.0,206.0,128.0,206.0" stroke="black" stroke-width="1" fill="none" />
<polyline points="136.0,208.0,88.0,256.0,88.0,258.0,144.0,258.0" stroke="black" stroke-width="1" fill="none" />
<polyline points="128.0,238.0,96.0,238.0" stroke="black" stroke-width="1" fill="none" />
<polyline points="88.0,234.0,136.0,234.0" stroke="black" stroke-width="1" fill="none" />
<polyline points="136.0,200.0,88.0,248.0,88.0,250.0,144.0,250.0" stroke="black" stroke-width="1" fill="none" />
<polyline points="96.0,224.0,136.0,184.0" stroke="black" stroke-width="1" fill="none" />
<polyline points="136.0,176.0,96.0,216.0,96.0,218.0,136.0,218.0" stroke="black" stroke-width="1" fill="none" />
<polyline points="136.0,182.0,112.0,182.0" stroke="black" stroke-width="1" fill="none" />
<polyline points="112.0,174.0,136.0,174.0" stroke="black" stroke-width="1" fill="none" />
<polyline points="136.0,168.0,96.0,208.0,96.0,210.0,136.0,210.0" stroke="black" stroke-width="1" fill="none" />
<polyline points="136.0,198.0,104.0,198.0" stroke="black" stroke-width="1" fill="none" />
<polyline points="104.0,192.0,136.0,160.0" stroke="black" stroke-width="1" fill="none" />
<polyline points="136.0,152.0,104.0,184.0,104.0,186.0,184.0,186.0" stroke="black" stroke-width="1" fill="none" />
<polyline points="176.0,178.0,152.0,178.0" stroke="black" stroke-width="1" fill="none" />
<polyline points="136.0,144.0,112.0,168.0,112.0,166.0,136.0,166.0" stroke="black" stroke-width="1" fill="none" />
<polyline points="112.0,160.0,136.0,136.0" stroke="black" stroke-width="1" fill="none" />
<polyline points="136.0,128.0,112.0,152.0,112.0,150.0,136.0,150.0" stroke="black" stroke-width="1" fill="none" />
<polyline points="136.0,142.0,120.0,142.0" stroke="black" stroke-width="1" fill="none" />
<polyline points="120.0,136.0,144.0,112.0,144.0,110.0,136.0,110.0" stroke="black" stroke-width="1" fill="none" />
<polyline points="136.0,104.0,200.0,40.0" stroke="black" stroke-width="1" fill="none" />
<polyline points="200.0,46.0,280.0,46.0" stroke="black" stroke-width="1" fill="none" />
<polyline points="264.0,34.0,216.0,34.0" stroke="black" stroke-width="1" fill="none" />
<polyline points="208.0,40.0,128.0,120.0,128.0,118.0,136.0,118.0" stroke="black" stroke-width="1" fill="none" />
<polyline points="136.0,126.0,128.0,126.0" stroke="black" stroke-width="1" fill="none" />
<polyline points="120.0,122.0,144.0,122.0" stroke="black" stroke-width="1" fill="none" />
<polyline points="144.0,114.0,128.0,114.0" stroke="black" stroke-width="1" fill="none" />
<polyline points="128.0,106.0,144.0,106.0,144.0,102.0,136.0,102.0,136.0,98.0,152.0,98.0,152.0,94.0,144.0,94.0" stroke="black" stroke-width="1" fill="none" />
<polyline points="144.0,88.0,184.0,48.0" stroke="black" stroke-width="1" fill="none" />
<polyline points="184.0,42.0,296.0,42.0" stroke="black" stroke-width="1" fill="none" />
<polyline points="304.0,54.0,184.0,54.0" stroke="black" stroke-width="1" fill="none" />
<polyline points="176.0,50.0,312.0,50.0" stroke="black" stroke-width="1" fill="none" />
<polyline points="192.0,62.0,168.0,62.0" stroke="black" stroke-width="1" fill="none" />
<polyline points="160.0,58.0,320.0,58.0" stroke="black" stroke-width="1" fill="none" />
<polyline points="192.0,70.0,160.0,70.0" stroke="black" stroke-width="1" fill="none" />
<polyline points="152.0,66.0,328.0,66.0" stroke="black" stroke-width="1" fill="none" />
<polyline points="184.0,78.0,152.0,78.0,152.0,74.0,192.0,74.0" stroke="black" stroke-width="1" fill="none" />
<polyline points="176.0,86.0,144.0,86.0,144.0,82.0,184.0,82.0" stroke="black" stroke-width="1" fill="none" />
<polyline points="168.0,90.0,136.0,90.0" stroke="black" stroke-width="1" fill="none" />
<polyline points="144.0,130.0,120.0,130.0,120.0,134.0,136.0,134.0" stroke="black" stroke-width="1" fill="none" />
<polyline points="136.0,158.0,112.0,158.0,112.0,154.0,136.0,154.0" stroke="black" stroke-width="1" fill="none" />
<polyline points="136.0,146.0,112.0,146.0" stroke="black" stroke-width="1" fill="none" />
<polyline points="112.0,138.0,144.0,138.0" stroke="black" stroke-width="1" fill="none" />
<polyline points="144.0,178.0,104.0,178.0" stroke="black" stroke-width="1" fill="none" />
<polyline points="104.0,170.0,136.0,170.0" stroke="black" stroke-width="1" fill="none" />
<polyline points="144.0,190.0,104.0,190.0" stroke="black" stroke-width="1" fill="none" />
<polyline points="96.0,194.0,152.0,194.0" stroke="black" stroke-width="1" fill="none" />
<polyline points="136.0,162.0,104.0,162.0" stroke="black" stroke-width="1" fill="none" />
<polyline points="96.0,202.0,136.0,202.0" stroke="black" stroke-width="1" fill="none" />
<polyline points="128.0,222.0,96.0,222.0" stroke="black" stroke-width="1" fill="none" />
<polyline points="88.0,226.0,136.0,226.0" stroke="black" stroke-width="1" fill="none" />
<polyline points="136.0,242.0,88.0,242.0" stroke="black" stroke-width="1" fill="none" />
<polyline points="88.0,442.0,144.0,442.0" stroke="black" stroke-width="1" fill="none" />
<polyline points="136.0,458.0,80.0,458.0" stroke="black" stroke-width="1" fill="none" />
<polyline points="80.0,450.0,144.0,450.0" stroke="black" stroke-width="1" fill="none" />
<polyline points="112.0,486.0,72.0,486.0" stroke="black" stroke-width="1" fill="none" />
<polyline points="72.0,478.0,112.0,478.0" stroke="black" stroke-width="1" fill="none" />
<polyline points="120.0,466.0,72.0,466.0" stroke="black" stroke-width="1" fill="none" />
<polyline points="56.0,490.0,112.0,490.0,112.0,494.0,64.0,494.0" stroke="black" stroke-width="1" fill="none" />
<polyline points="56.0,498.0,112.0,498.0" stroke="black" stroke-width="1" fill="none" />
<polyline points="112.0,510.0,56.0,510.0" stroke="black" stroke-width="1" fill="none" />
<polyline points="56.0,502.0,112.0,502.0" stroke="black" stroke-width="1" fill="none" />
<polyline points="120.0,518.0,48.0,518.0" stroke="black" stroke-width="1" fill="none" />
<polyline points="40.0,514.0,136.0,514.0" stroke="black" stroke-width="1" fill="none" />
<polyline points="168.0,534.0,40.0,534.0" stroke="black" stroke-width="1" fill="none" />
<polyline points="40.0,526.0,144.0,526.0" stroke="black" stroke-width="1" fill="none" />
<polyline points="152.0,522.0,40.0,522.0" stroke="black" stroke-width="1" fill="none" />
<polyline points="32.0,542.0,184.0,542.0" stroke="black" stroke-width="1" fill="none" />
<polyline points="224.0,550.0,24.0,550.0,24.0,546.0,512.0,546.0" stroke="black" stroke-width="1" fill="none" />
<polyline points="512.0,558.0,24.0,558.0" stroke="black" stroke-width="1" fill="none" />
<polyline points="8.0,570.0,512.0,570.0" stroke="black" stroke-width="1" fill="none" />
<polyline points="200.0,538.0,24.0,538.0" stroke="black" stroke-width="1" fill="none" />
<polyline points="8.0,574.0,512.0,574.0" stroke="black" stroke-width="1" fill="none" />
</svg>